<svg fill="#777" xmlns="http://www.w3.org/2000/svg" width="251" height="181.127" viewBox="0 0 251 181.127">
  <g id="undraw_profile_6l1l" transform="translate(0 0.251)">
    <line id="Line_17218" data-name="Line 17218" x2="40.397" transform="translate(0 180.376)" fill="none" stroke="#3f3d56" stroke-miterlimit="10" stroke-width="1"/>
    <rect id="Rectangle_708" data-name="Rectangle 708" width="179.355" height="121.436" rx="19.398" transform="translate(59.136 31.076)" fill="#f2f2f2"/>
    <rect id="Rectangle_709" data-name="Rectangle 709" width="179.355" height="121.436" rx="19.398" transform="translate(53.66 23.41)" fill="none" stroke="#3f3d56" stroke-miterlimit="10" stroke-width="1"/>
    <line id="Line_17219" data-name="Line 17219" x2="179.355" transform="translate(53.66 35.053)" fill="none" stroke="#3f3d56" stroke-miterlimit="10" stroke-width="1"/>
    <rect id="Rectangle_710" data-name="Rectangle 710" width="48.915" height="7.544" rx="3.772" transform="translate(160.86 62.348)" fill="#426a5a" opacity="0.3"/>
    <rect id="Rectangle_711" data-name="Rectangle 711" width="67.654" height="6.084" rx="3.042" transform="translate(151.49 83.276)" fill="#426a5a" opacity="0.3"/>
    <rect id="Rectangle_712" data-name="Rectangle 712" width="67.654" height="6.084" rx="3.042" transform="translate(151.49 99.825)" fill="#426a5a" opacity="0.3"/>
    <rect id="Rectangle_713" data-name="Rectangle 713" width="67.654" height="6.084" rx="3.042" transform="translate(151.49 116.373)" fill="#426a5a" opacity="0.3"/>
    <rect id="Rectangle_714" data-name="Rectangle 714" width="48.915" height="7.544" rx="3.772" transform="translate(163.293 59.914)" fill="none" stroke="#3f3d56" stroke-miterlimit="10" stroke-width="1"/>
    <rect id="Rectangle_715" data-name="Rectangle 715" width="67.654" height="6.084" rx="3.042" transform="translate(153.924 80.843)" fill="none" stroke="#3f3d56" stroke-miterlimit="10" stroke-width="1"/>
    <rect id="Rectangle_716" data-name="Rectangle 716" width="67.654" height="6.084" rx="3.042" transform="translate(153.924 97.391)" fill="none" stroke="#3f3d56" stroke-miterlimit="10" stroke-width="1"/>
    <rect id="Rectangle_717" data-name="Rectangle 717" width="67.654" height="6.084" rx="3.042" transform="translate(153.924 113.939)" fill="none" stroke="#3f3d56" stroke-miterlimit="10" stroke-width="1"/>
    <circle id="Ellipse_591" data-name="Ellipse 591" cx="3.65" cy="3.65" r="3.65" transform="translate(63.638 27.061)" fill="#426a5a" opacity="0.3"/>
    <circle id="Ellipse_592" data-name="Ellipse 592" cx="3.65" cy="3.65" r="3.65" transform="translate(73.859 27.061)" fill="#426a5a" opacity="0.3"/>
    <circle id="Ellipse_593" data-name="Ellipse 593" cx="3.65" cy="3.65" r="3.65" transform="translate(84.08 27.061)" fill="#426a5a" opacity="0.3"/>
    <circle id="Ellipse_594" data-name="Ellipse 594" cx="3.65" cy="3.65" r="3.65" transform="translate(65.098 25.6)" fill="none" stroke="#3f3d56" stroke-miterlimit="10" stroke-width="1"/>
    <circle id="Ellipse_595" data-name="Ellipse 595" cx="3.65" cy="3.65" r="3.65" transform="translate(75.319 25.6)" fill="none" stroke="#3f3d56" stroke-miterlimit="10" stroke-width="1"/>
    <circle id="Ellipse_596" data-name="Ellipse 596" cx="3.65" cy="3.65" r="3.65" transform="translate(85.54 25.6)" fill="none" stroke="#3f3d56" stroke-miterlimit="10" stroke-width="1"/>
    <path id="Path_2126" data-name="Path 2126" d="M508.843,578.205a36.289,36.289,0,0,1-.568-9.335s-3.09-13.576-5.522-14.843h0c-.037.048-1.217,1.595-1.367,6.382a19.683,19.683,0,0,1-1.874,8.054,71.365,71.365,0,0,1,.239,9.741Z" transform="translate(-398.515 -438.47)" fill="#426a5a"/>
    <path id="Path_2127" data-name="Path 2127" d="M437.868,298.379H381.785A5.785,5.785,0,0,0,376,304.164v74.822a5.785,5.785,0,0,0,5.785,5.785h19.677c-.657-2.725-1.474-6.982-.647-9.942v0h0c.039-.138.08-.274.126-.406a15.453,15.453,0,0,0,.558-5.927,12.317,12.317,0,0,0,0-5.167c-.608-2.837-1.033-5.623-1.033-5.623a36.34,36.34,0,0,1-.043-6.046c.006-.051.014-.1.021-.147l-.161-.037s.861-3.9,1.165-6.383c.072-.586.166-1.329.268-2.121a5.1,5.1,0,0,1-.826-.209c-2.735-.962-3.6-9.675-3.6-9.675v-2.761s-.912-4.23,2.279-6.1a37.124,37.124,0,0,1,4.387-2.333c.023-.017.046-.032.07-.05a2.692,2.692,0,0,0,.8-1.03q.006-.1,0-.207a4.945,4.945,0,0,0-1.395-2.675l-1.673-2.009a1.965,1.965,0,0,1-.431-.7,1.608,1.608,0,0,1-.045-.439q0-.082,0-.164.014-.749.041-1.5c.016-.436.125-.986.553-1.076.222-.047.516.035.634-.16a.381.381,0,0,0,.028-.258c0,.007,0,.013,0,.02l0-.024a5.46,5.46,0,0,1-.158-1.067,1.422,1.422,0,0,1,.069-.479c.247-.724,1.1-1.021,1.852-1.158a3.215,3.215,0,0,0,2.071-.856,6.556,6.556,0,0,1,.411-.578,1.613,1.613,0,0,1,.77-.389,4.259,4.259,0,0,1,2.8.249,2.467,2.467,0,0,0,1.129.365c.415-.026.769-.318,1.179-.389a1.677,1.677,0,0,1,1.62.968,2.4,2.4,0,0,1,.3,1.222,1.682,1.682,0,0,1-.429,1.154c-.285.3-.71.51-.828.908-.048.162-.037.336-.08.5-.005.02-.014.04-.021.059l.024.03a5.167,5.167,0,0,1-2.514,8.036c0,.051,0,.1,0,.154a2.232,2.232,0,0,0,.691,1.719l4.514,1.851s2.717-.329,3.7,3.726a7.013,7.013,0,0,1,.168,2.058,6.14,6.14,0,0,0,.744,3.081c1.114,2.229.861,7.345-1.418,7.852a7.253,7.253,0,0,1-3.082.256l0,.09c.036.96.377,9.24,1.618,10.242.343.277.277.464,0,.59h0s0,.053.008.149a10.453,10.453,0,0,0,1.059,4.224c.963,1.52.862,10.284.862,10.284l.658,5.167s-.4,3.191,0,3.748c.23.316.509,5.209.707,9.386h16.921a5.785,5.785,0,0,0,5.785-5.785V304.164a5.785,5.785,0,0,0-5.785-5.785Z" transform="translate(-305.061 -245.036)" fill="#426a5a"/>
    <rect id="Rectangle_718" data-name="Rectangle 718" width="67.654" height="86.392" rx="23.772" transform="translate(65.098 46.773)" fill="none" stroke="#3f3d56" stroke-miterlimit="10" stroke-width="1"/>
    <path id="Path_2128" data-name="Path 2128" d="M176.382,399.882s-2.269-.671-2.756.059.664,6.023.664,6.023l5,.3-1.745-4.406Z" transform="translate(-151.846 -321.624)" fill="#2f2e41"/>
    <path id="Path_2129" data-name="Path 2129" d="M101.575,579.347s4.55,9.988,1.046,9.674-4.863-9.674-4.863-9.674Z" transform="translate(-94.531 -457.628)" fill="#a0616a"/>
    <path id="Path_2130" data-name="Path 2130" d="M233.863,572.2s-2,10.792,1.328,9.64,2.376-10.564,2.376-10.564Z" transform="translate(-197.065 -451.519)" fill="#a0616a"/>
    <path id="Path_2131" data-name="Path 2131" d="M150.78,384.776s-.052,5.02,1.883,5.282-1.1,2.928-1.1,2.928l-3.451.68-4.968-.366-2.2-2.824s3.87-1.83,2.2-7.53Z" transform="translate(-127.212 -309.022)" fill="#a0616a"/>
    <path id="Path_2132" data-name="Path 2132" d="M150.78,384.776s-.052,5.02,1.883,5.282-1.1,2.928-1.1,2.928l-3.451.68-4.968-.366-2.2-2.824s3.87-1.83,2.2-7.53Z" transform="translate(-127.212 -309.022)" opacity="0.1"/>
    <path id="Path_2133" data-name="Path 2133" d="M148.071,564.921s2.458,5.282.523,21.859c0,0,.575,5.857.1,6.955s-4.34,16-4.34,16-4.968,1.1-5.648-2.2c0,0,.68-4.706.628-5.438s1.1-8.733,1.1-8.733l-2.353-15.479L136.3,591.852s0,4.027-.575,4.916,0,18.773,0,18.773,1.621,2.719-.837,2.772-4.654-.052-4.863-1.778a16.037,16.037,0,0,0-.837-4.5c-.523-1.046-1.2-13.021-1.046-17.2s-3.451-25.676-2.3-27.925S148.071,564.921,148.071,564.921Z" transform="translate(-115.613 -446.706)" fill="#2f2e41"/>
    <circle id="Ellipse_597" data-name="Ellipse 597" cx="6.275" cy="6.275" r="6.275" transform="translate(14.626 65.086)" fill="#a0616a"/>
    <path id="Path_2134" data-name="Path 2134" d="M134.521,408.789a9.925,9.925,0,0,0,9.36.575s1.83-.889,1.673-2.249,3.817,10.929,3.817,10.929l4.027,21.388-.209,8.733s-1.778-.889-7.321,1.1-14.59-2.249-14.59-2.249l.314-22.434.314-13.073.837-2.876S133.162,407.847,134.521,408.789Z" transform="translate(-119.895 -327.231)" fill="#f2f2f2"/>
    <path id="Path_2135" data-name="Path 2135" d="M182.063,399.879s.924-.15,1.813,1.262a7.557,7.557,0,0,0,2.981,2.3s5.072.314,5.8,3.033,2.562,6.432,3.451,13.282,2.667,17.78,2.928,18.669-.366,3.608.366,4.445-5.177.837-5.177.837-.523-4.288-.889-4.288-.261,2.876.1,4.968-2.667,0-2.667,0-2.353-9.57-4.6-18.2-3.556-13.387-3.137-15.322,1.569-7.478.732-8S182.063,399.879,182.063,399.879Z" transform="translate(-158.32 -321.831)" fill="#2f2e41"/>
    <path id="Path_2136" data-name="Path 2136" d="M104.528,399.874a56.958,56.958,0,0,0-4.818,3.2c-3.451,2.458-5.8,4.34-5.8,4.34s-1.36,1.046-2.2,7.269-2.719,22.329-1.987,24.369.994,3.242.732,4.445,5.491,1.15,5.6.889-.157-5.02.1-5.125,1.673,2.824,1.935,5.282,3.294,4.393,3.974,4.393,4.183-14.171,4.236-23.846-1.15-17.832-2.039-18.982S104.528,399.874,104.528,399.874Z" transform="translate(-88.326 -321.831)" fill="#2f2e41"/>
    <path id="Path_2137" data-name="Path 2137" d="M174.4,732.755a1.474,1.474,0,0,1,1.883-.784,2.541,2.541,0,0,0,2.458-.941s.784-.1.261.889-.941,1.673-.941,1.673,3.138,7.164,1.1,8.89a4.373,4.373,0,0,1-4.393.68s-2.3-1.621-2.2-5.909a9.553,9.553,0,0,0-1.36-3.556c-1.255-2.2-2.2-5.543-.68-6.171a8.211,8.211,0,0,1,1.907-.651s-.71,3.246,1.123,4.38Z" transform="translate(-149.004 -569.253)" fill="#3f3d56"/>
    <path id="Path_2138" data-name="Path 2138" d="M144.16,775.624s-1.255-2.353.837-2.615,4.34-.418,4.236.68-.366,2.771-.366,2.771l.366,1.2s.1,2.981.471,3.347,2.353,3.5-1.883,3.5-5.491-.471-5.125-1.464a40.329,40.329,0,0,0,.471-5.909Z" transform="translate(-128.488 -604.017)" fill="#3f3d56"/>
    <path id="Path_2139" data-name="Path 2139" d="M135.5,337.065s2.928.784,4.445,1.1,1.36-.575,1.36-.575,1.987.261,1.883.052.837-1.307-.261-2.562a2.411,2.411,0,0,1-.784-2.2H141.2l-.261-.366h-1.464a9.021,9.021,0,0,0-3.974,0c-2.876.418-6.8.523-7.112,2.249s-1.935,3.87-1.36,4.863,3.87,5.072,4.183,6.8,1.779,2.109,1.726,1.028-1.517-4.846-.262-5S136.077,339.1,135.5,337.065Z" transform="translate(-116.588 -270.724)" fill="#2f2e41"/>
    <path id="Path_2140" data-name="Path 2140" d="M1003.089,86.584a5.593,5.593,0,0,0-4.821,3.371c-1.206,2.914.347,6.337,2.677,8.462s5.323,3.339,8.043,4.936a21.557,21.557,0,0,1,8.762,8.942,13.229,13.229,0,0,1-.126,12.2c-1.994,3.388-5.62,5.416-9.078,7.286" transform="translate(-775.578 -84.783)" fill="none" stroke="#3f3d56" stroke-miterlimit="10" stroke-width="1"/>
    <ellipse id="Ellipse_598" data-name="Ellipse 598" cx="4.5" cy="2" rx="4.5" ry="2" transform="translate(226 -0.251)" fill="#426a5a"/>
    <ellipse id="Ellipse_599" data-name="Ellipse 599" cx="4" cy="2.5" rx="4" ry="2.5" transform="translate(230 12.749)" fill="#426a5a"/>
    <ellipse id="Ellipse_600" data-name="Ellipse 600" cx="5" cy="2" rx="5" ry="2" transform="translate(221 15.749)" fill="#426a5a"/>
    <ellipse id="Ellipse_601" data-name="Ellipse 601" cx="4" cy="2" rx="4" ry="2" transform="translate(234 27.749)" fill="#426a5a"/>
    <ellipse id="Ellipse_602" data-name="Ellipse 602" cx="4.5" cy="2" rx="4.5" ry="2" transform="translate(242 27.749)" fill="#426a5a"/>
  </g>
</svg>
