<svg xmlns="http://www.w3.org/2000/svg" width="304.436" height="279.372" viewBox="0 0 304.436 279.372">
  <g id="undraw_taking_selfie_lbo7" transform="translate(0 20.89)">
    <path id="Path_976" data-name="Path 976" d="M75.642,223.446,245.5,137.786,176.012,0,0,80.538Z" transform="matrix(0.966, 0.259, -0.259, 0.966, 67.302, -20.89)" fill="#ffecbc"/>
    <circle id="Ellipse_110" data-name="Ellipse 110" cx="10.819" cy="10.819" r="10.819" transform="translate(226.167 158.536)" fill="#426a5a" opacity="0.4"/>
    <circle id="Ellipse_111" data-name="Ellipse 111" cx="7.589" cy="7.589" r="7.589" transform="translate(209.374 166.933)" fill="#426a5a" opacity="0.4"/>
    <path id="Path_989" data-name="Path 989" d="M0,0H33.929V33.929H0Z" transform="translate(30.836 154.769) rotate(30)" fill="#ffecbc"/>
    <path id="Path_977" data-name="Path 977" d="M758.134,400.724a7.617,7.617,0,1,1,7.617-7.617A7.617,7.617,0,0,1,758.134,400.724Zm0-14.541a6.924,6.924,0,1,0,6.924,6.924A6.924,6.924,0,0,0,758.134,386.182Z" transform="translate(-553.521 -292.717)" fill="#3f3d56"/>
    <path id="Path_978" data-name="Path 978" d="M381.134,337.724a7.617,7.617,0,1,1,7.617-7.617A7.617,7.617,0,0,1,381.134,337.724Zm0-14.541a6.924,6.924,0,1,0,6.924,6.924A6.924,6.924,0,0,0,381.134,323.182Z" transform="translate(-307.044 -251.528)" fill="#3f3d56"/>
    <path id="Path_979" data-name="Path 979" d="M294.134,686.724a7.617,7.617,0,1,1,7.617-7.617A7.617,7.617,0,0,1,294.134,686.724Zm0-14.541a6.924,6.924,0,1,0,6.924,6.924A6.924,6.924,0,0,0,294.134,672.182Z" transform="translate(-250.165 -479.699)" fill="#3f3d56"/>
    <ellipse id="Ellipse_112" data-name="Ellipse 112" cx="11.771" cy="7.097" rx="11.771" ry="7.097" transform="translate(95.583 82.483) rotate(-48.312)" fill="#2f2e41"/>
    <circle id="Ellipse_113" data-name="Ellipse 113" cx="30.813" cy="30.813" r="30.813" transform="translate(100.229 69.412)" fill="#2f2e41"/>
    <path id="Path_980" data-name="Path 980" d="M235.608,367.759l-28.64,2.343a4.739,4.739,0,0,0-4.34,4.381l-1.069,14.758a4.739,4.739,0,0,0,4.727,5.082h12.908v.692h5.193v-.692h2.77v.692h5.193v-.692h2.768a4.739,4.739,0,0,0,4.733-4.5l.877-17.1a4.739,4.739,0,0,0-5.119-4.966Z" transform="translate(-194.612 -281.114)" fill="#2f2e41"/>
    <path id="Path_981" data-name="Path 981" d="M262.295,466.555l-40.507-19.042-7.271,11.425s21.063,13.446,22.158,14.541c1.558,1.558,18.349,12.464,24.928,10.733S265.065,468.286,262.295,466.555Z" transform="translate(-203.092 -333.266)" fill="#9f616a"/>
    <path id="Path_982" data-name="Path 982" d="M241.193,641.719,236,653.491h53.76l-3.905-12.464Z" transform="translate(-154.293 -421.184)" fill="#2f2e41"/>
    <path id="Path_983" data-name="Path 983" d="M527.164,465.266s2.077,11.425,0,12.81,13.849,18.349,13.849,18.349l6.578-5.886,2.077-13.5s-6.232-8.655-3.462-16.272S527.164,465.266,527.164,465.266Z" transform="translate(-407.374 -340.286)" fill="#9f616a"/>
    <circle id="Ellipse_114" data-name="Ellipse 114" cx="22.158" cy="22.158" r="22.158" transform="translate(103.864 84.126)" fill="#9f616a"/>
    <path id="Path_984" data-name="Path 984" d="M472.868,515.763s-8.655-13.156-13.5-14.195-9.348-.346-12.118,0-12.118-3.116-17.657-.692,0,30.813,0,30.813-6.232,36.353-3.462,45.7.692,11.079-.692,12.117,31.506,10.386,31.506,10.386H488.1s0-10.04,3.116-12.464,2.77-53.663,2.77-53.663l10.387-20.081s-1.731-7.617-9-7.963a34,34,0,0,1-13.76-4.163l-4.935,14.2Z" transform="translate(-340.961 -367.587)" fill="#426a5a"/>
    <path id="Path_985" data-name="Path 985" d="M367.409,498.9l-3.116-1.731s-5.886.346-6.924,0-14.195-4.5-19.388-2.077-8.655-.692-8.655-.692,16.965,14.541-3.808,19.042c0,0,.346,1.731,5.539,2.77s6.232,2.077,8.309,3.808a26.791,26.791,0,0,0,9,4.155c2.77.692,11.771,6.578,13.156,5.193s3.808-6.232,3.808-6.232Z" transform="translate(-275.662 -363.876)" fill="#426a5a"/>
    <path id="Path_986" data-name="Path 986" d="M615.344,528.513l6.578,3.808s8.655,25.62,7.271,31.852-2.77,5.193-.692,9.348,4.155,4.5,2.77,8.309-.692,13.156-2.77,16.965-12.118,15.926-20.773-4.5S615.344,528.513,615.344,528.513Z" transform="translate(-458.509 -386.223)" fill="#426a5a"/>
    <path id="Path_987" data-name="Path 987" d="M618.589,542.9s-4.847-9.694-5.886-10.386-5.886-24.581-5.886-24.581,7.617-12.464.693-18c0,0,12.81-18,8.655-17.657s-12.464,13.5-12.464,13.5-1.9-.519-1.212-3.289,3.289-12.637,1.212-12.983-6.232,14.541-6.232,14.541-8.482,15.407-5.886,20.773a66.9,66.9,0,0,0,5.193,8.655l5.886,42.931S614.088,570.251,618.589,542.9Z" transform="translate(-449.29 -347.638)" fill="#9f616a"/>
    <ellipse id="Ellipse_115" data-name="Ellipse 115" cx="3.808" cy="1.731" rx="3.808" ry="1.731" transform="translate(34.968 89.666)" fill="#426a5a"/>
    <path id="Path_988" data-name="Path 988" d="M197.1,413.817H192.25s-10.733-3.462-10.733-11.425,3.116-24.235,12.81-23.889.692,21.812.692,21.812l5.868,2.395.017,7.3Z" transform="translate(-181.517 -288.145)" fill="#9f616a"/>
    <ellipse id="Ellipse_116" data-name="Ellipse 116" cx="19.734" cy="10.04" rx="19.734" ry="10.04" transform="translate(102.653 81.53)" fill="#2f2e41"/>
    <ellipse id="Ellipse_117" data-name="Ellipse 117" cx="1.731" cy="3.808" rx="1.731" ry="3.808" transform="translate(147.315 100.225)" fill="#9f616a"/>
    <ellipse id="Ellipse_118" data-name="Ellipse 118" cx="7.097" cy="11.771" rx="7.097" ry="11.771" transform="translate(147.731 76.465) rotate(-25.902)" fill="#2f2e41"/>
  </g>
</svg>
