<svg xmlns="http://www.w3.org/2000/svg" width="571.663" height="653.891" viewBox="0 0 571.663 653.891">
  <g id="Group_1767" data-name="Group 1767" transform="translate(-97.337 -434)">
    <path id="Path_162" data-name="Path 162"
      d="M974.12,642.717H834.365L840.4,569.46c1.209-14.605,9.776-25.6,19.945-25.6h182.119c0,54.6-30.6,98.86-68.348,98.86Zm218,229.723-4.954-46-3.7-34.232c-9.5-56.528-76.977-78.4-131.311-97.87,37.934-9.185,112.849-60.365,108.475-112.855l-6.773-63.643a65.91,65.91,0,0,0-65.525-58.845H788.5a65.925,65.925,0,0,0-65.531,58.845l-13.39,124.121a38.533,38.533,0,0,1,7.115-3.315,42.61,42.61,0,0,1,26.413-.249c27.448,8.425,37.916,37.542,21.316,61.631a2.709,2.709,0,0,0-.312,1.314,69.26,69.26,0,0,1,12.487,7.153A101.09,101.09,0,0,1,787.3,698.148c18.9-15.826,41.448-23.31,66.123-21.528a82.845,82.845,0,0,1,77.152,77.644c.031.443.056.891.074,1.333h60.44c32.27,0,58.428,33.859,58.428,75.613v22.325H894.307c2.106,27.927-5.2,64.622-15.777,91.882h248.061a65.906,65.906,0,0,0,65.525-72.977Z"
      transform="translate(-523.505 130.727)" fill="#ED931D" fill-opacity="40%" />
    <path id="Path_182" data-name="Path 182"
      d="M858.7,751.864c-6.935-2.33-15.166-7.134-19.31-12.269,6.692-22.961,56.92-52.041,86.162-50.221l.019.025a6.343,6.343,0,0,0,.61,1.738c1.6,5.67,1.552,16.512.393,20.625-28.363,6.418-49.935,18.032-67.874,40.1Zm-25.1-82.336c-6.567-3.34-13.21-3.62-18.818-3.153-5.415,12.275-5.589,20.768-14.892,35.005-7.185,10.992-19.441,23.36-35.479,25.828a37.075,37.075,0,0,1-4.106.336v-.006c-26.918,1.215-49.673-26.419-41.6-54.085,5.995-20.606,23.6-27.266,47.063-27.8,37.354-.854,89.594,13.852,133.853,12.9,4.031-.088,8.02-.268,11.907-.648,1.308,2.362,2.985,5.465,4.71,8.854-5.24,1.022-10.4,2.237-15.6,3.713a155.594,155.594,0,0,0-36.95,16.019c-22.052,12.886-45.667,35.249-54.609,54.21,7.945,16.231,34.42,29.8,60.6,38.781l.006.006h0c22.288,7.639,44.364,11.951,54.651,11.733,1.882-1.913,4.262-6.044,6.8-11.739h-.006c9.128-20.431,20.238-61.02,17.39-91.888a69.168,69.168,0,0,0-4.006-18.581v-.013l-.137-.311a41.947,41.947,0,0,0-1.919-4.269,87.25,87.25,0,0,0-6.449-11.564,73.88,73.88,0,0,0,8.032-3.216C972.6,636.13,986.549,614.6,984.9,589.666a63.379,63.379,0,0,0-.729-6.493c-5.384-31.716-32.482-50.508-57.7-52.315-45.773-3.3-67.463,34.052-73.9,42.67a48.605,48.605,0,0,0-29.666-22.257c-1.763-1.4-3.09-3.508-3.7-6.991-1.433-8.125-1.315-15.266,3.066-21.653,19.5-28.27-30.513-46.956-36.551-15.652-2.393,12.456,5.091,14.655,9.963,23.4,2.729,4.892,2.181,16.319,2.336,21.522-6.879,1.433-13.77,5.564-20.792,12.038-.9-.443-1.689-.885-2.5-1.34-21.328-11.633-16.231-21.223-25.41-29.678-8.031-7.39-26.45-4.455-31.659,8.188-5.3,12.892,3.732,27.385,16.219,29.067,9.864,1.321,7.577-4.069,17.1,2.318,4.05,2.71,10.586,6.854,14.281,10.468-1.745,8.555-2.885,13.384-.25,25.908,1.421.262,3,.5,4.648.686,4.91.554,10.443.567,14.562-1.271,1-4.673-1.408-38.307,32.613-35.335,21.391,1.857,30.17,25.833,40.333,45.985,7.888-7.832,18.736-59.007,56.7-65.805a41.522,41.522,0,0,1,49.15,36.539c1.981,21.465-14.493,44.6-61.406,46.888a177.084,177.084,0,0,1-23.827-.442c-26.432-2.194-50.639-7.671-79.675-10.163-9.129-.785-19.36-2.2-29.946-2.549-19.328-.66-39.791,2.212-56.708,19.116-39.6,39.585-.779,118.526,57.449,105.964l-.006-.006a72.385,72.385,0,0,0,20.182-7.782c26.388-14.8,48.571-56.085,44.52-71.164Zm-71.388,64.927a63.736,63.736,0,0,0,2.343,5.944,62.971,62.971,0,0,1-2.343-5.944Zm157.432,1.639c2.635,8.848-7.241,29.049-9.359,30.039-.386.181-22.562-2.118-28.538-9.073l37.9-20.967Z"
      transform="translate(-598 296.652)" fill="#ED931D" fill-opacity="40%" />
    <path id="Path_195" data-name="Path 195"
      d="M729.193,532.549v96.692c0,7.514,6.038,12.879,12.667,13.938h4.723c6.537-1.078,12.412-6.879,12.337-19.5-.118-21.185-1.259-85.657,1.016-98.461,5.832-32.837,36.526-61.475,70.441-61.475,24.687,0,46.62-.393,66.147,19.279,12.119,12.213,20.469,23.478,23.79,42.2,2.249,12.642,1.159,76.485,1.022,97.521-.075,11.4,2.673,20.438,15.8,20.438a13.634,13.634,0,0,0,13.92-13.938V532.549c0-17.49-9.583-41.741-19.092-54.328-12.194-16.157-21.634-24.556-40.315-34-11.215-5.664-25.391-9.073-40.165-10.219H828.77c-14.78,1.146-28.955,4.555-40.171,10.219-23.26,11.758-37.454,25.97-49.194,49.28-4.586,9.091-10.213,25.5-10.213,39.05Z"
      transform="translate(-420.899 0)" fill="#ED931D" fill-opacity="40%" fill-rule="evenodd" />
  </g>
</svg>