<svg xmlns="http://www.w3.org/2000/svg" width="171.709" height="134.374" viewBox="0 0 171.709 134.374">
  <g id="undraw_my_password_d6kg" transform="translate(0 -43.719)">
    <path id="Path_473" data-name="Path 473" d="M173.659,255.038c0,20.206-12.012,27.261-26.83,27.261S120,275.244,120,255.038s26.83-45.911,26.83-45.911S173.659,234.832,173.659,255.038Z" transform="translate(-120 -145.215)" fill="#426a5a"/>
    <path id="Path_474" data-name="Path 474" d="M95.031,226.7l.275-16.91,11.435-20.92L95.349,207.135l.123-7.6,7.881-15.136L95.505,197.52h0l.222-13.675,8.44-12.05-8.4,9.9.139-25.076-.872,33.2.072-1.369-8.58-13.134,8.443,15.763-.8,15.273-.024-.405L84.248,192.12l9.862,15.254-.1,1.91-.018.029.008.157-2.028,38.749h2.71l.325-20.015,9.838-15.216Z" transform="translate(-69.179 -92.706)" fill="#3f3d56"/>
    <path id="Path_475" data-name="Path 475" d="M833.659,262.038c0,20.206-12.012,27.261-26.83,27.261S780,282.243,780,262.038s26.83-45.911,26.83-45.911S833.659,241.832,833.659,262.038Z" transform="translate(-661.95 -150.963)" fill="#426a5a"/>
    <path id="Path_476" data-name="Path 476" d="M755.031,233.7l.275-16.911,11.436-20.92-11.392,18.268.123-7.6,7.881-15.136-7.849,13.124h0l.222-13.675,8.44-12.05-8.4,9.9.139-25.076-.872,33.2.072-1.369-8.58-13.134,8.443,15.763-.8,15.273-.024-.406-9.892-13.821,9.862,15.254-.1,1.91-.018.029.008.157-2.028,38.749h2.71l.325-20.015,9.837-15.216Z" transform="translate(-611.129 -98.454)" fill="#3f3d56"/>
    <path id="Path_477" data-name="Path 477" d="M498.667,146.424c0,22.092-13.133,29.805-29.334,29.805S440,168.515,440,146.424s29.334-50.2,29.334-50.2S498.667,124.332,498.667,146.424Z" transform="translate(-382.764 -52.509)" fill="#426a5a"/>
    <path id="Path_478" data-name="Path 478" d="M423.9,120.341l.3-18.489,12.5-22.873L424.248,98.951l.135-8.313L433,74.09l-8.581,14.348h0l.243-14.952,9.227-13.175L424.7,71.135l.152-27.416L423.9,80.013l.078-1.5L414.6,64.156l9.231,17.234-.874,16.7-.026-.443L412.111,82.534l10.782,16.677-.109,2.088-.02.031.009.171-2.218,42.366h2.963l.355-21.883,10.756-16.636Z" transform="translate(-338.399 0)" fill="#3f3d56"/>
    <path id="Path_479" data-name="Path 479" d="M314.8,667.873c0,4.742-31.071,19.5-69.4,19.5s-69.4-14.755-69.4-19.5,28.567-15.382,66.9-15.382S314.8,663.132,314.8,667.873Z" transform="translate(-165.984 -509.277)" fill="#3f3d56"/>
    <path id="Path_480" data-name="Path 480" d="M314.8,667.873c0,4.742-31.071,19.5-69.4,19.5s-69.4-14.755-69.4-19.5,28.567-15.382,66.9-15.382S314.8,663.132,314.8,667.873Z" transform="translate(-165.984 -509.277)" opacity="0.1"/>
    <path id="Path_481" data-name="Path 481" d="M314.8,667.873c0,4.742-31.071,8.585-69.4,8.585s-69.4-3.844-69.4-8.585,28.567-15.382,66.9-15.382S314.8,663.132,314.8,667.873Z" transform="translate(-165.984 -509.277)" fill="#8d8c9a"/>
    <path id="Path_482" data-name="Path 482" d="M694.429,605.571c0,6.8,4.267,12.306,9.541,12.306" transform="translate(-591.684 -470.749)" fill="#3f3d56"/>
    <path id="Path_483" data-name="Path 483" d="M747.769,617.243c0-6.878,4.762-12.444,10.647-12.444" transform="translate(-635.484 -470.115)" fill="#426a5a"/>
    <path id="Path_484" data-name="Path 484" d="M713.755,609.018c0,6.461,2.721,11.69,6.084,11.69" transform="translate(-607.554 -473.58)" fill="#426a5a"/>
    <path id="Path_485" data-name="Path 485" d="M747.769,601.373c0-8.789,5.5-15.9,12.306-15.9" transform="translate(-635.484 -454.245)" fill="#3f3d56"/>
    <path id="Path_486" data-name="Path 486" d="M736.548,671.5a4.959,4.959,0,0,0,1.761-.332c.408-.29,2.081-.637,2.182-.171s2.033,2.316.506,2.328a12.94,12.94,0,0,1-3.956-.486C736.634,672.593,736.548,671.5,736.548,671.5Z" transform="translate(-626.27 -524.287)" fill="#a8a8a8"/>
    <path id="Path_487" data-name="Path 487" d="M741.024,676.513a12.936,12.936,0,0,1-3.956-.486c-.31-.189-.433-.866-.475-1.179l-.045,0s.086,1.091.493,1.339a12.937,12.937,0,0,0,3.956.486c.441,0,.593-.16.585-.393C741.52,676.423,741.352,676.51,741.024,676.513Z" transform="translate(-626.269 -527.635)" opacity="0.2"/>
    <ellipse id="Ellipse_104" data-name="Ellipse 104" cx="23.61" cy="3.756" rx="23.61" ry="3.756" transform="translate(56.7 153.946)" opacity="0.1"/>
    <rect id="Rectangle_248" data-name="Rectangle 248" width="2.325" height="5.366" transform="translate(88.359 149.295)" fill="#ffb9b9"/>
    <rect id="Rectangle_249" data-name="Rectangle 249" width="8.943" height="16.098" transform="translate(81.92 76.855)" fill="#ff6584"/>
    <path id="Path_488" data-name="Path 488" d="M503.984,399.312l.309,2.476-8.151,2.476-1.032-4.54Z" transform="translate(-406.554 -291.991)" fill="#ffb9b9"/>
    <path id="Path_489" data-name="Path 489" d="M583.966,315.11s-.206,1.857-.619,1.857a8.692,8.692,0,0,0-1.857.722l-.413,1.96,2.889,1.754,4.746-.516,1.341-2.064-1.341-1.341s-1.135-2.476-.722-2.992S583.966,315.11,583.966,315.11Z" transform="translate(-498.607 -231.622)" fill="#ffb9b9"/>
    <path id="Path_490" data-name="Path 490" d="M583.966,315.11s-.206,1.857-.619,1.857a8.692,8.692,0,0,0-1.857.722l-.413,1.96,2.889,1.754,4.746-.516,1.341-2.064-1.341-1.341s-1.135-2.476-.722-2.992S583.966,315.11,583.966,315.11Z" transform="translate(-498.607 -231.622)" opacity="0.1"/>
    <path id="Path_491" data-name="Path 491" d="M514.937,677.948s-.929,6.191-2.064,6.6,4.333,1.135,4.333,1.135l.413-2.27s.1-4.127.516-4.746S514.937,677.948,514.937,677.948Z" transform="translate(-442.475 -530.181)" fill="#ffb9b9"/>
    <path id="Path_492" data-name="Path 492" d="M532.934,461.758s14.961-2.683,15.064-3.2,3.1,3.921,1.238,12.588-6.5,29.1-6.5,29.1-4.746,1.444-4.643.31,1.651-20.842,1.651-20.842l-1.032-8.357-1.754,1.032-7.326,14.445-3.714,12.485s-4.746.825-4.024-.929,3.1-15.374,3.1-15.374l6.5-19.191S531.283,461.758,532.934,461.758Z" transform="translate(-449.949 -349.999)" fill="#2f2e41"/>
    <circle id="Ellipse_105" data-name="Ellipse 105" cx="4.333" cy="4.333" r="4.333" transform="translate(82.418 76.213)" fill="#ffb9b9"/>
    <path id="Path_493" data-name="Path 493" d="M589.856,332.413s-2.064,1.96-6.913,1.444,1.341,11.04,1.341,11.04l1.96,11.659s8.667-1.032,8.977-2.992S589.856,332.413,589.856,332.413Z" transform="translate(-498.616 -246.449)" fill="#f2f2f2"/>
    <path id="Path_494" data-name="Path 494" d="M564.09,333.658a7.468,7.468,0,0,1-3.4-4.643c-.929-3.4-1.754-6.913-2.27-6.81a26.8,26.8,0,0,0-5.785,2.687c-.241.192-.39.367-.406.511-.1.929,3.714,10.215,3.714,10.215s2.992,6.707,1.754,8.873-1.341,4.953.929,4.746,9.8-.619,8.77-6.4c0,0,1.96,4.024,7.429,1.135,0,0,3.3-.516,3.2-1.651s-5.262-10.937-5.262-10.937-.826-4.333.722-5.984l-3.508-4.127s-.825-1.238-1.651-.619a21.307,21.307,0,0,1-2.992,1.754c-.31.1-.513-.371-.513-.371a8.971,8.971,0,0,0-.828,4.808A52.535,52.535,0,0,1,564.09,333.658Z" transform="translate(-474.913 -236.654)" fill="#2f2e41"/>
    <path id="Path_495" data-name="Path 495" d="M485.236,697.524s-.23-.722-1.56,0c0,0,.425-2.27-1.02-2.27s-1.961,2.683-1.961,2.683-.413,1.754-3.2,2.476-.619,3.2,1.341,3.2a11.243,11.243,0,0,0,4.54-1.548s5.365.1,5.468-.929-.516-4.127-.929-4.127-1.238,1.445-1.238,1.445Z" transform="translate(-412.465 -544.392)" fill="#2f2e41"/>
    <path id="Path_496" data-name="Path 496" d="M609.368,695.679s-1.445-1.548-2.27,1.032-1.444,3.611-.929,4.024.929.206.722,1.032a2.412,2.412,0,0,0,2.476,2.579,2.034,2.034,0,0,0,2.27-2.27,5.5,5.5,0,0,0-.929-2.064l-.825-2.889Z" transform="translate(-519.056 -544.362)" fill="#2f2e41"/>
    <path id="Path_497" data-name="Path 497" d="M630.077,292.033l-5.468,1.857s-4.953,2.889-2.786,3.508,4.024-1.857,4.024-1.857l4.746-1.238Z" transform="translate(-531.615 -213.292)" fill="#ffb9b9"/>
    <path id="Path_498" data-name="Path 498" d="M570.834,260.305a8,8,0,0,0-1.657,1.669c-1,1.249-1.977,2.741-1.731,4.321.093.6.36,1.159.51,1.747a9.2,9.2,0,0,1,.175,2.445,3.3,3.3,0,0,1-.128,1.031,6.783,6.783,0,0,1-.508.94,6.444,6.444,0,0,0-.51,3.076,2.623,2.623,0,0,0,.141,1.043,4.15,4.15,0,0,0,.6.836,3.607,3.607,0,0,1,.556,3.268,1.416,1.416,0,0,0,1.286-.811,1.793,1.793,0,0,1-.458,1.458,4.077,4.077,0,0,0,2.878-2.1,4.444,4.444,0,0,0,.212-1.212c.229-2.9.36-5.9-.678-8.612a11.39,11.39,0,0,1-.9-2.63,2.263,2.263,0,0,1,1.077-2.37.977.977,0,0,0,.3.622c.189.14.538.052.541-.183l.409.57a1,1,0,0,0,.389-.339l.281.344.6-.434.518.559a1.1,1.1,0,0,0,.455-.5c.111.167.249.35.449.368.435.039.524-.65.9-.866a.641.641,0,0,1,.8.242,1.306,1.306,0,0,1,.161.884c-.157,1.419-1.368,2.713-1.009,4.095.2.777.882,1.4.933,2.2.041.64-.335,1.246-.33,1.887a3.127,3.127,0,0,0,1.033,1.945q1.354,1.482,2.849,2.825l-.308-.539a1,1,0,0,1,.784.289,1.356,1.356,0,0,0-.2-.923,14.8,14.8,0,0,1-1.6-5.523c-.139-2.678.824-5.4.214-8.01a6.915,6.915,0,0,0-2.33-3.725,2.779,2.779,0,0,0-1.723-.794,13.007,13.007,0,0,0-2.455.019,5.619,5.619,0,0,0-2.528.881Z" transform="translate(-487.03 -186.46)" fill="#ff6584"/>
    <path id="Path_499" data-name="Path 499" d="M646.838,286.331a8.343,8.343,0,0,0,1.651,0,4.3,4.3,0,0,0,1.238-.619l3.921-2.889-3.4.516s.619-4.746.413-4.849,10.008-2.064,9.8,1.135-5.984,9.492-9.286,10.731l-2.167.31Z" transform="translate(-552.606 -201.605)" fill="#2f2e41"/>
    <rect id="Rectangle_250" data-name="Rectangle 250" width="48.651" height="11.447" transform="translate(56.7 121.305)" fill="#fff"/>
    <rect id="Rectangle_251" data-name="Rectangle 251" width="36.131" height="6.081" transform="translate(62.871 123.898)" fill="#3f3d56"/>
    <path id="Path_500" data-name="Path 500" d="M496.365,550.692c-.015-.156-.7-.225-1.651-.186.548-.772.866-1.388.743-1.486s-.59.3-1.168.947c-.054-.863-.181-1.467-.329-1.467s-.3.719-.342,1.708c-.8-.578-1.453-.917-1.553-.791s.339.631,1.029,1.241c-.911.135-1.553.326-1.539.479s.7.225,1.651.186c-.548.772-.866,1.388-.743,1.485s.59-.3,1.168-.947c.055.863.181,1.467.329,1.467s.3-.719.342-1.708c.8.578,1.453.917,1.553.791s-.339-.631-1.029-1.241C495.737,551.036,496.38,550.845,496.365,550.692Z" transform="translate(-425.098 -423.886)" fill="#fff"/>
    <path id="Path_501" data-name="Path 501" d="M530.365,550.692c-.014-.156-.7-.225-1.651-.186.548-.772.866-1.388.743-1.486s-.59.3-1.168.947c-.055-.863-.181-1.467-.329-1.467s-.3.719-.342,1.708c-.8-.578-1.453-.917-1.553-.791s.339.631,1.03,1.241c-.911.135-1.553.326-1.539.479s.7.225,1.651.186c-.548.772-.866,1.388-.743,1.485s.59-.3,1.168-.947c.055.863.181,1.467.329,1.467s.3-.719.342-1.708c.8.578,1.453.917,1.552.791s-.339-.631-1.03-1.241C529.737,551.036,530.38,550.845,530.365,550.692Z" transform="translate(-453.017 -423.886)" fill="#fff"/>
    <path id="Path_502" data-name="Path 502" d="M564.365,550.692c-.014-.156-.7-.225-1.651-.186.548-.772.866-1.388.743-1.486s-.59.3-1.168.947c-.054-.863-.181-1.467-.329-1.467s-.3.719-.342,1.708c-.8-.578-1.453-.917-1.553-.791s.339.631,1.03,1.241c-.911.135-1.553.326-1.539.479s.7.225,1.651.186c-.548.772-.866,1.388-.743,1.485s.59-.3,1.168-.947c.055.863.181,1.467.329,1.467s.3-.719.342-1.708c.8.578,1.453.917,1.553.791s-.339-.631-1.03-1.241C563.737,551.036,564.379,550.845,564.365,550.692Z" transform="translate(-480.936 -423.886)" fill="#fff"/>
    <path id="Path_503" data-name="Path 503" d="M598.365,550.692c-.015-.156-.7-.225-1.651-.186.548-.772.866-1.388.743-1.486s-.59.3-1.168.947c-.054-.863-.181-1.467-.329-1.467s-.3.719-.342,1.708c-.8-.578-1.453-.917-1.552-.791s.339.631,1.029,1.241c-.911.135-1.553.326-1.539.479s.7.225,1.651.186c-.548.772-.866,1.388-.743,1.485s.59-.3,1.168-.947c.054.863.181,1.467.329,1.467s.3-.719.342-1.708c.8.578,1.453.917,1.552.791s-.339-.631-1.03-1.241C597.737,551.036,598.38,550.845,598.365,550.692Z" transform="translate(-508.854 -423.886)" fill="#fff"/>
    <path id="Path_504" data-name="Path 504" d="M632.365,550.692c-.014-.156-.7-.225-1.651-.186.548-.772.866-1.388.743-1.486s-.59.3-1.168.947c-.054-.863-.181-1.467-.329-1.467s-.3.719-.342,1.708c-.8-.578-1.453-.917-1.553-.791s.339.631,1.03,1.241c-.911.135-1.553.326-1.539.479s.7.225,1.651.186c-.548.772-.866,1.388-.743,1.485s.59-.3,1.168-.947c.055.863.181,1.467.329,1.467s.3-.719.342-1.708c.8.578,1.453.917,1.553.791s-.339-.631-1.03-1.241C631.738,551.036,632.38,550.845,632.365,550.692Z" transform="translate(-536.773 -423.886)" fill="#fff"/>
    <path id="Path_505" data-name="Path 505" d="M548.568,499.743s-.516,6.81,1.96,7.119.206-7.738.206-7.738Z" transform="translate(-471.876 -383.342)" fill="#ffb9b9"/>
    <path id="Path_506" data-name="Path 506" d="M545.162,346.835l-.722.206s-2.992,23.937-1.032,28.58c0,0,2.064-1.135,3.1-.929l1.651-19.5Z" transform="translate(-467.129 -258.292)" fill="#2f2e41"/>
  </g>
</svg>
