<svg id="Layer_1" data-name="Layer 1" xmlns="http://www.w3.org/2000/svg" viewBox="0 0 1080 1080"><defs><style>.cls-1{fill:#fbb812;}.cls-2{fill:#ffe4ae;}.cls-3{fill:#dca224;}.cls-4{fill:#d6d6d6;}.cls-5{fill:#fff;}.cls-6{fill:#b2b2b2;}</style></defs><circle cx="538.77" cy="318.35" r="74.96"/><path class="cls-1" d="M667.5,624.54q-.53,9.42-1.57,18.83a362.44,362.44,0,0,1-8.06,45.51q-2.16,9-4.85,18a370.58,370.58,0,0,1-22.93,58.48c-2.77,5.69-5.72,11.28-8.84,16.83q-6.12,11-13,21.67a397.25,397.25,0,0,1-44.68,56.92q-11.58,12.35-24.47,24l-.79.72-.8-.72A401.16,401.16,0,0,1,455.2,781.9c-3.11-5.55-6-11.16-8.82-16.82a368.78,368.78,0,0,1-22.49-57.19c-1.8-6-3.44-12-4.91-18a359.77,359.77,0,0,1-8.16-45.57c-.74-6.29-1.28-12.57-1.66-18.86a361.84,361.84,0,0,1,.61-52.68q.83-10,2.25-19.95c11.13-79.31,48.68-156.19,112.61-219q6.27-6.16,12.88-12.14l.8-.73.79.73a406.63,406.63,0,0,1,68.43,79.82,371.58,371.58,0,0,1,56.93,150.37c1,6.6,1.72,13.23,2.3,19.89A360.27,360.27,0,0,1,667.5,624.54Z"/><path class="cls-2" d="M667.5,624.54q-.53,9.42-1.57,18.83a362.44,362.44,0,0,1-8.06,45.51q-2.16,9-4.85,18a370.58,370.58,0,0,1-22.93,58.48c-2.77,5.69-5.72,11.28-8.84,16.83q-6.12,11-13,21.67c-35-74.7-62.28-204.11-.72-402.36a371.58,371.58,0,0,1,56.93,150.37c1,6.6,1.72,13.23,2.3,19.89A360.27,360.27,0,0,1,667.5,624.54Z"/><path class="cls-3" d="M563.58,860.78q-11.58,12.35-24.48,24l-.79.72-.8-.72A401.21,401.21,0,0,1,455.2,781.9q-4.67-8.34-8.83-16.83a371.64,371.64,0,0,1-22.48-57.18c-1.79-6-3.45-12-4.9-18a359.52,359.52,0,0,1-8.18-45.57q-1.08-9.42-1.66-18.86a364.58,364.58,0,0,1,.62-52.67q.81-10,2.25-19.95c11.12-79.31,48.68-156.19,112.62-219C328.05,627.49,561,858.24,563.58,860.78Z"/><path d="M538.31,898.6l-8-7.25a410.44,410.44,0,0,1-84.22-105.3c-3.06-5.47-6.1-11.27-9-17.22a381.06,381.06,0,0,1-23-58.52c-2-6.54-3.61-12.59-5-18.48a369.64,369.64,0,0,1-8.35-46.58c-.73-6.26-1.3-12.76-1.7-19.3a372.72,372.72,0,0,1,.63-53.88c.55-6.78,1.33-13.66,2.3-20.44,11.8-84.12,51.65-161.61,115.24-224.07,4.25-4.17,8.68-8.35,13.17-12.4l8-7.25,8,7.25C617.4,379.4,661.75,460.85,674.6,550.69c1,6.86,1.78,13.71,2.34,20.37a366.7,366.7,0,0,1,.77,54h0c-.38,6.53-.92,13-1.63,19.27a372.56,372.56,0,0,1-8.22,46.58c-1.5,6.23-3.18,12.44-5,18.44a381.41,381.41,0,0,1-23.46,59.83c-2.76,5.65-5.81,11.45-9,17.23a404.33,404.33,0,0,1-59,80.4c-7.85,8.37-16.27,16.64-25,24.57Zm0-564.45c-2.08,2-4.14,3.94-6.15,5.92-60.7,59.62-98.74,133.59-110,213.91-.93,6.47-1.66,13-2.19,19.47a356.76,356.76,0,0,0-.6,51.48c.38,6.24.92,12.43,1.61,18.41a353.3,353.3,0,0,0,8,44.52c1.35,5.63,2.92,11.37,4.79,17.61a363.88,363.88,0,0,0,22,55.85c2.79,5.67,5.69,11.19,8.61,16.42a390.3,390.3,0,0,0,74,94.6c6.06-5.72,11.92-11.6,17.49-17.53A386.19,386.19,0,0,0,612.13,778c3.09-5.51,6-11,8.61-16.39a363.24,363.24,0,0,0,22.41-57.16c1.72-5.72,3.31-11.62,4.75-17.57a356.25,356.25,0,0,0,7.85-44.49c.67-6,1.19-12.14,1.55-18.37v0a351.85,351.85,0,0,0-.73-51.54c-.54-6.35-1.29-12.88-2.24-19.43C642.46,470,602.4,394.53,538.31,334.15Z"/><path d="M664.46,551.88a496.36,496.36,0,0,0-252.44.94q-1.44,9.95-2.25,19.95a473.81,473.81,0,0,1,257-1Q665.91,561.8,664.46,551.88Z"/><path d="M537.74,751.55a312.72,312.72,0,0,0-91.37,13.52q4.19,8.5,8.83,16.83a292.64,292.64,0,0,1,166.05.29q4.66-8.31,8.84-16.81A312.17,312.17,0,0,0,537.74,751.55Z"/><path d="M540,671.5a401.1,401.1,0,0,0-121,18.37c1.45,6,3.11,12,4.9,18a385.52,385.52,0,0,1,229.13-1c1.79-6,3.41-12,4.86-18A402.3,402.3,0,0,0,540,671.5Z"/><path d="M540,607.87a487.5,487.5,0,0,0-130.86,17.57q.59,9.45,1.66,18.86a474,474,0,0,1,255.11-.94q1.05-9.39,1.59-18.82A486.81,486.81,0,0,0,540,607.87Z"/><path d="M574.34,264.75h0a8.31,8.31,0,0,1-6.73-10.19c4.45-18,17.62-58.16,48.77-72.41a8.3,8.3,0,0,1,11.43,5.53h0a8.3,8.3,0,0,1-4.57,9.65c-24.51,11.24-35.62,45.87-39.44,61.25A8.32,8.32,0,0,1,574.34,264.75Z"/><path d="M508.18,264.75h0a8.31,8.31,0,0,0,6.72-10.19c-4.44-18-17.61-58.16-48.77-72.41a8.31,8.31,0,0,0-11.43,5.53h0a8.32,8.32,0,0,0,4.57,9.65c24.51,11.24,35.63,45.87,39.45,61.25A8.31,8.31,0,0,0,508.18,264.75Z"/><path class="cls-4" d="M756.31,654.57,751,679.22a283.47,283.47,0,0,1-28.06-7.58C593.91,629.46,514.56,498.58,543,366.47l5.3-24.65q12.56,2.7,24.56,6.48a272.31,272.31,0,0,1,99.81,56.27,268.68,268.68,0,0,1,45.56,52.31,262.63,262.63,0,0,1,37.23,86A255.09,255.09,0,0,1,756.31,654.57Z"/><path class="cls-5" d="M665.72,644C600.64,605.38,566,546.18,540.91,463.07l-5.84-19.14c5.2-1.36-3.21-.6,2-1.34,3.15-.45-1.09,12.47,2.07,12.23C605,476.77,663.54,536.07,665.72,644Z"/><path class="cls-6" d="M756.55,652.87l-5.31,24.65a280.75,280.75,0,0,1-28.06-7.58C780.35,503.62,642.83,391.19,573.1,346.6a272.31,272.31,0,0,1,99.81,56.27,268.68,268.68,0,0,1,45.56,52.31,262.63,262.63,0,0,1,37.23,86A255.09,255.09,0,0,1,756.55,652.87Z"/><path d="M660.4,512.76l-13.56,7.8L550.27,362.27l-12-19.71,2.22-10.31,7.77,1.68c1.17.25,2.34.5,3.52.77l11.58,19Z"/><path d="M764.45,551.74l-4.84,2a88.54,88.54,0,0,1-10.24,3.54,91.66,91.66,0,0,1-44.22,1.29c-16.19-3.49-27.48-7.86-36.32-13.83-14.29-9.59-22.21-23.27-34.16-43.87-2.68-4.62-5.72-9.86-9-15.43l13.5-7.6.13-.08c3.4,5.67,6.45,11,9.17,15.63,18.43,31.81,24.63,42.51,60,50.12a75.43,75.43,0,0,0,37.74-1.44c.35-.08.69-.2,1-.3a252.75,252.75,0,0,0-26.58-64.21q-3.78-6.51-8-12.82l.19-.12,13-8.17q6,9,11.23,18.44a268.6,268.6,0,0,1,25.26,66.87C763.11,545.08,763.82,548.42,764.45,551.74Z"/><path d="M626.16,626.91l-4.82-4.37c-28.25-25.61-46.71-48.27-59.84-73.49l14.08-6.86c11.64,22.35,27.23,41.93,51.56,64.61,9.35-7.42,16.44-15.62,20.65-28.26,11.76-35.3,3.82-48.75-17.4-84.71q-2.94-5-6.18-10.52l13.72-7.51c2.14,3.68,4.19,7.15,6.14,10.45,21.76,36.88,32.69,55.39,18.76,97.2-6.63,19.91-19.6,31.24-31.42,39.71Z"/><path d="M764.45,551.74c-.63-3.32-1.34-6.66-2.12-10a268.6,268.6,0,0,0-25.26-66.87q-6-11.28-13.22-22.05A280.43,280.43,0,0,0,573.62,340.62c-7.16-2.25-14.51-4.23-21.86-5.92-1.18-.27-2.35-.52-3.52-.77l-7.77-1.68-7,32.31c-14.14,65.73-2.8,134.1,32,192.55A280.18,280.18,0,0,0,719.5,680a292.7,292.7,0,0,0,29,7.83l7.77,1.67,7-32.31A262.43,262.43,0,0,0,764.45,551.74ZM744,670.88c-6.62-1.63-13.18-3.5-19.62-5.6A267.07,267.07,0,0,1,638,618.14,259.84,259.84,0,0,1,575,542.5a250.77,250.77,0,0,1-25.9-174.59l3.68-17.08c3.55.88,7.11,1.82,10.61,2.84,1.88.54,3.74,1.12,5.59,1.69a264.41,264.41,0,0,1,141.63,105.8c.76,1.15,1.52,2.31,2.24,3.46q4.11,6.38,7.79,12.94a251.43,251.43,0,0,1,25.54,64.51q.39,1.47.72,2.94c.94,4.09,1.78,8.17,2.52,12.27a247.43,247.43,0,0,1-1.69,96.52Z"/><path class="cls-4" d="M1008.54,518.36A235.25,235.25,0,0,1,981,533.18a243.33,243.33,0,0,1-74.46,20.38c-118.86,13.2-252.23-55.95-332.65-184.25l-18.23-29.12a233.63,233.63,0,0,1,23.93-13.12q7.33-3.49,14.84-6.46c34.54-13.68,71.67-19,109.37-16.67a306.44,306.44,0,0,1,80.64,16.3c36.37,12.48,71.93,31.71,104.82,57,38.24,29.41,72.87,67.07,101,112Z"/><path class="cls-5" d="M789.56,541.38C703.14,522.74,642,469.4,586,397l-13-16.66c5.43-2.76-3.83.33,1.85-1.85,3.41-1.32,2.9,12.22,6.4,11.1C663.05,392.11,751.26,438.83,789.56,541.38Z"/><path class="cls-6" d="M986.17,484.56l18.25,29.12A237.7,237.7,0,0,1,976.9,528.5C869.53,314.9,667,311.56,575.49,322.38c38.65-18.43,81-25.79,124.21-23.13a306.3,306.3,0,0,1,80.64,16.31c36.37,12.48,71.94,31.71,104.83,57C923.4,402,958,439.65,986.17,484.56Z"/><path d="M767.35,411.82l18.93,27.07L572.74,356.48l-26.58-10.26L538.53,334l7.23-4.53c1.09-.68,2.18-1.37,3.29-2l25.6,9.87Z"/><path d="M901.07,376.18l-1.77,5.9a95.1,95.1,0,0,1-4.37,11.77,82.3,82.3,0,0,1-31.46,36.7c-15.08,9.45-27.34,14.07-39.22,15.13-19.16,1.77-37.3-5.69-64.64-16.92-6.13-2.52-13.09-5.37-20.55-8.32L742.19,402l0-.18c7.61,3,14.62,5.9,20.82,8.43,42.18,17.34,56.38,23.17,89.29,2.55a67.92,67.92,0,0,0,26.55-31.67c.17-.36.33-.75.49-1.13A359.45,359.45,0,0,0,802,336.44q-8.64-3.54-17.41-6.54l0-.27L786.92,311q12.55,4.31,24.86,9.61a389.18,389.18,0,0,1,78.76,47.25C894.09,370.53,897.61,373.34,901.07,376.18Z"/><path d="M866.66,562.76l-7.49-.55C815.31,559,781.32,550.9,749,536l-3.82-20.5c28.68,13.24,65.82,22.81,104.16,26.22.22-15-1.92-28.93-10.18-45.06-23.07-45-41-52.25-89-71.55-4.43-1.78-9.09-3.65-14-5.66l3.37-18.56c4.88,2,9.51,3.85,13.91,5.62,49.22,19.79,73.92,29.73,101.24,83.07,13,25.39,13.63,47.22,12.52,65.22Z"/><path d="M901.07,376.18c-3.46-2.84-7-5.65-10.53-8.37a389.18,389.18,0,0,0-78.76-47.25Q797.17,314,782.2,308.89A316.77,316.77,0,0,0,698.87,292c-46-2.84-89.18,5.21-128.38,23.91-7.3,3.47-14.5,7.35-21.44,11.53-1.11.67-2.2,1.36-3.29,2L538.53,334l23.91,38.17c48.66,77.65,118.5,137.56,196.69,168.7,77.63,30.92,157.2,31.16,224,.64a246.65,246.65,0,0,0,28.42-15.3l7.24-4.54-23.92-38.17A442.24,442.24,0,0,0,901.07,376.18Zm92,136.6c-6.36,3.66-12.88,7-19.51,10.06-33.46,15.26-69.46,22.21-106.08,21.57-38.21-.64-77.09-9.54-114.53-25.83-67.71-29.39-130.63-82.91-176.08-155.44L564.27,343c3.41-1.95,6.88-3.84,10.38-5.62,1.88-1,3.76-1.87,5.65-2.77,37-17.62,77.65-25.21,121-22.53a298.78,298.78,0,0,1,78.57,15.89c1.59.55,3.2,1.11,4.77,1.7q8.76,3.14,17.37,6.81a360.61,360.61,0,0,1,76.85,44.65c1.07.79,2.13,1.59,3.17,2.39,4.36,3.38,8.66,6.82,12.89,10.37a417.28,417.28,0,0,1,85.53,98.75Z"/><path class="cls-4" d="M323.69,654.57,329,679.22a283.47,283.47,0,0,0,28.06-7.58c129-42.18,208.38-173.06,179.94-305.17l-5.3-24.65q-12.56,2.7-24.56,6.48a272.31,272.31,0,0,0-99.81,56.27,268.68,268.68,0,0,0-45.56,52.31,262.63,262.63,0,0,0-37.23,86A255.09,255.09,0,0,0,323.69,654.57Z"/><path class="cls-5" d="M414.28,644c65.08-38.61,99.68-97.81,124.81-180.92l5.84-19.14c-5.2-1.36,3.21-.6-2-1.34-3.15-.45,1.09,12.47-2.07,12.23C475,476.77,416.46,536.07,414.28,644Z"/><path class="cls-6" d="M323.45,652.87l5.31,24.65a280.75,280.75,0,0,0,28.06-7.58C299.65,503.62,437.17,391.19,506.9,346.6a272.31,272.31,0,0,0-99.81,56.27,268.68,268.68,0,0,0-45.56,52.31,262.63,262.63,0,0,0-37.23,86A255.09,255.09,0,0,0,323.45,652.87Z"/><path d="M419.6,512.76l13.56,7.8,96.57-158.29,12-19.71-2.22-10.31-7.77,1.68c-1.17.25-2.34.5-3.52.77l-11.58,19Z"/><path d="M315.55,551.74l4.84,2a88.54,88.54,0,0,0,10.24,3.54,91.66,91.66,0,0,0,44.22,1.29c16.19-3.49,27.48-7.86,36.32-13.83,14.29-9.59,22.21-23.27,34.16-43.87,2.68-4.62,5.72-9.86,9.05-15.43l-13.5-7.6-.13-.08c-3.4,5.67-6.45,11-9.17,15.63-18.43,31.81-24.63,42.51-60,50.12a75.43,75.43,0,0,1-37.74-1.44c-.35-.08-.69-.2-1-.3a252.75,252.75,0,0,1,26.58-64.21q3.78-6.51,8-12.82l-.19-.12-13-8.17q-6,9-11.23,18.44a268.6,268.6,0,0,0-25.26,66.87C316.89,545.08,316.18,548.42,315.55,551.74Z"/><path d="M453.84,626.91l4.82-4.37c28.25-25.61,46.71-48.27,59.84-73.49l-14.08-6.86c-11.64,22.35-27.23,41.93-51.56,64.61-9.35-7.42-16.44-15.62-20.65-28.26-11.76-35.3-3.82-48.75,17.4-84.71q2.94-5,6.18-10.52l-13.72-7.51c-2.14,3.68-4.19,7.15-6.14,10.45-21.76,36.88-32.69,55.39-18.76,97.2,6.63,19.91,19.6,31.24,31.42,39.71Z"/><path d="M315.55,551.74c.63-3.32,1.34-6.66,2.12-10a268.6,268.6,0,0,1,25.26-66.87q6-11.28,13.22-22.05A280.43,280.43,0,0,1,506.38,340.62c7.16-2.25,14.51-4.23,21.86-5.92,1.18-.27,2.35-.52,3.52-.77l7.77-1.68,7,32.31c14.14,65.73,2.8,134.1-32,192.55A280.18,280.18,0,0,1,360.5,680a292.7,292.7,0,0,1-29,7.83l-7.77,1.67-6.95-32.31A262.43,262.43,0,0,1,315.55,551.74ZM336,670.88c6.62-1.63,13.18-3.5,19.62-5.6A267.07,267.07,0,0,0,442,618.14a259.84,259.84,0,0,0,63.08-75.64A250.77,250.77,0,0,0,531,367.91l-3.68-17.08c-3.55.88-7.11,1.82-10.61,2.84-1.88.54-3.74,1.12-5.59,1.69a264.41,264.41,0,0,0-141.63,105.8c-.76,1.15-1.52,2.31-2.24,3.46q-4.11,6.38-7.79,12.94a251.43,251.43,0,0,0-25.54,64.51q-.39,1.47-.72,2.94c-.94,4.09-1.78,8.17-2.52,12.27a247.43,247.43,0,0,0,1.69,96.52Z"/><path class="cls-4" d="M71.46,518.36A235.25,235.25,0,0,0,99,533.18a243.33,243.33,0,0,0,74.46,20.38c118.86,13.2,252.23-55.95,332.65-184.25l18.23-29.12a233.63,233.63,0,0,0-23.93-13.12q-7.33-3.49-14.84-6.46c-34.54-13.68-71.67-19-109.37-16.67a306.44,306.44,0,0,0-80.64,16.3c-36.37,12.48-71.93,31.71-104.82,57-38.24,29.41-72.87,67.07-101,112Z"/><path class="cls-5" d="M290.44,541.38C376.86,522.74,438,469.4,494,397l13-16.66c-5.43-2.76,3.83.33-1.85-1.85-3.41-1.32-2.9,12.22-6.4,11.1C417,392.11,328.74,438.83,290.44,541.38Z"/><path class="cls-6" d="M93.83,484.56,75.58,513.68A237.7,237.7,0,0,0,103.1,528.5C210.47,314.9,413,311.56,504.51,322.38,465.86,304,423.46,296.59,380.3,299.25a306.3,306.3,0,0,0-80.64,16.31c-36.37,12.48-71.94,31.71-104.83,57C156.6,402,122,439.65,93.83,484.56Z"/><path d="M312.65,411.82l-18.93,27.07,213.54-82.41,26.58-10.26L541.47,334l-7.23-4.53c-1.09-.68-2.18-1.37-3.29-2l-25.6,9.87Z"/><path d="M178.93,376.18l1.77,5.9a95.1,95.1,0,0,0,4.37,11.77,82.3,82.3,0,0,0,31.46,36.7c15.08,9.45,27.34,14.07,39.22,15.13,19.16,1.77,37.3-5.69,64.64-16.92,6.13-2.52,13.09-5.37,20.55-8.32L337.81,402l0-.18c-7.61,3-14.62,5.9-20.82,8.43-42.18,17.34-56.38,23.17-89.29,2.55a67.92,67.92,0,0,1-26.55-31.67c-.17-.36-.33-.75-.49-1.13A359.45,359.45,0,0,1,278,336.44q8.64-3.54,17.41-6.54l0-.27L293.08,311q-12.56,4.31-24.86,9.61a389.18,389.18,0,0,0-78.76,47.25C185.91,370.53,182.39,373.34,178.93,376.18Z"/><path d="M213.34,562.76l7.49-.55C264.69,559,298.68,550.9,331,536l3.82-20.5C306.18,528.71,269,538.28,230.7,541.69c-.22-15,1.92-28.93,10.18-45.06,23.07-45,41-52.25,89-71.55,4.43-1.78,9.09-3.65,14-5.66l-3.37-18.56c-4.88,2-9.51,3.85-13.91,5.62-49.22,19.79-73.92,29.73-101.24,83.07-13,25.39-13.63,47.22-12.52,65.22Z"/><path d="M178.93,376.18c3.46-2.84,7-5.65,10.53-8.37a389.18,389.18,0,0,1,78.76-47.25q14.61-6.54,29.58-11.67A316.77,316.77,0,0,1,381.13,292c46-2.84,89.18,5.21,128.38,23.91,7.3,3.47,14.5,7.35,21.44,11.53,1.11.67,2.2,1.36,3.29,2l7.23,4.53-23.91,38.17c-48.66,77.65-118.5,137.56-196.69,168.7-77.63,30.92-157.2,31.16-224,.64a246.65,246.65,0,0,1-28.42-15.3l-7.24-4.54,23.92-38.17A442.24,442.24,0,0,1,178.93,376.18Zm-92,136.6c6.36,3.66,12.88,7,19.51,10.06,33.46,15.26,69.46,22.21,106.08,21.57,38.21-.64,77.09-9.54,114.53-25.83,67.71-29.39,130.63-82.91,176.08-155.44L515.73,343c-3.41-1.95-6.88-3.84-10.38-5.62-1.88-1-3.76-1.87-5.65-2.77-36.95-17.62-77.65-25.21-121-22.53a298.78,298.78,0,0,0-78.57,15.89c-1.59.55-3.2,1.11-4.77,1.7q-8.76,3.14-17.37,6.81a360.61,360.61,0,0,0-76.85,44.65c-1.07.79-2.13,1.59-3.17,2.39-4.36,3.38-8.66,6.82-12.89,10.37A417.28,417.28,0,0,0,99.54,492.6Z"/></svg>