<svg xmlns="http://www.w3.org/2000/svg" viewBox="0 0 992.47 911.16"><defs><style>.cls-1{fill:#ea7500;}.cls-2{fill:#fca75b;}.cls-3{fill:#c65e00;}.cls-4{fill:#d6d6d6;}.cls-5{fill:#fff;}.cls-6{fill:#b2b2b2;}</style></defs><g id="Layer_2" data-name="Layer 2"><g id="Layer_1-2" data-name="Layer 1"><polygon class="cls-1" points="420.32 18.25 420.32 106.57 569.35 106.57 569.35 18.25 536.23 47.23 495.29 18.25 492.07 20.48 453.44 47.23 420.32 18.25"/><polygon class="cls-2" points="495.75 20.48 495.75 106.57 569.35 106.57 569.35 18.25 537.81 47.23 498.82 18.25 495.75 20.48"/><polyline class="cls-3" points="452 114.85 412.96 114.85 412.96 3.53 422.16 9.05 425.73 22.19 429.89 36.82 465.4 99.21"/><path d="M454,36.74,495.35,8.15,535.7,36.71,569,7.54,577.63,0V114.85H412V0ZM428.6,98.29H561.07V36.5l-.37.32L536.77,57.75l-41.53-29.4L452.85,57.72,428.6,36.5Z"/><circle cx="492.81" cy="273.75" r="102.75"/><path d="M525.71,198.32h0a7.41,7.41,0,0,1-6-9.09c4-16,15.7-51.85,43.47-64.55a7.41,7.41,0,0,1,10.19,4.93h0a7.39,7.39,0,0,1-4.07,8.6c-21.85,10-31.76,40.9-35.16,54.6A7.41,7.41,0,0,1,525.71,198.32Z"/><path d="M466.74,198.32h0a7.42,7.42,0,0,0,6-9.09c-4-16-15.71-51.85-43.48-64.55a7.41,7.41,0,0,0-10.19,4.93h0a7.4,7.4,0,0,0,4.07,8.6c21.85,10,31.76,40.9,35.17,54.6A7.4,7.4,0,0,0,466.74,198.32Z"/><path d="M608,200A70.61,70.61,0,0,1,469.54,223.2,70.61,70.61,0,0,0,594,161.65,70.31,70.31,0,0,1,608,200Z"/><path d="M379.25,200A70.61,70.61,0,0,0,517.66,223.2a70.61,70.61,0,0,1-124.5-61.55A70.31,70.31,0,0,0,379.25,200Z"/><path class="cls-1" d="M626.15,621.83q-.52,7.84-1.58,15.68a255.1,255.1,0,0,1-8.09,37.91q-2.18,7.55-4.87,15a280.24,280.24,0,0,1-23,48.72c-2.79,4.73-5.74,9.39-8.89,14q-6.13,9.14-13,18.06a349.33,349.33,0,0,1-44.88,47.4q-11.64,10.3-24.59,20l-.8.6-.8-.6c-34.41-25.8-62-54.8-82.68-85.72-3.13-4.63-6.06-9.3-8.87-14a278,278,0,0,1-22.59-47.64q-2.71-7.44-4.93-15a253.74,253.74,0,0,1-8.2-38c-.75-5.25-1.28-10.47-1.68-15.71a251.21,251.21,0,0,1,.62-43.88c.56-5.55,1.3-11.1,2.27-16.62C380.67,496,418.4,432,482.62,379.67q6.31-5.13,12.94-10.11l.8-.6.8.6c27.19,20.37,50.11,42.75,68.75,66.49,30.6,39,49.68,81.67,57.19,125.25q1.46,8.26,2.31,16.58A248.15,248.15,0,0,1,626.15,621.83Z"/><path class="cls-2" d="M626.15,621.83q-.52,7.84-1.58,15.68a255.1,255.1,0,0,1-8.09,37.91q-2.18,7.55-4.87,15a280.24,280.24,0,0,1-23,48.72c-2.79,4.73-5.74,9.39-8.89,14q-6.13,9.14-13,18.06c-35.12-62.23-62.57-170-.72-335.16,30.6,39,49.68,81.67,57.19,125.25q1.46,8.26,2.31,16.58A248.15,248.15,0,0,1,626.15,621.83Z"/><path class="cls-3" d="M521.75,818.61q-11.62,10.29-24.59,20l-.8.6-.79-.6c-34.43-25.8-62-54.79-82.7-85.72-3.12-4.63-6.06-9.3-8.87-14a280.49,280.49,0,0,1-22.58-47.63c-1.8-5-3.47-10-4.93-15a254.89,254.89,0,0,1-8.21-38q-1.09-7.85-1.67-15.71a252.1,252.1,0,0,1,.62-43.87q.82-8.34,2.26-16.62C380.67,496,418.4,432,482.63,379.67,285.13,624.29,519.17,816.49,521.75,818.61Z"/><path d="M496.36,850.11l-8.05-6c-34.51-25.86-63-55.37-84.61-87.71-3.07-4.56-6.13-9.39-9.08-14.34a288.69,288.69,0,0,1-23.11-48.75c-2-5.45-3.62-10.48-5.05-15.39a260.85,260.85,0,0,1-8.39-38.8c-.73-5.22-1.3-10.63-1.71-16.08a257.81,257.81,0,0,1,.64-44.88c.55-5.64,1.33-11.38,2.31-17C371.16,491,411.2,426.48,475.08,374.46c4.27-3.48,8.72-7,13.23-10.34l8.05-6,8.06,6c71.4,53.51,116,121.36,128.86,196.2,1,5.71,1.79,11.42,2.36,17a254.66,254.66,0,0,1,.77,45h0c-.38,5.44-.93,10.84-1.63,16a262.62,262.62,0,0,1-8.27,38.8c-1.51,5.19-3.19,10.36-5,15.36a287.52,287.52,0,0,1-23.57,49.84c-2.77,4.7-5.83,9.54-9.09,14.35a348.69,348.69,0,0,1-59.28,67c-7.88,7-16.35,13.86-25.14,20.47Zm0-470.16c-2.09,1.63-4.15,3.28-6.17,4.92-61,49.67-99.2,111.28-110.52,178.19-.93,5.38-1.67,10.83-2.2,16.21a246.81,246.81,0,0,0-.61,42.89c.39,5.19.93,10.35,1.63,15.33a249.21,249.21,0,0,0,8,37.08c1.36,4.69,2.93,9.48,4.81,14.67a275.49,275.49,0,0,0,22.06,46.53c2.81,4.71,5.72,9.32,8.66,13.67,19.29,28.84,44.27,55.32,74.32,78.8,6.09-4.77,12-9.66,17.56-14.6a332.27,332.27,0,0,0,56.6-63.95c3.11-4.59,6-9.18,8.66-13.65a274.93,274.93,0,0,0,22.51-47.61c1.73-4.77,3.33-9.69,4.77-14.64a252.42,252.42,0,0,0,7.89-37.06c.67-5,1.2-10.11,1.56-15.3v0a243.33,243.33,0,0,0-.74-42.93c-.54-5.29-1.3-10.73-2.25-16.18C601,493.14,560.75,430.24,496.36,380Z"/><path d="M623.1,561.3a598.73,598.73,0,0,0-253.61.79q-1.44,8.28-2.26,16.62a570.5,570.5,0,0,1,258.18-.84Q624.56,569.56,623.1,561.3Z"/><path d="M495.79,727.62A374.3,374.3,0,0,0,404,738.89c2.81,4.72,5.75,9.39,8.87,14a352.19,352.19,0,0,1,166.82.24q4.69-6.93,8.88-14A373.28,373.28,0,0,0,495.79,727.62Z"/><path d="M498.07,660.94a479.47,479.47,0,0,0-121.58,15.31c1.46,5,3.13,10,4.93,15a463.83,463.83,0,0,1,230.19-.84q2.7-7.47,4.88-15A481,481,0,0,0,498.07,660.94Z"/><path d="M498.07,607.94a584.72,584.72,0,0,0-131.46,14.64q.58,7.88,1.67,15.71a571.06,571.06,0,0,1,256.28-.79c.71-5.21,1.23-10.44,1.6-15.67A584.27,584.27,0,0,0,498.07,607.94Z"/><polygon points="479.56 831.8 515.14 832.42 495.73 911.16 479.56 831.8"/><path class="cls-4" d="M723,591.79l-.14,20.73a231.8,231.8,0,0,1-23.87-1.41C588,598.77,502.18,506.69,503,395.56l.14-20.73q10.56.07,20.86,1.1a224.05,224.05,0,0,1,89.78,28.58A220.8,220.8,0,0,1,659.17,439a215.86,215.86,0,0,1,44.4,63A209.85,209.85,0,0,1,723,591.79Z"/><path class="cls-5" d="M648.24,598.44c-58.86-20.18-96.64-62.05-130.79-124.75l-7.91-14.43c4-2-2.69.05,1.41-1.42,2.46-.89,1.21,10.22,3.71,9.49C571.37,474,628.41,511.92,648.24,598.44Z"/><path class="cls-6" d="M722.86,590.38l-.14,20.73a231.81,231.81,0,0,1-23.87-1.4c18.17-143.49-111.39-211-175-235.19a224,224,0,0,1,89.77,28.58,221.22,221.22,0,0,1,45.45,34.49,216.13,216.13,0,0,1,44.4,63A209.88,209.88,0,0,1,722.86,590.38Z"/><path d="M622,493.68l-9.62,8.55L508.1,391l-13-13.85.06-8.67,6.53,0,3,0,12.5,13.33Z"/><path d="M712.28,507.63l-3.56,2.42a75,75,0,0,1-43,13c-13.62-.1-23.44-1.73-31.56-5-13.11-5.32-21.78-15-34.85-29.6-2.93-3.27-6.26-7-9.88-10.9l9.61-8.38.08-.09c3.69,4,7,7.75,10,11,20.16,22.52,26.95,30.1,56.68,30.3a62,62,0,0,0,30.14-7.48c.26-.12.52-.28.78-.41a207.84,207.84,0,0,0-32.15-47.25q-4.14-4.61-8.57-9l.13-.13,9.13-8.76q6.35,6.27,12.13,13A221.25,221.25,0,0,1,708.9,500C710.09,502.49,711.21,505.06,712.28,507.63Z"/><path d="M613.53,591.32l-4.61-2.71c-27-15.89-45.69-31-60.49-49.15l10.19-7.88c13.11,16,28.94,29.2,52.33,43.38,6.28-7.54,10.62-15.33,11.89-26.21,3.56-30.39-5.09-39.89-28.2-65.29-2.13-2.35-4.38-4.81-6.73-7.43l9.79-8.35c2.33,2.6,4.56,5.05,6.69,7.39,23.7,26,35.59,39.12,31.39,75.11-2,17.14-10.55,28.44-18.65,37.23Z"/><path d="M712.28,507.63c-1.07-2.57-2.19-5.14-3.38-7.68a221.25,221.25,0,0,0-31.54-49.61Q670.6,442.27,663,434.8a230.55,230.55,0,0,0-139.75-65.18c-6.14-.61-12.39-1-18.59-1.1l-3,0-6.53,0L495,395.62a218.82,218.82,0,0,0,58,149.66,230.33,230.33,0,0,0,144.58,73.1,238.36,238.36,0,0,0,24.65,1.45l6.53,0,.19-27.18A216,216,0,0,0,712.28,507.63ZM715.77,607c-5.61-.21-11.2-.61-16.73-1.23a219.21,219.21,0,0,1-77.42-23.49,213.37,213.37,0,0,1-63.46-50.33,206.2,206.2,0,0,1-50.1-136.22l.1-14.37c3,.12,6,.28,9,.51,1.61.12,3.2.27,4.79.43a217.43,217.43,0,0,1,131.75,61.45c.8.8,1.6,1.6,2.38,2.41q4.36,4.44,8.44,9.11a206.89,206.89,0,0,1,31.37,47.66c.37.75.73,1.5,1.07,2.25q2.16,4.69,4.09,9.46a203.25,203.25,0,0,1,14.8,78Z"/><path class="cls-4" d="M981.69,445.71A235.23,235.23,0,0,1,958,466.11a243.22,243.22,0,0,1-68.31,35.95c-113.23,38.51-258.37-.26-364.56-108.22l-24.07-24.5a231.5,231.5,0,0,1,20.54-18q6.39-5,13.1-9.51c30.78-20.8,65.88-34,103.2-39.85a306.83,306.83,0,0,1,82.26-1.46c38.21,4.34,77.07,15.45,114.64,33.09,43.68,20.48,85.62,49.79,122.79,87.57Z"/><path class="cls-5" d="M772.83,515.39c-88.41.43-159.61-38.48-229.93-97.09l-16.24-13.47c4.71-3.86-3.67,1.15,1.41-2.21,3-2,5.47,11.31,8.64,9.47C617.12,396.9,713.33,423.51,772.83,515.39Z"/><path class="cls-6" d="M952.57,417.53,976.66,442A237.75,237.75,0,0,1,953,462.43C802.1,277,603.62,317.39,516.58,347.68c33.77-26.33,73.59-42.65,116.3-49.35a306,306,0,0,1,82.26-1.46c38.21,4.34,77.09,15.45,114.66,33.08A427.48,427.48,0,0,1,952.57,417.53Z"/><path d="M723.21,393.67,747.53,416,521.25,381.58l-28.17-4.3L483,367l6.09-6c.91-.9,1.83-1.8,2.77-2.7L519,362.47Z"/><path d="M846.1,330l-.45,6.14a95.87,95.87,0,0,1-1.73,12.43,82.28,82.28,0,0,1-22.81,42.62c-12.69,12.48-23.66,19.64-35,23.24-18.33,5.85-37.65,2.47-66.77-2.59-6.52-1.14-13.93-2.43-21.86-3.7l-.92-18.72,0-.18c8.07,1.29,15.55,2.61,22.14,3.74,44.93,7.84,60.06,10.47,87.75-16.76a68,68,0,0,0,19.09-36.64c.1-.39.16-.81.24-1.21a359.15,359.15,0,0,0-84.9-25.83q-9.2-1.59-18.41-2.64l0-.26-1.82-18.74q13.2,1.5,26.35,4A388.66,388.66,0,0,1,834,324.13C838.08,326,842.12,328,846.1,330Z"/><path d="M852.72,519.65l-7.43,1.08c-43.53,6.31-78.46,5.73-113.27-1.87l-8.15-19.2c30.85,6.75,69.18,8.1,107.35,3.16-3-14.67-8.1-27.84-19.65-41.81-32.23-39-51.31-42.18-102.32-50.68-4.72-.79-9.67-1.61-14.9-2.51L693.63,389c5.2.89,10.12,1.71,14.8,2.49,52.32,8.72,78.59,13.09,116.76,59.29,18.18,22,23.49,43.17,26.29,61Z"/><path d="M846.1,330c-4-2-8-4-12.09-5.91A388.66,388.66,0,0,0,746.92,295q-15.66-3.24-31.4-5a316.21,316.21,0,0,0-85,1.49c-45.51,7.14-86,24.31-120.21,51-6.37,5-12.57,10.3-18.45,15.88-.94.9-1.86,1.8-2.77,2.7L483,367l31.58,32.11C578.83,464.49,660,507.94,743,521.49,825.48,535,903.23,518,961.93,473.82a246.46,246.46,0,0,0,24.46-21.07l6.08-6-31.58-32.12A442.11,442.11,0,0,0,846.1,330ZM965.43,443.59q-8.14,7.41-16.89,14c-29.38,22.12-63,36.66-98.94,43.93-37.44,7.61-77.33,7.31-117.4-.53-72.46-14.11-145.43-52.8-205.44-113.83l-16.7-17C513,367.56,516,365,519,362.47c1.62-1.34,3.27-2.63,4.91-3.92,32.29-25.17,70.4-41.35,113.31-48.09a298.87,298.87,0,0,1,80.16-1.41c1.67.19,3.36.39,5,.63q9.23,1.17,18.43,2.9a361,361,0,0,1,84.66,27c1.22.54,2.42,1.09,3.61,1.65,5,2.36,9.94,4.79,14.83,7.34a417.22,417.22,0,0,1,104.81,78Z"/><path class="cls-4" d="M269.52,591.79l.15,20.73a231.77,231.77,0,0,0,23.86-1.41c111-12.34,196.76-104.42,196-215.55l-.14-20.73q-10.58.07-20.86,1.1a224,224,0,0,0-89.78,28.58A220.87,220.87,0,0,0,333.3,439a215.64,215.64,0,0,0-44.39,63A209.71,209.71,0,0,0,269.52,591.79Z"/><path class="cls-5" d="M344.23,598.44c58.86-20.18,96.64-62.05,130.8-124.75l7.9-14.43c-4-2,2.69.05-1.41-1.42-2.45-.89-1.21,10.22-3.71,9.49C421.1,474,364.06,511.92,344.23,598.44Z"/><path class="cls-6" d="M269.61,590.38l.15,20.73a231.61,231.61,0,0,0,23.86-1.4c-18.16-143.49,111.39-211,175-235.19a224,224,0,0,0-89.78,28.58,221.49,221.49,0,0,0-45.45,34.49,215.91,215.91,0,0,0-44.39,63A209.89,209.89,0,0,0,269.61,590.38Z"/><path d="M370.49,493.68l9.62,8.55L484.38,391l13-13.85-.05-8.67-6.54,0-3,0-12.51,13.33Z"/><path d="M280.2,507.63l3.56,2.42a74.26,74.26,0,0,0,7.65,4.57,75.48,75.48,0,0,0,35.38,8.44c13.62-.1,23.45-1.73,31.57-5,13.1-5.32,21.77-15,34.85-29.6,2.92-3.27,6.25-7,9.87-10.9l-9.6-8.38-.09-.09c-3.69,4-7,7.75-10,11-20.17,22.52-26.95,30.1-56.68,30.3a62.05,62.05,0,0,1-30.15-7.48c-.26-.12-.52-.28-.78-.41a207.84,207.84,0,0,1,32.15-47.25q4.14-4.61,8.57-9l-.13-.13-9.12-8.76q-6.36,6.27-12.13,13A221.29,221.29,0,0,0,283.57,500C282.39,502.49,281.26,505.06,280.2,507.63Z"/><path d="M378.94,591.32l4.61-2.71c27-15.89,45.7-31,60.49-49.15l-10.18-7.88c-13.12,16-28.95,29.2-52.34,43.38-6.28-7.54-10.62-15.33-11.89-26.21-3.55-30.39,5.09-39.89,28.2-65.29,2.13-2.35,4.38-4.81,6.74-7.43l-9.79-8.35c-2.34,2.6-4.57,5.05-6.69,7.39-23.7,26-35.6,39.12-31.39,75.11,2,17.14,10.55,28.44,18.64,37.23Z"/><path d="M280.2,507.63c1.06-2.57,2.19-5.14,3.37-7.68a221.29,221.29,0,0,1,31.55-49.61q6.75-8.07,14.34-15.54a230.46,230.46,0,0,1,139.75-65.18c6.14-.61,12.38-1,18.59-1.1l3,0,6.54,0,.18,27.18a218.82,218.82,0,0,1-58,149.66,230.33,230.33,0,0,1-144.58,73.1,238.17,238.17,0,0,1-24.64,1.45l-6.54,0-.19-27.18A215.83,215.83,0,0,1,280.2,507.63ZM276.7,607c5.61-.21,11.2-.61,16.74-1.23a219.33,219.33,0,0,0,77.42-23.49,213.33,213.33,0,0,0,63.45-50.33,206.2,206.2,0,0,0,50.1-136.22l-.1-14.37c-3,.12-6,.28-9,.51-1.6.12-3.19.27-4.78.43a217.43,217.43,0,0,0-131.75,61.45c-.81.8-1.61,1.6-2.39,2.41q-4.37,4.44-8.44,9.11a207.22,207.22,0,0,0-31.37,47.66c-.37.75-.73,1.5-1.07,2.25q-2.16,4.69-4.08,9.46a203.26,203.26,0,0,0-14.81,78Z"/><path class="cls-4" d="M10.78,445.71a235.23,235.23,0,0,0,23.66,20.4,243.27,243.27,0,0,0,68.32,35.95C216,540.57,361.12,501.8,467.31,393.84l24.08-24.5a234.37,234.37,0,0,0-20.54-18q-6.41-5-13.11-9.51c-30.77-20.8-65.88-34-103.2-39.85a306.83,306.83,0,0,0-82.26-1.46c-38.2,4.34-77.07,15.45-114.64,33.09C114,354.12,72,383.43,34.86,421.21Z"/><path class="cls-5" d="M219.64,515.39c88.42.43,159.62-38.48,229.93-97.09l16.24-13.47c-4.7-3.86,3.68,1.15-1.41-2.21-3-2-5.46,11.31-8.64,9.47C375.36,396.9,279.15,423.51,219.64,515.39Z"/><path class="cls-6" d="M39.9,417.53,15.81,442a237.86,237.86,0,0,0,23.68,20.4c150.88-185.44,349.36-145,436.4-114.75-33.77-26.33-73.59-42.65-116.3-49.35a306,306,0,0,0-82.26-1.46c-38.21,4.34-77.08,15.45-114.66,33.08C119,350.44,77.07,379.74,39.9,417.53Z"/><path d="M269.26,393.67,244.94,416l226.29-34.43,28.17-4.3L509.47,367l-6.08-6c-.92-.9-1.84-1.8-2.78-2.7l-27.12,4.12Z"/><path d="M146.37,330l.45,6.14a95.87,95.87,0,0,0,1.73,12.43,82.3,82.3,0,0,0,22.82,42.62c12.68,12.48,23.66,19.64,35,23.24,18.33,5.85,37.65,2.47,66.77-2.59,6.53-1.14,13.94-2.43,21.86-3.7l.93-18.72v-.18c-8.07,1.29-15.54,2.61-22.14,3.74-44.93,7.84-60,10.47-87.74-16.76A67.92,67.92,0,0,1,167,339.62c-.1-.39-.16-.81-.24-1.21a359.43,359.43,0,0,1,84.9-25.83q9.21-1.59,18.41-2.64l0-.26,1.81-18.74q-13.2,1.5-26.35,4a389,389,0,0,0-87.09,29.16C154.4,326,150.36,328,146.37,330Z"/><path d="M139.75,519.65l7.43,1.08c43.53,6.31,78.46,5.73,113.28-1.87l8.15-19.2c-30.86,6.75-69.19,8.1-107.36,3.16,3-14.67,8.11-27.84,19.65-41.81,32.23-39,51.32-42.18,102.33-50.68,4.71-.79,9.67-1.61,14.9-2.51l.71-18.85c-5.19.89-10.12,1.71-14.8,2.49-52.32,8.72-78.58,13.09-116.76,59.29-18.17,22-23.49,43.17-26.28,61Z"/><path d="M146.37,330c4-2,8-4,12.09-5.91A389,389,0,0,1,245.55,295q15.68-3.24,31.4-5a316.21,316.21,0,0,1,85,1.49c45.52,7.14,86,24.31,120.21,51,6.38,5,12.57,10.3,18.45,15.88.94.9,1.86,1.8,2.78,2.7l6.08,6-31.58,32.11c-64.25,65.34-145.37,108.79-228.43,122.34C167,535,89.24,518,30.54,473.82A247.49,247.49,0,0,1,6.09,452.75l-6.09-6,31.58-32.12A442.11,442.11,0,0,1,146.37,330ZM27.05,443.59q8.13,7.41,16.88,14c29.38,22.12,63,36.66,98.94,43.93,37.45,7.61,77.33,7.31,117.41-.53,72.45-14.11,145.42-52.8,205.43-113.83l16.7-17c-2.91-2.64-5.89-5.24-8.92-7.73-1.63-1.34-3.28-2.63-4.92-3.92-32.28-25.17-70.39-41.35-113.31-48.09a298.86,298.86,0,0,0-80.16-1.41c-1.67.19-3.35.39-5,.63q-9.22,1.17-18.44,2.9a361,361,0,0,0-84.66,27c-1.22.54-2.42,1.09-3.61,1.65-5,2.36-9.93,4.79-14.83,7.34a417.17,417.17,0,0,0-104.8,78Z"/></g></g></svg>