<svg id="Layer_1" data-name="Layer 1" xmlns="http://www.w3.org/2000/svg" viewBox="0 0 1080 1080"><defs><style>.cls-1{fill:#fbb812;}.cls-2{fill:#ffe4ae;}.cls-3{fill:#dca224;}.cls-4{fill:#d6d6d6;}.cls-5{fill:#b2b2b2;}.cls-6{fill:#fff;}</style></defs><path class="cls-1" d="M655.12,627.49c-.33,5.57-.79,11.11-1.41,16.66a322.94,322.94,0,0,1-7.11,40.28c-1.29,5.35-2.72,10.65-4.3,15.94A328,328,0,0,1,622,752.12q-3.68,7.53-7.81,14.87c-.42.76-.87,1.53-1.29,2.29a349.14,349.14,0,0,1-49.74,67.27Q552.9,847.46,541.5,857.8l-.71.65-.7-.65a354.8,354.8,0,0,1-72.83-91q-4.12-7.38-7.82-14.91a329,329,0,0,1-19.89-50.59c-1.59-5.28-3.05-10.61-4.34-16A320.16,320.16,0,0,1,428,645q-1-8.34-1.47-16.69a323.89,323.89,0,0,1,.54-46.62q.74-8.82,2-17.64c9.85-70.18,43.08-138.21,99.66-193.78q5.55-5.46,11.39-10.73l.7-.64.71.64a361.31,361.31,0,0,1,54.87,62.2,329.64,329.64,0,0,1,56,141.47q1.27,8.77,2,17.6A317.8,317.8,0,0,1,655.12,627.49Z"/><path class="cls-2" d="M655.12,627.49c-.33,5.57-.79,11.11-1.41,16.66a322.94,322.94,0,0,1-7.11,40.28c-1.29,5.35-2.72,10.65-4.3,15.94A328,328,0,0,1,622,752.12q-3.68,7.53-7.81,14.87c-.42.76-.87,1.53-1.29,2.29-40-79.14-81.09-210.14-16.53-347.55a329.64,329.64,0,0,1,56,141.47q1.27,8.77,2,17.6A317.8,317.8,0,0,1,655.12,627.49Z"/><path class="cls-3" d="M563.16,836.54q-10.26,10.92-21.66,21.27l-.71.63-.7-.63a354.89,354.89,0,0,1-72.83-91.07q-4.12-7.38-7.82-14.89a329.88,329.88,0,0,1-19.89-50.6c-1.59-5.28-3.05-10.6-4.34-15.94A320.31,320.31,0,0,1,428,645q-1-8.34-1.47-16.69a323.74,323.74,0,0,1,.54-46.61q.74-8.85,2-17.65c9.85-70.18,43.08-138.21,99.66-193.79C354.74,630.11,560.89,834.29,563.16,836.54Z"/><path d="M540.79,870l-7.09-6.41a363.15,363.15,0,0,1-74.52-93.18c-2.71-4.84-5.4-10-8-15.23a338.1,338.1,0,0,1-20.35-51.79c-1.74-5.79-3.2-11.13-4.45-16.35A325.13,325.13,0,0,1,419,645.83c-.65-5.55-1.15-11.3-1.51-17.08a331.38,331.38,0,0,1,.56-47.68c.49-6,1.18-12.09,2-18.08,10.44-74.44,45.7-143,102-198.27,3.76-3.7,7.68-7.39,11.65-11l7.09-6.41,7.1,6.41C610.78,410.59,650,482.65,661.39,562.16c.87,6.06,1.57,12.13,2.08,18a325.21,325.21,0,0,1,.67,47.75h0c-.33,5.78-.81,11.52-1.44,17.06a330.05,330.05,0,0,1-7.27,41.21c-1.33,5.51-2.81,11-4.41,16.31a335.84,335.84,0,0,1-20.76,53c-2.44,5-5.14,10.13-8,15.24A357.13,357.13,0,0,1,570,841.83c-6.94,7.41-14.4,14.73-22.14,21.75Zm0-499.45c-1.84,1.74-3.66,3.49-5.44,5.24C481.64,428.54,448,494,438,565.07c-.82,5.72-1.47,11.51-1.94,17.22a316.41,316.41,0,0,0-.53,45.56c.34,5.51.82,11,1.43,16.29A312.1,312.1,0,0,0,444,683.52c1.2,5,2.58,10.07,4.24,15.59a322.38,322.38,0,0,0,19.42,49.42c2.48,5,5,9.9,7.63,14.53a345.07,345.07,0,0,0,65.46,83.71c5.36-5.07,10.55-10.27,15.47-15.52a341.29,341.29,0,0,0,49.85-67.92c2.74-4.89,5.3-9.76,7.62-14.51a320.21,320.21,0,0,0,19.83-50.57c1.53-5.07,2.93-10.29,4.2-15.55a315.93,315.93,0,0,0,7-39.37c.6-5.28,1.06-10.75,1.38-16.26h0a311.37,311.37,0,0,0-.65-45.61c-.48-5.62-1.15-11.4-2-17.19C633,490.79,597.51,424,540.79,370.55Z"/><circle cx="545.31" cy="358.67" r="81.37"/><path d="M652.42,563.2A439.26,439.26,0,0,0,429,564q-1.26,8.81-2,17.65a419.26,419.26,0,0,1,227.4-.89Q653.7,572,652.42,563.2Z"/><path class="cls-4" d="M853.86,661.19v29.59A310.48,310.48,0,0,1,820.69,689,307.2,307.2,0,0,1,546.32,383.24v-29.6q14.67,0,29,1.37A307.27,307.27,0,0,1,853.86,661.19Z"/><path class="cls-5" d="M853.72,659.18v29.59A310.48,310.48,0,0,1,820.55,687c23.87-205-156.78-300-245.38-334A307.3,307.3,0,0,1,853.72,659.18Z"/><path d="M712.64,522.13l-13.28,12.3L553.43,376.63,535.27,357V344.6h9.08c1.37,0,2.73,0,4.12,0L566,363.53Z"/><path d="M838.23,541.16l-4.92,3.5a102.83,102.83,0,0,1-59.67,19c-18.93,0-32.59-2.23-43.9-6.89-18.27-7.47-30.4-21.22-48.71-41.91-4.1-4.64-8.76-9.91-13.82-15.47l13.26-12.06.12-.12c5.17,5.67,9.85,11,14,15.67,28.22,31.95,37.73,42.7,79,42.7a84.37,84.37,0,0,0,41.81-11c.36-.18.72-.4,1.08-.6a297.31,297.31,0,0,0-45.12-67.13q-5.79-6.54-12-12.74l.18-.18,12.6-12.6q8.89,8.9,17,18.39a316.68,316.68,0,0,1,44.3,70.5Q836,535.66,838.23,541.16Z"/><path d="M701.84,661.59l-6.44-3.82c-37.72-22.41-63.78-43.86-84.51-69.56L625,576.86c18.37,22.77,40.49,41.39,73.12,61.41,8.66-10.82,14.61-22,16.28-37.54,4.64-43.41-7.46-56.89-39.81-92.91-3-3.33-6.13-6.83-9.43-10.54l13.52-12q4.92,5.52,9.37,10.47c33.18,37,49.83,55.49,44.33,106.92C729.73,627.14,718,643.35,706.79,656Z"/><path class="cls-6" d="M650,613.49a307.28,307.28,0,0,1-97.86-170.56C593.72,455.17,643.54,494.89,650,613.49Z"/><path d="M838.23,541.16q-2.26-5.49-4.76-10.93a316.68,316.68,0,0,0-44.3-70.5q-9.46-11.46-20.07-22a318,318,0,0,0-65.58-50.41A313.84,313.84,0,0,0,574.31,346c-8.54-.8-17.22-1.27-25.84-1.39-1.39,0-2.75,0-4.12,0h-9.08v38.8a317.86,317.86,0,0,0,283.57,316,323.53,323.53,0,0,0,34.26,1.83h9.08v-38.8A315.57,315.57,0,0,0,838.23,541.16ZM844,683q-11.7-.36-23.27-1.59a299,299,0,0,1-267.34-298V362.89c4.18.14,8.38.34,12.54.64,2.23.16,4.44.36,6.65.56A296,296,0,0,1,694.41,403a300.16,300.16,0,0,1,61.85,47.54c1.12,1.12,2.25,2.27,3.33,3.41q6.12,6.3,11.82,12.92a296.28,296.28,0,0,1,44,67.73c.52,1.06,1,2.13,1.5,3.19q3,6.69,5.77,13.47A297.34,297.34,0,0,1,844,662.43Z"/><path class="cls-4" d="M226.14,661.19v29.59A310.48,310.48,0,0,0,259.31,689,307.2,307.2,0,0,0,533.68,383.24v-29.6q-14.67,0-29,1.37A307.27,307.27,0,0,0,226.14,661.19Z"/><path class="cls-5" d="M226.28,659.18v29.59A310.48,310.48,0,0,0,259.45,687C235.58,482,416.23,387,504.83,353A307.3,307.3,0,0,0,226.28,659.18Z"/><path d="M367.36,522.13l13.28,12.3,145.93-157.8L544.73,357V344.6h-9.08c-1.37,0-2.73,0-4.12,0L514,363.53Z"/><path d="M241.77,541.16l4.92,3.5a102.83,102.83,0,0,0,59.67,19c18.93,0,32.59-2.23,43.9-6.89,18.27-7.47,30.4-21.22,48.71-41.91,4.1-4.64,8.76-9.91,13.82-15.47l-13.26-12.06-.12-.12c-5.17,5.67-9.85,11-14,15.67-28.22,31.95-37.73,42.7-79,42.7a84.37,84.37,0,0,1-41.81-11c-.36-.18-.72-.4-1.08-.6a297.31,297.31,0,0,1,45.12-67.13q5.79-6.54,12-12.74l-.18-.18-12.6-12.6q-8.9,8.9-17,18.39a316.68,316.68,0,0,0-44.3,70.5Q244,535.66,241.77,541.16Z"/><path d="M378.16,661.59l6.44-3.82c37.72-22.41,63.78-43.86,84.51-69.56L455,576.86c-18.37,22.77-40.49,41.39-73.12,61.41-8.66-10.82-14.61-22-16.28-37.54-4.64-43.41,7.46-56.89,39.81-92.91,3-3.33,6.13-6.83,9.43-10.54l-13.52-12q-4.92,5.52-9.37,10.47c-33.18,37-49.83,55.49-44.33,106.92,2.62,24.48,14.39,40.69,25.56,53.32Z"/><path class="cls-6" d="M430,613.49a307.28,307.28,0,0,0,97.86-170.56C486.28,455.17,436.46,494.89,430,613.49Z"/><path d="M241.77,541.16q2.26-5.49,4.76-10.93a316.68,316.68,0,0,1,44.3-70.5q9.46-11.46,20.07-22a318,318,0,0,1,65.58-50.41A313.84,313.84,0,0,1,505.69,346c8.54-.8,17.22-1.27,25.84-1.39,1.39,0,2.75,0,4.12,0h9.08v38.8a317.86,317.86,0,0,1-283.57,316,323.53,323.53,0,0,1-34.26,1.83h-9.08v-38.8A315.57,315.57,0,0,1,241.77,541.16ZM236,683q11.7-.36,23.27-1.59a299,299,0,0,0,267.34-298V362.89c-4.18.14-8.38.34-12.54.64-2.23.16-4.44.36-6.65.56A296,296,0,0,0,385.59,403a300.16,300.16,0,0,0-61.85,47.54c-1.12,1.12-2.25,2.27-3.33,3.41q-6.12,6.3-11.82,12.92a296.28,296.28,0,0,0-44,67.73c-.52,1.06-1,2.13-1.5,3.19q-3,6.69-5.77,13.47A297.34,297.34,0,0,0,236,662.43Z"/><path d="M577.9,300.47h0a9,9,0,0,1-7.3-11.07c4.83-19.49,19.12-63.13,52.94-78.6a9,9,0,0,1,12.41,6h0a9,9,0,0,1-5,10.48c-26.61,12.2-38.67,49.8-42.82,66.49A9,9,0,0,1,577.9,300.47Z"/><path d="M508.09,300.47h0a9,9,0,0,0,7.3-11.07c-4.83-19.49-19.12-63.13-52.94-78.6a9,9,0,0,0-12.41,6h0a9,9,0,0,0,5,10.48c26.61,12.2,38.67,49.8,42.82,66.49A9,9,0,0,0,508.09,300.47Z"/><path d="M540.29,739.88a276.8,276.8,0,0,0-80.85,12q3.71,7.51,7.82,14.89a259,259,0,0,1,146.93.26q4.13-7.37,7.81-14.88A276.36,276.36,0,0,0,540.29,739.88Z"/><path d="M542.3,669.05a354.78,354.78,0,0,0-107.09,16.26c1.29,5.34,2.75,10.66,4.34,15.94a341.33,341.33,0,0,1,202.75-.89q2.37-7.92,4.3-15.93A355.93,355.93,0,0,0,542.3,669.05Z"/><path d="M542.3,612.75A431.16,431.16,0,0,0,426.51,628.3Q427,636.66,428,645a419.53,419.53,0,0,1,225.73-.84q.93-8.31,1.41-16.65A430.7,430.7,0,0,0,542.3,612.75Z"/></svg>