<svg id="Layer_1" data-name="Layer 1" xmlns="http://www.w3.org/2000/svg" viewBox="0 0 1080 1080"><defs><style>.cls-1{fill:#fbb812;}.cls-2{fill:#dca224;}.cls-3{fill:#ffe4ae;}.cls-4{fill:#d6d6d6;}.cls-5{fill:#fff;}.cls-6{fill:#b2b2b2;}</style></defs><circle cx="540.62" cy="387.21" r="74.52"/><path class="cls-1" d="M639.88,691.59q-.42,9.36-1.23,18.71c-1.31,15.18-3.39,30.29-6.2,45.24q-1.68,9-3.76,17.91A433.15,433.15,0,0,1,611,831.59c-2.13,5.65-4.41,11.2-6.8,16.72q-4.34,10-9.2,19.84a400.24,400.24,0,0,1-35.33,58.28q-8.94,12.29-18.89,23.89l-.61.71-.61-.71A398.51,398.51,0,0,1,476,848c-2.41-5.52-4.67-11.1-6.83-16.73a438.77,438.77,0,0,1-17.35-56.85c-1.38-5.92-2.66-11.9-3.79-17.9a457.26,457.26,0,0,1-6.31-45.3c-.55-6.26-1-12.49-1.27-18.75a464.23,464.23,0,0,1,.48-52.36q.63-9.95,1.73-19.84c8.59-78.84,37.57-155.27,86.94-217.69q4.83-6.14,9.93-12.07l.61-.72.61.72A389,389,0,0,1,577,440.28c33.3,54.11,53.47,115.78,60.5,179.07.73,6.57,1.34,13.16,1.78,19.78A461.31,461.31,0,0,1,639.88,691.59Z"/><path class="cls-2" d="M559.66,926.43q-8.92,12.27-18.89,23.89l-.61.72-.62-.72A398.89,398.89,0,0,1,476,848q-3.6-8.29-6.81-16.73a436.15,436.15,0,0,1-17.35-56.85c-1.39-5.93-2.67-11.91-3.79-17.91a454.31,454.31,0,0,1-6.31-45.3q-.84-9.36-1.28-18.75a468.84,468.84,0,0,1,.47-52.35q.65-9.95,1.74-19.83c8.59-78.84,37.58-155.28,86.93-217.71C377.87,694.52,557.68,923.9,559.66,926.43Z"/><path class="cls-3" d="M639.88,691.59q-.42,9.36-1.23,18.71c-1.31,15.18-3.39,30.29-6.2,45.24q-1.68,9-3.76,17.91A433.15,433.15,0,0,1,611,831.59c-2.13,5.65-4.41,11.2-6.8,16.72q-4.34,10-9.2,19.84c-25.34-88-60.66-258.91-18-427.87,33.3,54.11,53.47,115.78,60.5,179.07.73,6.57,1.34,13.16,1.78,19.78A461.31,461.31,0,0,1,639.88,691.59Z"/><path d="M540.16,964l-6.19-7.2a408.33,408.33,0,0,1-65-104.68c-2.36-5.44-4.7-11.2-7-17.11a451.35,451.35,0,0,1-17.76-58.18c-1.51-6.5-2.78-12.51-3.88-18.37a464.37,464.37,0,0,1-6.44-46.3c-.56-6.23-1-12.69-1.31-19.19a478.5,478.5,0,0,1,.48-53.56c.43-6.74,1-13.58,1.78-20.32,9.11-83.62,39.87-160.65,88.94-222.74,3.29-4.15,6.71-8.3,10.17-12.33l6.19-7.21,6.19,7.21c54.85,63.86,89.09,144.82,99,234.14.77,6.81,1.38,13.63,1.81,20.24a470.43,470.43,0,0,1,.6,53.64h0c-.29,6.5-.72,12.94-1.26,19.16a467.17,467.17,0,0,1-6.35,46.3c-1.16,6.2-2.45,12.37-3.84,18.33a448.55,448.55,0,0,1-18.11,59.48c-2.13,5.61-4.48,11.39-7,17.13a412.58,412.58,0,0,1-45.54,79.92c-6.06,8.32-12.56,16.54-19.31,24.43Zm0-561.1c-1.61,1.95-3.19,3.92-4.75,5.88-46.85,59.27-76.21,132.8-84.91,212.65-.71,6.43-1.28,12.93-1.69,19.35a455.19,455.19,0,0,0-.46,51.18c.29,6.2.71,12.35,1.24,18.3a446.22,446.22,0,0,0,6.17,44.25c1,5.6,2.25,11.31,3.7,17.51a428.86,428.86,0,0,0,16.94,55.52c2.16,5.63,4.4,11.12,6.65,16.32a391.05,391.05,0,0,0,57.1,94c4.68-5.69,9.21-11.53,13.5-17.43a393.66,393.66,0,0,0,43.48-76.31c2.39-5.48,4.63-11,6.65-16.3a427,427,0,0,0,17.3-56.81c1.33-5.69,2.56-11.56,3.66-17.47,2.74-14.53,4.78-29.41,6.07-44.22.51-5.94.92-12.08,1.19-18.27v0a449,449,0,0,0-.56-51.23c-.42-6.32-1-12.81-1.73-19.32C620.55,538,589.63,462.94,540.16,402.92Z"/><path d="M637.53,619.36a300.59,300.59,0,0,0-194.85.94q-1.11,9.88-1.74,19.83a287.39,287.39,0,0,1,198.36-1Q638.64,629.21,637.53,619.36Z"/><path d="M539.72,817.84a192,192,0,0,0-70.52,13.45q3.23,8.44,6.81,16.73a177.75,177.75,0,0,1,128.17.29q3.6-8.26,6.82-16.71A191.81,191.81,0,0,0,539.72,817.84Z"/><path d="M541.47,738.27a246.7,246.7,0,0,0-93.41,18.26c1.12,6,2.4,12,3.79,17.91a234.56,234.56,0,0,1,176.85-1q2.07-8.9,3.75-17.89A246.92,246.92,0,0,0,541.47,738.27Z"/><path d="M541.47,675a298.25,298.25,0,0,0-101,17.46q.45,9.4,1.28,18.75a287.5,287.5,0,0,1,196.9-.93q.83-9.34,1.23-18.71A297.37,297.37,0,0,0,541.47,675Z"/><path class="cls-4" d="M755,721.44l-5.28,24.5a280,280,0,0,1-27.89-7.53C593.6,696.48,514.71,566.37,543,435l5.27-24.5q12.5,2.68,24.42,6.44a270.72,270.72,0,0,1,99.21,55.94,267.06,267.06,0,0,1,45.29,52,261.1,261.1,0,0,1,37,85.53A253.77,253.77,0,0,1,755,721.44Z"/><path class="cls-5" d="M665,710.92c-64.69-38.37-99.09-97.23-124.07-179.84l-5.8-19c5.17-1.35-3.2-.59,2-1.33,3.12-.45-1.09,12.39,2,12.15C604.65,544.69,662.81,603.65,665,710.92Z"/><path class="cls-6" d="M755.27,719.75,750,744.25a278.26,278.26,0,0,1-27.9-7.53c56.83-165.34-79.87-277.1-149.18-321.43a270.72,270.72,0,0,1,99.21,55.94,267.06,267.06,0,0,1,45.29,52,261.27,261.27,0,0,1,37,85.54A253.72,253.72,0,0,1,755.27,719.75Z"/><path d="M659.69,580.47l-13.49,7.75-96-157.35-12-19.59L540.47,401l7.72,1.67c1.16.25,2.32.5,3.5.77l11.52,18.85Z"/><path d="M763.12,619.22l-4.81,2a90.1,90.1,0,0,1-10.18,3.52,91.1,91.1,0,0,1-44,1.27c-16.09-3.46-27.32-7.81-36.11-13.74-14.2-9.53-22.07-23.13-33.95-43.61-2.66-4.59-5.69-9.8-9-15.34l13.43-7.55.12-.08c3.38,5.64,6.41,10.9,9.12,15.54,18.31,31.61,24.48,42.25,59.62,49.81a75,75,0,0,0,37.51-1.42l1-.3a251.21,251.21,0,0,0-26.42-63.84q-3.75-6.47-7.93-12.74l.19-.11,13-8.13q6,9,11.16,18.33A267.36,267.36,0,0,1,761,609.3Q762.18,614.25,763.12,619.22Z"/><path d="M625.65,694l-4.79-4.35c-28.09-25.46-46.43-48-59.48-73.05l14-6.82C586.94,632,602.43,651.41,626.62,674c9.3-7.37,16.35-15.53,20.53-28.09,11.69-35.09,3.8-48.47-17.29-84.21q-2.93-4.95-6.15-10.45l13.64-7.47c2.13,3.65,4.17,7.1,6.1,10.38,21.64,36.67,32.5,55.07,18.65,96.63-6.59,19.79-19.48,31.06-31.23,39.47Z"/><path d="M763.12,619.22q-.95-5-2.1-9.92a267.36,267.36,0,0,0-25.12-66.48q-6-11.21-13.14-21.92A278.79,278.79,0,0,0,573.42,409.34c-7.12-2.22-14.42-4.2-21.73-5.87-1.18-.27-2.34-.52-3.5-.77L540.47,401l-6.92,32.12c-14.06,65.33-2.78,133.3,31.77,191.4A278.56,278.56,0,0,0,718.43,746.67a290.73,290.73,0,0,0,28.81,7.78l7.73,1.66L761.88,724A261,261,0,0,0,763.12,619.22ZM742.79,737.66c-6.58-1.63-13.1-3.49-19.5-5.58a265.3,265.3,0,0,1-85.84-46.86A258.25,258.25,0,0,1,574.74,610,249.28,249.28,0,0,1,549,436.48l3.66-17c3.53.89,7.06,1.82,10.55,2.83,1.86.54,3.71,1.11,5.55,1.69A262.7,262.7,0,0,1,709.55,529.18c.76,1.14,1.51,2.29,2.23,3.44q4.08,6.33,7.74,12.85a250.14,250.14,0,0,1,25.39,64.14c.26,1,.49,1.95.71,2.92q1.41,6.09,2.51,12.2a245.87,245.87,0,0,1-1.68,95.95Z"/><path class="cls-4" d="M1005.76,586a233.94,233.94,0,0,1-27.34,14.74,241.67,241.67,0,0,1-74,20.26c-118.16,13.12-250.74-55.62-330.68-183.16L555.6,408.93a229.93,229.93,0,0,1,23.79-13.05q7.27-3.48,14.75-6.42c34.33-13.6,71.24-18.9,108.72-16.58A305,305,0,0,1,783,389.09c36.15,12.4,71.49,31.52,104.19,56.69,38,29.23,72.44,66.68,100.42,111.31Z"/><path class="cls-5" d="M788.08,608.92c-85.91-18.53-146.69-71.55-202.38-143.51l-12.88-16.56c5.39-2.74-3.82.33,1.84-1.84,3.38-1.31,2.88,12.15,6.36,11C662.32,460.53,750,507,788.08,608.92Z"/><path class="cls-6" d="M983.53,552.44l18.14,28.95a238,238,0,0,1-27.36,14.73c-106.73-212.34-308-215.66-399-204.9,38.42-18.33,80.57-25.64,123.47-23a304.2,304.2,0,0,1,80.16,16.21c36.16,12.4,71.52,31.52,104.21,56.67C921.13,470.36,955.55,507.79,983.53,552.44Z"/><path d="M766,480.13,784.82,507,572.55,425.12l-26.43-10.21-7.59-12.1,7.2-4.51c1.08-.68,2.16-1.35,3.27-2l25.45,9.8Z"/><path d="M898.93,444.7l-1.76,5.86a94,94,0,0,1-4.34,11.7,81.9,81.9,0,0,1-31.28,36.49c-15,9.39-27.17,14-39,15-19,1.75-37.07-5.66-64.25-16.82-6.09-2.51-13-5.34-20.43-8.27L741,470.33l0-.18c7.56,3,14.54,5.86,20.7,8.38,41.93,17.23,56,23,88.76,2.53a67.54,67.54,0,0,0,26.39-31.48c.18-.35.33-.75.49-1.13a357.07,357.07,0,0,0-76.88-43.25q-8.6-3.52-17.3-6.51l0-.27,2.25-18.57q12.49,4.29,24.72,9.56a387.07,387.07,0,0,1,78.29,47C892,439.08,895.5,441.87,898.93,444.7Z"/><path d="M864.72,630.18l-7.44-.55c-43.6-3.2-77.39-11.25-109.55-26.09l-3.8-20.38c28.51,13.16,65.42,22.68,103.53,26.07.23-14.88-1.9-28.76-10.11-44.79-22.93-44.77-40.78-52-88.47-71.13-4.41-1.77-9-3.63-13.93-5.63l3.35-18.45c4.85,2,9.45,3.83,13.83,5.59,48.92,19.67,73.48,29.55,100.64,82.57,12.92,25.25,13.54,47,12.44,64.84Z"/><path d="M898.93,444.7c-3.43-2.83-6.93-5.62-10.47-8.33a387.07,387.07,0,0,0-78.29-47q-14.52-6.51-29.41-11.6a314.6,314.6,0,0,0-82.83-16.76c-45.71-2.82-88.65,5.17-127.62,23.76-7.25,3.45-14.41,7.31-21.31,11.47-1.11.67-2.19,1.34-3.27,2l-7.2,4.51,23.78,37.94c48.37,77.19,117.8,136.75,195.52,167.71,77.17,30.73,156.27,31,222.73.63a246.08,246.08,0,0,0,28.25-15.21l7.19-4.51-23.78-37.94A439.66,439.66,0,0,0,898.93,444.7Zm91.5,135.79q-9.49,5.46-19.4,10c-33.26,15.17-69,22.08-105.45,21.44-38-.64-76.63-9.48-113.86-25.67-67.3-29.22-129.85-82.42-175-154.52l-12.58-20.06c3.4-1.94,6.85-3.83,10.33-5.6,1.86-.95,3.73-1.85,5.61-2.75,36.73-17.51,77.19-25.05,120.29-22.4a296.85,296.85,0,0,1,78.11,15.81c1.58.54,3.18,1.1,4.74,1.68q8.7,3.13,17.27,6.78a358.05,358.05,0,0,1,76.39,44.38c1.07.78,2.12,1.58,3.15,2.38q6.51,5,12.82,10.3a414.92,414.92,0,0,1,85,98.17Z"/><path class="cls-4" d="M325,721.44l5.28,24.5a280,280,0,0,0,27.89-7.53C486.4,696.48,565.29,566.37,537,435l-5.27-24.5q-12.5,2.68-24.42,6.44a270.72,270.72,0,0,0-99.21,55.94,267.06,267.06,0,0,0-45.29,52,261.1,261.1,0,0,0-37,85.53A253.77,253.77,0,0,0,325,721.44Z"/><path class="cls-5" d="M415,710.92c64.69-38.37,99.09-97.23,124.07-179.84l5.8-19c-5.17-1.35,3.2-.59-2-1.33-3.12-.45,1.09,12.39-2,12.15C475.35,544.69,417.19,603.65,415,710.92Z"/><path class="cls-6" d="M324.73,719.75l5.28,24.5a278.26,278.26,0,0,0,27.9-7.53c-56.83-165.34,79.87-277.1,149.18-321.43a270.72,270.72,0,0,0-99.21,55.94,267.06,267.06,0,0,0-45.29,52,261.27,261.27,0,0,0-37,85.54A253.72,253.72,0,0,0,324.73,719.75Z"/><path d="M420.31,580.47l13.49,7.75,96-157.35,12-19.59L539.53,401l-7.72,1.67c-1.16.25-2.32.5-3.5.77l-11.52,18.85Z"/><path d="M316.88,619.22l4.81,2a90.1,90.1,0,0,0,10.18,3.52,91.1,91.1,0,0,0,44,1.27c16.09-3.46,27.32-7.81,36.11-13.74,14.2-9.53,22.07-23.13,33.95-43.61,2.66-4.59,5.69-9.8,9-15.34l-13.43-7.55-.12-.08c-3.38,5.64-6.41,10.9-9.12,15.54-18.31,31.61-24.48,42.25-59.62,49.81a75,75,0,0,1-37.51-1.42l-1-.3a251.21,251.21,0,0,1,26.42-63.84q3.75-6.47,7.93-12.74l-.19-.11-13-8.13q-6,9-11.16,18.33A267.36,267.36,0,0,0,319,609.3Q317.82,614.25,316.88,619.22Z"/><path d="M454.35,694l4.79-4.35c28.09-25.46,46.43-48,59.48-73.05l-14-6.82C493.06,632,477.57,651.41,453.38,674c-9.3-7.37-16.35-15.53-20.53-28.09-11.69-35.09-3.8-48.47,17.29-84.21q2.92-4.95,6.15-10.45l-13.64-7.47c-2.13,3.65-4.17,7.1-6.1,10.38-21.64,36.67-32.5,55.07-18.65,96.63,6.59,19.79,19.48,31.06,31.23,39.47Z"/><path d="M316.88,619.22q.94-5,2.1-9.92a267.36,267.36,0,0,1,25.12-66.48q6-11.21,13.14-21.92A278.79,278.79,0,0,1,506.58,409.34c7.12-2.22,14.42-4.2,21.73-5.87,1.18-.27,2.34-.52,3.5-.77l7.72-1.67,6.92,32.12c14.06,65.33,2.78,133.3-31.77,191.4A278.56,278.56,0,0,1,361.57,746.67a290.73,290.73,0,0,1-28.81,7.78L325,756.11,318.12,724A261,261,0,0,1,316.88,619.22Zm20.33,118.44c6.58-1.63,13.1-3.49,19.5-5.58a265.3,265.3,0,0,0,85.84-46.86A258.25,258.25,0,0,0,505.26,610,249.28,249.28,0,0,0,531,436.48l-3.66-17c-3.53.89-7.06,1.82-10.55,2.83-1.86.54-3.71,1.11-5.55,1.69A262.7,262.7,0,0,0,370.45,529.18c-.76,1.14-1.51,2.29-2.23,3.44q-4.08,6.33-7.74,12.85a250.14,250.14,0,0,0-25.39,64.14c-.26,1-.49,1.95-.71,2.92q-1.41,6.09-2.51,12.2a245.87,245.87,0,0,0,1.68,95.95Z"/><path class="cls-4" d="M74.24,586a233.94,233.94,0,0,0,27.34,14.74,241.67,241.67,0,0,0,74,20.26c118.16,13.12,250.74-55.62,330.68-183.16l18.12-28.94a229.93,229.93,0,0,0-23.79-13.05q-7.28-3.48-14.75-6.42c-34.33-13.6-71.24-18.9-108.72-16.58A305,305,0,0,0,297,389.09c-36.15,12.4-71.49,31.52-104.19,56.69-38,29.23-72.44,66.68-100.42,111.31Z"/><path class="cls-5" d="M291.92,608.92c85.91-18.53,146.69-71.55,202.38-143.51l12.88-16.56c-5.39-2.74,3.82.33-1.84-1.84-3.38-1.31-2.88,12.15-6.36,11C417.68,460.53,330,507,291.92,608.92Z"/><path class="cls-6" d="M96.47,552.44,78.33,581.39a238,238,0,0,0,27.36,14.73c106.73-212.34,308.05-215.66,399-204.9-38.42-18.33-80.57-25.64-123.47-23a304.2,304.2,0,0,0-80.16,16.21c-36.16,12.4-71.52,31.52-104.21,56.67C158.87,470.36,124.45,507.79,96.47,552.44Z"/><path d="M314,480.13,295.18,507l212.27-81.92,26.43-10.21,7.59-12.1-7.2-4.51c-1.08-.68-2.16-1.35-3.27-2l-25.45,9.8Z"/><path d="M181.07,444.7l1.76,5.86a94,94,0,0,0,4.34,11.7,81.9,81.9,0,0,0,31.28,36.49c15,9.39,27.17,14,39,15,19,1.75,37.07-5.66,64.25-16.82,6.09-2.51,13-5.34,20.43-8.27L339,470.33l0-.18c-7.56,3-14.54,5.86-20.7,8.38-41.93,17.23-56.05,23-88.76,2.53a67.54,67.54,0,0,1-26.39-31.48c-.18-.35-.33-.75-.49-1.13a357.07,357.07,0,0,1,76.88-43.25q8.6-3.52,17.3-6.51l0-.27-2.25-18.57q-12.49,4.29-24.72,9.56a387.07,387.07,0,0,0-78.29,47C188,439.08,184.5,441.87,181.07,444.7Z"/><path d="M215.28,630.18l7.44-.55c43.6-3.2,77.39-11.25,109.55-26.09l3.8-20.38c-28.51,13.16-65.42,22.68-103.53,26.07-.23-14.88,1.9-28.76,10.11-44.79,22.93-44.77,40.78-52,88.47-71.13,4.41-1.77,9-3.63,13.93-5.63l-3.35-18.45c-4.85,2-9.45,3.83-13.83,5.59-48.92,19.67-73.48,29.55-100.64,82.57-12.92,25.25-13.54,47-12.44,64.84Z"/><path d="M181.07,444.7c3.43-2.83,6.93-5.62,10.47-8.33a387.07,387.07,0,0,1,78.29-47q14.52-6.51,29.41-11.6a314.6,314.6,0,0,1,82.83-16.76c45.71-2.82,88.65,5.17,127.62,23.76,7.25,3.45,14.41,7.31,21.31,11.47,1.11.67,2.19,1.34,3.27,2l7.2,4.51-23.78,37.94c-48.37,77.19-117.8,136.75-195.52,167.71-77.17,30.73-156.27,31-222.73.63a246.08,246.08,0,0,1-28.25-15.21L64,589.37l23.78-37.94A439.66,439.66,0,0,1,181.07,444.7ZM89.57,580.49q9.5,5.46,19.4,10c33.26,15.17,69,22.08,105.45,21.44,38-.64,76.63-9.48,113.86-25.67,67.3-29.22,129.85-82.42,175-154.52l12.58-20.06c-3.4-1.94-6.85-3.83-10.33-5.6-1.86-.95-3.73-1.85-5.61-2.75-36.73-17.51-77.19-25.05-120.29-22.4a296.85,296.85,0,0,0-78.11,15.81c-1.58.54-3.18,1.1-4.74,1.68q-8.7,3.13-17.27,6.78a358.05,358.05,0,0,0-76.39,44.38c-1.07.78-2.12,1.58-3.15,2.38q-6.51,5-12.82,10.3a414.92,414.92,0,0,0-85,98.17Z"/><path d="M570.46,330.24h0a8.26,8.26,0,0,1-6.68-10.13c4.42-17.86,17.51-57.82,48.48-72a8.25,8.25,0,0,1,11.36,5.49h0a8.27,8.27,0,0,1-4.54,9.6c-24.37,11.17-35.41,45.6-39.21,60.88A8.26,8.26,0,0,1,570.46,330.24Z"/><path d="M510.21,333.92h0a8.26,8.26,0,0,0,6.68-10.13c-4.42-17.86-17.51-57.82-48.48-72a8.25,8.25,0,0,0-11.36,5.49h0a8.27,8.27,0,0,0,4.54,9.6C486,278.07,497,312.5,500.82,327.78A8.26,8.26,0,0,0,510.21,333.92Z"/><polygon class="cls-1" points="464.26 134.23 464.26 222.54 613.29 222.54 613.29 134.23 580.18 163.21 539.24 134.23 536.02 136.46 497.38 163.21 464.26 134.23"/><polygon class="cls-3" points="539.7 136.46 539.7 222.54 613.29 222.54 613.29 134.23 581.75 163.21 542.76 134.23 539.7 136.46"/><polyline class="cls-2" points="495.94 230.82 456.9 230.82 456.9 119.51 466.1 125.03 469.67 138.17 473.83 152.79 509.34 215.18"/><path d="M498,152.72l41.32-28.59,40.35,28.55,33.3-29.16,8.63-7.54V230.82H456V116Zm-25.43,61.54H605V152.48l-.36.31-23.94,20.94-41.53-29.4-42.39,29.36-24.25-21.21Z"/></svg>