<svg xmlns="http://www.w3.org/2000/svg" width="500" height="500" viewBox="0 0 500 500">
  <g id="Group_1698" data-name="Group 1698" transform="translate(-1883 -3920)">
    <rect id="Rectangle_693" data-name="Rectangle 693" width="500" height="500" transform="translate(1883 3920)" fill="none"/>
    <g id="account" transform="translate(1947.856 3990.012)">
      <path id="Path_230" data-name="Path 230" d="M359.988,179.994A179.994,179.994,0,0,0,0,179.994c0,98.6,79.829,179.994,179.994,179.994C279.747,359.988,359.988,279.046,359.988,179.994ZM179.994,21.093c87.618,0,158.9,71.283,158.9,158.9a158.168,158.168,0,0,1-27.212,88.954c-70.992-76.363-192.257-76.5-263.378,0a158.167,158.167,0,0,1-27.212-88.954c0-87.618,71.283-158.9,158.9-158.9ZM61.461,285.811c63.12-70.8,173.963-70.783,237.063,0A158.749,158.749,0,0,1,61.461,285.811Zm0,0" transform="translate(0)" fill="#426a5a"/>
      <path id="Path_231" data-name="Path 231" d="M245,245.34a79.093,79.093,0,0,0,79-79V140A79,79,0,1,0,166,140v26.334A79.094,79.094,0,0,0,245,245.34ZM192.334,140a52.669,52.669,0,1,1,105.337,0v26.334a52.669,52.669,0,1,1-105.337,0Zm0,0" transform="translate(-65.009 -7.454)" fill="#426a5a"/>
    </g>
  </g>
</svg>
