<?xml version="1.0" encoding="UTF-8"?>
<!DOCTYPE svg PUBLIC "-//W3C//DTD SVG 1.1//EN" "http://www.w3.org/Graphics/SVG/1.1/DTD/svg11.dtd">
<!-- Creator: CorelDRAW X7 -->
<svg xmlns="http://www.w3.org/2000/svg" xml:space="preserve" width="75.6918mm" height="75.6918mm" version="1.1" style="shape-rendering:geometricPrecision; text-rendering:geometricPrecision; image-rendering:optimizeQuality; fill-rule:evenodd; clip-rule:evenodd"
viewBox="0 0 3166 3166"
 xmlns:xlink="http://www.w3.org/1999/xlink">
 <defs>
  <style type="text/css">
   <![CDATA[
    .fil0 {fill:#FEFEFE}
    .fil4 {fill:#46715E}
    .fil2 {fill:#FEFEFE;fill-rule:nonzero}
    .fil1 {fill:#EB6F69;fill-rule:nonzero}
    .fil3 {fill:#46715E;fill-rule:nonzero}
   ]]>
  </style>
 </defs>
 <g id="Layer_x0020_1">
  <metadata id="CorelCorpID_0Corel-Layer"/>
  <circle class="fil0" cx="1583" cy="1583" r="1583"/>
  <path class="fil1" d="M1652 1617l-374 0 16 -196c3,-39 26,-69 53,-69l487 0c0,146 -81,265 -182,265zm583 614l-13 -123 -10 -91c-26,-152 -206,-210 -352,-262 102,-25 302,-162 291,-302l-19 -171c-9,-89 -85,-157 -175,-157l-802 0c-90,0 -166,68 -175,157l-61 564c2,1 4,3 6,4 19,-18 38,-29 56,-32 0,-14 1,-45 -6,-58 -13,-23 -33,-29 -27,-63 16,-83 150,-33 98,42 -12,17 -12,36 -8,58 1,10 5,15 10,19 48,13 71,46 79,59 17,-23 75,-123 198,-114 67,5 140,55 154,140 1,6 2,12 2,18l216 0c86,0 156,90 156,202l0 60 -469 0c7,82 -22,191 -47,246l723 0c104,0 186,-91 175,-196z"/>
  <path class="fil2" d="M1422 1919l-152 0 -12 125c126,-6 170,-68 164,-125z"/>
  <path class="fil2" d="M1285 2101c-11,1 -21,2 -32,2l-1 5c0,9 1,18 4,27 14,-4 27,-7 41,-10 -4,-9 -9,-17 -12,-24z"/>
  <path class="fil3" d="M769 2143c16,-55 63,-73 126,-75l6 -59c-52,-2 -106,6 -152,51 -106,106 -2,317 154,284 -11,-17 -19,-36 -23,-56 -72,3 -133,-71 -111,-145z"/>
  <path class="fil3" d="M1319 2458c5,-5 11,-16 18,-31l-164 0c59,20 118,32 146,31z"/>
  <path class="fil3" d="M851 1767c-22,-20 -71,-12 -85,22 -14,34 10,73 43,77 27,4 21,-10 46,7 11,7 28,18 38,28 -4,23 -7,36 0,69 3,1 8,1 12,2l14 -126c-57,-31 -44,-57 -68,-79z"/>
  <path class="fil3" d="M1143 2353c-18,-7 -40,-19 -51,-33 18,-62 152,-139 230,-135l0 1c1,1 1,3 2,4 4,15 4,44 1,55 -76,18 -134,49 -182,108zm163 -43c8,24 -19,78 -25,81 -1,0 -60,-6 -76,-24l101 -57zm78 -129l-65 0c-30,0 -55,-20 -63,-46 -31,9 -63,21 -99,43 -59,34 -122,94 -146,145 21,43 92,80 162,104l164 0c25,-55 54,-164 47,-246z"/>
  <path class="fil3" d="M1253 2103l5 -59c-19,1 -40,1 -64,-1 -70,-6 -135,-21 -213,-27 -24,-2 -52,-6 -80,-7l-6 59c100,-2 239,38 358,35z"/>
  <path class="fil3" d="M1076 2132c-17,-9 -35,-9 -50,-8 -15,33 -15,55 -40,94 -19,29 -52,62 -95,69 -4,0 -7,0 -11,1 4,20 12,39 23,56 17,-4 36,-11 54,-21 71,-40 130,-150 119,-191z"/>
  <path class="fil3" d="M944 1968c3,-12 -4,-102 87,-94 58,5 81,69 108,123 21,-21 50,-158 152,-176 72,-13 126,40 131,98l59 0c0,-6 -1,-12 -2,-18 -14,-85 -87,-135 -154,-140 -123,-9 -181,91 -198,114 -8,-13 -31,-46 -79,-59 -5,-4 -9,-9 -10,-19 -4,-22 -4,-41 8,-58 52,-75 -82,-125 -98,-42 -6,34 14,40 27,63 7,13 6,44 6,58 -18,3 -37,14 -56,32 -2,-1 -4,-3 -6,-4l-14 126c13,1 28,1 39,-4z"/>
  <path class="fil3" d="M1258 2044l-5 59c11,0 21,-1 32,-2 3,7 8,15 12,24 -14,3 -27,6 -41,10 8,26 33,46 63,46l65 0c-2,-18 -5,-35 -11,-50l0 0 0 -1c-2,-4 -4,-8 -6,-11 -4,-9 -10,-22 -17,-31 8,-3 15,-6 22,-9 76,-36 113,-94 109,-160l-59 0c6,57 -38,119 -164,125z"/>
  <path class="fil4" d="M1271 972l0 259c0,20 16,34 34,37l12 0c18,-3 33,-18 33,-52 0,-57 -3,-229 3,-264 16,-87 98,-164 188,-164 67,0 125,-1 177,52 33,32 55,62 64,112 6,34 3,205 3,261 0,31 7,55 42,55 21,0 37,-16 37,-37l0 -259c0,-47 -25,-112 -51,-145 -32,-44 -58,-66 -108,-91 -30,-15 -68,-25 -107,-28l-61 0c-39,3 -77,13 -107,28 -63,31 -101,69 -132,132 -12,24 -27,68 -27,104l0 0z"/>
 </g>
</svg>
