<svg xmlns="http://www.w3.org/2000/svg" width="151.293" height="52" viewBox="0 0 151.293 52">
  <g id="Group_353" data-name="Group 353" transform="translate(-1370.336 -350)">
    <g id="Group_29" data-name="Group 29">
      <path id="Path_90" data-name="Path 90" d="M1398.431,376.994h-11.114l.48-5.826c.1-1.161.778-2.036,1.586-2.036h14.483c0,4.342-2.434,7.862-5.435,7.862Zm17.336,18.269-.394-3.659-.294-2.722c-.756-4.5-6.122-6.235-10.443-7.783,3.017-.731,8.974-4.8,8.627-8.975l-.539-5.061a5.241,5.241,0,0,0-5.211-4.679H1383.67a5.243,5.243,0,0,0-5.212,4.679l-1.065,9.871a3.023,3.023,0,0,1,.566-.264,3.39,3.39,0,0,1,2.1-.02,3.109,3.109,0,0,1,1.695,4.9.221.221,0,0,0-.025.105,5.449,5.449,0,0,1,.993.569,8.1,8.1,0,0,1,.851-.823,7.2,7.2,0,0,1,5.259-1.712,6.658,6.658,0,0,1,6.058,5.495,6.764,6.764,0,0,1,.077.679c0,.036.005.071.006.106h4.806c2.567,0,4.647,2.693,4.647,6.014v1.775h-12.343a18.462,18.462,0,0,1-1.255,7.307h19.727a5.241,5.241,0,0,0,5.211-5.8Z" fill="#f9f9f9"/>
      <path id="Path_91" data-name="Path 91" d="M1418.48,373.848c0-2.182,1.16-3.485,3.088-3.485h9.566a2.623,2.623,0,0,1,0,5.177h-6.763v4.01h6.477c1.175,0,1.974.964,1.974,2.368s-.8,2.335-1.974,2.335h-6.477v4.027h6.673a2.607,2.607,0,0,1-.014,5.177h-9.462c-1.928,0-3.088-1.286-3.088-3.486V373.848Z" fill="#f9f9f9"/>
      <path id="Path_92" data-name="Path 92" d="M1436.207,386.046a3.71,3.71,0,0,1,2.411,1.067,6.644,6.644,0,0,0,3.992,1.708c1.853,0,2.787-.66,2.787-1.929,0-1.032-.828-1.624-2.923-2.1l-2.591-.576c-3.872-.846-5.754-3.045-5.754-6.767,0-4.619,3.163-7.495,8.224-7.495a9.48,9.48,0,0,1,6.855,2.471,4.113,4.113,0,0,1,1.266,2.842,2.217,2.217,0,0,1-2.276,2.368,3.586,3.586,0,0,1-2.214-1,4.991,4.991,0,0,0-3.57-1.54c-1.461,0-2.38.694-2.38,1.794,0,1.083.813,1.844,2.711,2.216l2.652.524q5.806,1.168,5.814,6.548c0,4.72-3.494,7.782-8.9,7.782-3.013,0-5.679-.981-7.14-2.555a4.046,4.046,0,0,1-1.221-2.689,2.452,2.452,0,0,1,2.26-2.674Z" fill="#f9f9f9"/>
      <path id="Path_93" data-name="Path 93" d="M1456.223,390.141v-14.4h-3.42a2.725,2.725,0,0,1,0-5.38h12.836a2.731,2.731,0,0,1,0,5.38h-3.465v14.4c0,2.165-1.131,3.485-2.968,3.485-1.868,0-2.983-1.3-2.983-3.485Z" fill="#f9f9f9"/>
      <path id="Path_94" data-name="Path 94" d="M1488.691,398.9c.774,0,1.081-.234,1.081-.819a.753.753,0,0,0-.826-.823H1488V398.9ZM1487.6,400.6v-3.335c0-.257.111-.363.39-.363h.967a1.183,1.183,0,1,1,0,2.364H1488V400.6a.2.2,0,0,1-.2.22.194.194,0,0,1-.2-.22Z" fill="#f9f9f9"/>
      <path id="Path_95" data-name="Path 95" d="M1492.236,400.817a.2.2,0,0,1-.2-.22V398a.2.2,0,0,1,.2-.219.193.193,0,0,1,.193.219v.2h.011a.765.765,0,0,1,.705-.446.405.405,0,0,1,.2.043.158.158,0,0,1,.092.149.149.149,0,0,1-.092.154.512.512,0,0,1-.205.028c-.445,0-.713.254-.713.793V400.6c0,.137-.071.22-.193.22Z" fill="#f9f9f9"/>
      <path id="Path_96" data-name="Path 96" d="M1495.413,399.106v.385c0,.622.342.995.856.995s.855-.371.855-.995v-.385c0-.61-.342-.995-.855-.995s-.856.382-.856.995Zm2.108-.043v.471a1.254,1.254,0,1,1-2.506,0v-.471a1.254,1.254,0,1,1,2.506,0Z" fill="#f9f9f9"/>
      <path id="Path_97" data-name="Path 97" d="M1499.843,400.817a.193.193,0,0,1-.2-.22v-2.449h-.3a.167.167,0,0,1-.187-.171.164.164,0,0,1,.187-.168h.3v-.319a.714.714,0,0,1,.81-.816.606.606,0,0,1,.328.075.174.174,0,0,1,.077.142.145.145,0,0,1-.155.154c-.1,0-.153-.023-.287-.023-.257,0-.38.137-.38.445v.342h.5a.171.171,0,1,1,0,.339h-.5V400.6c0,.137-.073.22-.2.22Z" fill="#f9f9f9"/>
      <path id="Path_98" data-name="Path 98" d="M1502.787,400.817a.194.194,0,0,1-.2-.22V398a.194.194,0,0,1,.2-.219.192.192,0,0,1,.193.219v2.6a.193.193,0,0,1-.2.22Zm0-4.038a.268.268,0,0,1,.279.272.275.275,0,1,1-.55,0,.268.268,0,0,1,.271-.272Z" fill="#f9f9f9"/>
      <path id="Path_99" data-name="Path 99" d="M1505.264,398.148h-.272a.167.167,0,0,1-.188-.168.165.165,0,0,1,.188-.171h.272v-.536a.2.2,0,1,1,.393,0v.536h.487a.17.17,0,1,1,0,.339h-.487v1.907c0,.334.1.431.4.431.1,0,.155-.009.206-.009a.146.146,0,0,1,.159.151.158.158,0,0,1-.108.157.756.756,0,0,1-.322.049c-.532,0-.732-.2-.732-.8v-1.885Z" fill="#f9f9f9"/>
      <path id="Path_100" data-name="Path 100" d="M1509.054,400.495a.75.75,0,0,0,.8-.725V399.4h-.821c-.407,0-.636.186-.636.52a.587.587,0,0,0,.659.573Zm-.094.345a.893.893,0,0,1-.972-.91c0-.539.388-.87,1.035-.87h.829v-.327c0-.414-.248-.63-.707-.63a.752.752,0,0,0-.65.336.217.217,0,0,1-.191.1.149.149,0,0,1-.156-.162.6.6,0,0,1,.345-.46,1.29,1.29,0,0,1,.675-.16c.692,0,1.078.343,1.078.964v1.873c0,.137-.071.22-.191.22s-.192-.083-.192-.22v-.227h-.017a.985.985,0,0,1-.886.473Z" fill="#f9f9f9"/>
      <path id="Path_101" data-name="Path 101" d="M1513.564,400.486c.493,0,.81-.354.81-1v-.356c0-.642-.314-1.018-.821-1.018a.849.849,0,0,0-.853.949v.525a.852.852,0,0,0,.864.9Zm-.864-.168h-.02v.276c0,.14-.068.22-.188.22s-.186-.08-.186-.22v-3.7a.193.193,0,0,1,.195-.22.2.2,0,0,1,.2.22v1.411h.02a.9.9,0,0,1,.907-.551,1.131,1.131,0,0,1,1.146,1.264v.552a1.136,1.136,0,0,1-1.16,1.267.946.946,0,0,1-.913-.522Z" fill="#f9f9f9"/>
      <path id="Path_102" data-name="Path 102" d="M1516.775,400.6v-3.7a.2.2,0,1,1,.392,0v3.7a.2.2,0,1,1-.392,0Z" fill="#f9f9f9"/>
      <path id="Path_103" data-name="Path 103" d="M1519.194,399.549a1.193,1.193,0,0,0,1.283,1.291,1.321,1.321,0,0,0,.942-.324.442.442,0,0,0,.137-.281.192.192,0,0,0-.188-.2c-.081,0-.115.022-.267.163a.825.825,0,0,1-.6.227.765.765,0,0,1-.816-.832v-.155h1.681c.209,0,.264-.09.264-.41a1.17,1.17,0,0,0-1.2-1.24,1.213,1.213,0,0,0-1.235,1.3v.467Zm.49-.509v-.009a.754.754,0,0,1,.75-.832c.436,0,.714.324.714.832v.009Z" fill="#f9f9f9"/>
    </g>
    <g id="Group_30" data-name="Group 30">
      <path id="Path_104" data-name="Path 104" d="M1419.9,399.788c.1,0,.169.054.254.2a1.011,1.011,0,0,0,.973.525c.569,0,.929-.271.929-.7,0-.363-.217-.582-.71-.716l-.627-.171c-.613-.168-.919-.5-.919-1.01,0-.655.522-1.091,1.3-1.091a1.488,1.488,0,0,1,.953.305.794.794,0,0,1,.316.573.17.17,0,0,1-.176.186.189.189,0,0,1-.2-.143.873.873,0,0,0-.886-.559c-.542,0-.889.277-.889.7,0,.325.2.542.61.653l.612.171c.716.2,1.018.51,1.018,1.055,0,.684-.527,1.112-1.36,1.112a1.607,1.607,0,0,1-1.034-.317.829.829,0,0,1-.345-.573.179.179,0,0,1,.179-.2Z" fill="#f9f9f9"/>
      <path id="Path_105" data-name="Path 105" d="M1428.139,400.817a.193.193,0,0,1-.2-.22v-1.8a.623.623,0,0,0-.675-.684.714.714,0,0,0-.725.747V400.6a.2.2,0,0,1-.2.22c-.123,0-.194-.083-.194-.22v-1.781a.65.65,0,0,0-.69-.705.7.7,0,0,0-.712.756v1.73a.2.2,0,1,1-.394,0V398a.2.2,0,0,1,.2-.222c.123,0,.195.085.195.222v.285h.022a.8.8,0,0,1,.812-.531.82.82,0,0,1,.845.58h.019a.927.927,0,0,1,.909-.58.878.878,0,0,1,.981.939v1.9c0,.137-.073.22-.2.22Z" fill="#f9f9f9"/>
      <path id="Path_106" data-name="Path 106" d="M1431.3,400.495a.749.749,0,0,0,.8-.725V399.4h-.82c-.408,0-.636.186-.636.52a.586.586,0,0,0,.658.573Zm-.094.345a.894.894,0,0,1-.972-.91c0-.539.388-.87,1.035-.87h.829v-.327c0-.414-.247-.63-.707-.63a.749.749,0,0,0-.649.336.218.218,0,0,1-.191.1.15.15,0,0,1-.157-.162.6.6,0,0,1,.345-.46,1.291,1.291,0,0,1,.675-.16c.693,0,1.078.343,1.078.964v1.873c0,.137-.071.22-.191.22s-.191-.083-.191-.22v-.227h-.017a.986.986,0,0,1-.887.473Z" fill="#f9f9f9"/>
      <path id="Path_107" data-name="Path 107" d="M1434.74,400.817a.2.2,0,0,1-.2-.22V398a.2.2,0,0,1,.2-.219.193.193,0,0,1,.194.219v.2h.011a.765.765,0,0,1,.705-.446.408.408,0,0,1,.2.043.157.157,0,0,1,.091.149.149.149,0,0,1-.091.154.515.515,0,0,1-.205.028c-.445,0-.713.254-.713.793V400.6c0,.137-.072.22-.194.22Z" fill="#f9f9f9"/>
      <path id="Path_108" data-name="Path 108" d="M1438,398.148h-.27a.167.167,0,0,1-.188-.168.165.165,0,0,1,.188-.171h.27v-.536a.2.2,0,1,1,.394,0v.536h.487a.166.166,0,0,1,.189.171.168.168,0,0,1-.189.168h-.487v1.907c0,.334.1.431.4.431.1,0,.155-.009.206-.009a.146.146,0,0,1,.159.151.159.159,0,0,1-.108.157.756.756,0,0,1-.322.049c-.533,0-.733-.2-.733-.8v-1.885Z" fill="#f9f9f9"/>
      <path id="Path_109" data-name="Path 109" d="M1441.065,400.486a.207.207,0,0,1,.2-.166.2.2,0,0,1,.186.266l-.337.827a.151.151,0,0,1-.144.1.148.148,0,0,1-.144-.191l.235-.838Z" fill="#f9f9f9"/>
      <path id="Path_110" data-name="Path 110" d="M1383.328,398.869a3.647,3.647,0,0,1-1.536-.976c.532-1.826,4.527-4.139,6.852-3.993h0a.533.533,0,0,0,.049.138,4.17,4.17,0,0,1,.031,1.641,9.05,9.05,0,0,0-5.4,3.189Zm-2-6.548a2.725,2.725,0,0,0-1.5-.25,13.581,13.581,0,0,1-1.184,2.783,4.392,4.392,0,0,1-2.822,2.054,2.791,2.791,0,0,1-.326.027h0a3.4,3.4,0,0,1-3.308-4.3c.477-1.638,1.877-2.168,3.743-2.21,2.97-.068,7.125,1.1,10.644,1.026.321-.007.638-.021.947-.051.1.187.237.434.375.7-.417.081-.828.177-1.241.3a12.369,12.369,0,0,0-2.938,1.274,11.759,11.759,0,0,0-4.343,4.311c.632,1.291,2.737,2.37,4.819,3.084h0a15.559,15.559,0,0,0,4.346.933,3.561,3.561,0,0,0,.541-.933h0a17.055,17.055,0,0,0,1.383-7.307,5.483,5.483,0,0,0-.319-1.478h0l-.011-.025a3.463,3.463,0,0,0-.152-.339,6.9,6.9,0,0,0-.513-.92,6.12,6.12,0,0,0,.639-.255c2.271-1.076,3.38-2.788,3.249-4.771a4.838,4.838,0,0,0-.058-.516,5.053,5.053,0,0,0-4.589-4.161c-3.639-.262-5.364,2.708-5.876,3.394a3.862,3.862,0,0,0-2.36-1.77.854.854,0,0,1-.294-.556,2.2,2.2,0,0,1,.244-1.722c1.551-2.248-2.426-3.734-2.907-1.245-.19.991.4,1.166.792,1.862a4.819,4.819,0,0,1,.186,1.711,3.61,3.61,0,0,0-1.653.957c-.072-.035-.134-.07-.2-.106-1.7-.926-1.291-1.688-2.021-2.36a1.657,1.657,0,1,0-1.227,2.962c.784.1.6-.323,1.36.185a8.833,8.833,0,0,1,1.136.832,4.034,4.034,0,0,0-.021,2.06c.114.021.239.04.37.055a2.346,2.346,0,0,0,1.158-.1c.08-.372-.112-3.047,2.594-2.81,1.7.147,2.4,2.054,3.207,3.656.628-.622,1.49-4.692,4.509-5.233a3.3,3.3,0,0,1,3.908,2.906c.158,1.707-1.152,3.547-4.883,3.729a14.278,14.278,0,0,1-1.9-.035c-2.1-.175-4.027-.61-6.336-.808-.726-.063-1.54-.176-2.381-.2a5.7,5.7,0,0,0-4.51,1.52c-3.149,3.148-.062,9.426,4.569,8.427h0a5.774,5.774,0,0,0,1.6-.618c2.1-1.178,3.863-4.461,3.541-5.66Zm-5.677,5.163a4.838,4.838,0,0,0,.186.473,4.838,4.838,0,0,1-.186-.473Zm12.519.131a3.839,3.839,0,0,1-.744,2.389c-.031.014-1.794-.169-2.27-.722l3.014-1.667Z" fill="#f9f9f9"/>
      <path id="Path_111" data-name="Path 111" d="M1473.167,383.238c0,3.4,1.28,5.363,3.48,5.363s3.465-1.962,3.465-5.363V380.7c0-3.4-1.265-5.38-3.465-5.38s-3.48,1.98-3.48,5.38v2.538Zm-5.95-2.487c0-6.751,3.449-10.794,9.43-10.794s9.415,4.06,9.415,10.794v2.5c0,6.7-3.434,10.709-9.415,10.709s-9.43-4.026-9.43-10.709v-2.5Z" fill="#f9f9f9"/>
      <path id="Path_112" data-name="Path 112" d="M1496.3,381.14a2.571,2.571,0,0,0,2.712-2.859,2.5,2.5,0,0,0-2.757-2.724h-2.712v5.583Zm-5.694,12.486c-1.929,0-3.029-1.3-3.029-3.587V375.016c0-3.113,1.266-4.653,3.857-4.653h5.649c4.836,0,7.789,2.758,7.789,7.275a6.943,6.943,0,0,1-3.359,6.344l2.335,4.467a4.306,4.306,0,0,1,.5,2.013,2.923,2.923,0,0,1-2.967,3.147c-1.582,0-2.411-.694-3.374-2.809l-2.366-5.143h-2.094v4.382c0,2.3-1.039,3.587-2.937,3.587Z" fill="#f9f9f9"/>
      <path id="Path_113" data-name="Path 113" d="M1506.239,373.848c0-2.182,1.16-3.485,3.088-3.485h9.566a2.623,2.623,0,0,1,0,5.177h-6.764v4.01h6.478c1.175,0,1.974.964,1.974,2.368s-.8,2.335-1.974,2.335h-6.478v4.027h6.674a2.607,2.607,0,0,1-.014,5.177h-9.462c-1.928,0-3.088-1.286-3.088-3.486V373.848Z" fill="#f9f9f9"/>
      <path id="Path_114" data-name="Path 114" d="M1445.671,399.788c.1,0,.168.054.253.2a1.011,1.011,0,0,0,.973.525c.569,0,.929-.271.929-.7,0-.363-.217-.582-.71-.716l-.627-.171c-.613-.168-.918-.5-.918-1.01,0-.655.522-1.091,1.3-1.091a1.49,1.49,0,0,1,.953.305.8.8,0,0,1,.315.573.17.17,0,0,1-.176.186.188.188,0,0,1-.2-.143.874.874,0,0,0-.887-.559c-.541,0-.889.277-.889.7,0,.325.2.542.61.653l.613.171c.716.2,1.018.51,1.018,1.055,0,.684-.528,1.112-1.36,1.112a1.611,1.611,0,0,1-1.035-.317.829.829,0,0,1-.345-.573.179.179,0,0,1,.18-.2Z" fill="#f9f9f9"/>
      <path id="Path_115" data-name="Path 115" d="M1450.346,400.817a.194.194,0,0,1-.2-.22V398a.194.194,0,0,1,.2-.219c.111,0,.193.074.193.219v2.6a.193.193,0,0,1-.2.22Zm0-4.038a.269.269,0,0,1,.28.272.276.276,0,1,1-.551,0,.268.268,0,0,1,.271-.272Z" fill="#f9f9f9"/>
      <path id="Path_116" data-name="Path 116" d="M1456.437,400.817a.193.193,0,0,1-.2-.22v-1.8a.623.623,0,0,0-.675-.684.714.714,0,0,0-.725.747V400.6a.194.194,0,0,1-.2.22c-.123,0-.194-.083-.194-.22v-1.781a.65.65,0,0,0-.69-.705.7.7,0,0,0-.713.756v1.73a.2.2,0,1,1-.393,0V398a.2.2,0,0,1,.2-.222c.123,0,.194.085.194.222v.285h.023a.8.8,0,0,1,.812-.531.819.819,0,0,1,.845.58h.02a.926.926,0,0,1,.909-.58.878.878,0,0,1,.981.939v1.9a.193.193,0,0,1-.2.22Z" fill="#f9f9f9"/>
      <path id="Path_117" data-name="Path 117" d="M1459.96,400.486c.5,0,.818-.354.818-1.006v-.365c0-.645-.313-1-.83-1a.832.832,0,0,0-.841.935v.551a.834.834,0,0,0,.853.889Zm-1.053,1.374c-.122,0-.193-.085-.193-.219V398c0-.14.068-.222.186-.222s.187.082.187.222v.305h.02a.942.942,0,0,1,.921-.551,1.13,1.13,0,0,1,1.143,1.264v.552a1.136,1.136,0,0,1-1.16,1.267.9.9,0,0,1-.884-.522h-.02v1.323a.2.2,0,0,1-.2.219Z" fill="#f9f9f9"/>
      <path id="Path_118" data-name="Path 118" d="M1463.155,400.6v-3.7a.2.2,0,1,1,.394,0v3.7a.2.2,0,1,1-.394,0Z" fill="#f9f9f9"/>
      <path id="Path_119" data-name="Path 119" d="M1467.536,399.049v-.009c0-.575-.308-.935-.79-.935a.833.833,0,0,0-.818.935v.009Zm-2,.028a1.2,1.2,0,0,1,1.214-1.32,1.173,1.173,0,0,1,1.186,1.278c0,.274-.051.356-.228.356h-1.776v.163a.836.836,0,0,0,.878.932.87.87,0,0,0,.664-.285c.129-.128.16-.148.228-.148a.164.164,0,0,1,.16.173.493.493,0,0,1-.16.3,1.272,1.272,0,0,1-.909.311,1.183,1.183,0,0,1-1.257-1.309v-.454Z" fill="#f9f9f9"/>
      <path id="Path_120" data-name="Path 120" d="M1473.121,400.495a.75.75,0,0,0,.8-.725V399.4h-.821c-.408,0-.636.186-.636.52a.586.586,0,0,0,.658.573Zm-.093.345a.894.894,0,0,1-.973-.91c0-.539.389-.87,1.036-.87h.829v-.327c0-.414-.248-.63-.707-.63a.752.752,0,0,0-.65.336.217.217,0,0,1-.192.1.15.15,0,0,1-.156-.162.6.6,0,0,1,.345-.46,1.291,1.291,0,0,1,.676-.16c.693,0,1.077.343,1.077.964v1.873c0,.137-.071.22-.191.22s-.191-.083-.191-.22v-.227h-.016a.988.988,0,0,1-.887.473Z" fill="#f9f9f9"/>
      <path id="Path_121" data-name="Path 121" d="M1478.524,400.817a.193.193,0,0,1-.2-.22v-1.722a.669.669,0,0,0-.709-.764.863.863,0,0,0-.859.981v1.5a.2.2,0,1,1-.393,0V398a.2.2,0,0,1,.2-.222c.119,0,.193.085.193.222v.362h.02a.9.9,0,0,1,.927-.608.926.926,0,0,1,1.018,1V400.6a.2.2,0,0,1-.2.22Z" fill="#f9f9f9"/>
      <path id="Path_122" data-name="Path 122" d="M1481.871,400.486a.843.843,0,0,0,.85-.935V399a.848.848,0,0,0-.864-.89c-.488,0-.81.354-.81.981v.413c0,.622.319.981.824.981Zm-.074.354a1.122,1.122,0,0,1-1.148-1.232v-.616a1.131,1.131,0,0,1,1.159-1.235.907.907,0,0,1,.892.523h.021V396.9a.2.2,0,1,1,.393,0v3.7c0,.14-.068.22-.188.22s-.186-.08-.186-.22v-.307h-.022a.925.925,0,0,1-.921.553Z" fill="#f9f9f9"/>
    </g>
    <path id="Path_123" data-name="Path 123" d="M1387.113,357.837v7.689a1.155,1.155,0,0,0,1.007,1.109h.376c.52-.086.987-.547.981-1.551-.01-1.684-.1-6.812.08-7.83a6.008,6.008,0,0,1,5.6-4.889c1.964,0,3.708-.031,5.261,1.534a5.891,5.891,0,0,1,1.892,3.355c.178,1.006.092,6.083.081,7.756-.006.906.212,1.625,1.256,1.625a1.084,1.084,0,0,0,1.107-1.109v-7.689a8.45,8.45,0,0,0-1.518-4.32,8.06,8.06,0,0,0-3.206-2.7,8.712,8.712,0,0,0-3.194-.813h-1.807a8.711,8.711,0,0,0-3.194.813,8.116,8.116,0,0,0-3.912,3.919,7.809,7.809,0,0,0-.812,3.105Z" fill="#f9f9f9" fill-rule="evenodd"/>
  </g>
</svg>
