<?xml version="1.0" encoding="UTF-8"?>
<!DOCTYPE svg PUBLIC "-//W3C//DTD SVG 1.1//EN" "http://www.w3.org/Graphics/SVG/1.1/DTD/svg11.dtd">
<!-- Creator: CorelDRAW X7 -->
<svg xmlns="http://www.w3.org/2000/svg" xml:space="preserve" width="42.3333mm" height="42.3333mm" version="1.1" style="shape-rendering:geometricPrecision; text-rendering:geometricPrecision; image-rendering:optimizeQuality; fill-rule:evenodd; clip-rule:evenodd"
viewBox="0 0 612 612"
 xmlns:xlink="http://www.w3.org/1999/xlink">
 <defs>
  <style type="text/css">
   <![CDATA[
    .fil0 {fill:none}
    .fil1 {fill:#252E48}
    .fil2 {fill:#252E48}
    .fil3 {fill:#323D5E}
    .fil6 {fill:#D1901F}
    .fil4 {fill:#D1901F}
    .fil5 {fill:#EFA82D}
   ]]>
  </style>
 </defs>
 <g id="Layer_x0020_1">
  <metadata id="CorelCorpID_0Corel-Layer"/>
  <rect class="fil0" width="612" height="612"/>
  <g id="_604914792">
   <path class="fil1" d="M275 500c13,-4 46,-2 59,1 -3,13 -29,30 -32,30 0,-1 -25,-18 -27,-31zm90 -236c0,-8 -1,-29 -19,-47 -2,-3 -2,-6 0,-11 4,-10 9,-18 18,-23 43,-20 -4,-76 -32,-43 -11,13 -4,20 -4,34 0,8 -9,21 -12,27 -9,-3 -20,-3 -33,0 -20,-31 -6,-39 -12,-56 -4,-14 -28,-23 -43,-12 -15,12 -14,35 0,46 10,8 11,0 18,14 3,6 8,16 10,22 -8,9 -13,14 -18,31 6,5 15,11 23,12 4,-5 24,-46 63,-19 24,16 18,51 16,81 15,-3 62,-56 112,-39 75,28 38,169 -99,74 -30,-21 -55,-44 -88,-67 -29,-20 -65,-52 -113,-39 -82,22 -83,168 25,169 41,0 95,-33 101,-54 -6,-8 -14,-13 -20,-16 -15,10 -21,20 -42,31 -16,8 -39,14 -59,6 -37,-14 -48,-66 -18,-95 58,-55 147,72 239,114 -1,3 -1,8 -1,13 -22,-7 -44,-12 -75,-12 -35,0 -78,10 -102,27 -3,45 75,123 102,138 19,-6 98,-76 107,-131l0 0 0 0c0,-2 1,-5 1,-7 0,-5 0,-12 0,-18 4,1 8,2 12,2 46,4 79,-15 92,-51 16,-41 -4,-82 -32,-101 -52,-35 -103,-6 -117,0zm8 186c-1,1 -1,2 -1,3 -2,8 -9,20 -13,24 -38,-11 -72,-12 -108,1 -6,-7 -13,-18 -14,-27 23,-23 102,-23 136,-1l0 0z"/>
   <path class="fil2" d="M300 218l0 -175c0,0 189,70 186,72 -3,2 -100,21 -100,21l28 95c0,0 -26,1 -50,14 -25,8 -38,-27 -64,-27z"/>
   <path class="fil2" d="M300 223l0 -180c0,0 -189,70 -185,72 3,2 99,21 99,21l-19 89c-1,2 27,8 49,25 24,8 31,-27 56,-27z"/>
   <rect class="fil3" x="143" y="119" width="2.38829" height="66.8734"/>
   <rect class="fil4" x="142" y="186" width="5.12657" height="2.89509"/>
   <rect class="fil5" x="141" y="188" width="6.92055" height="37.2596"/>
   <rect class="fil6" x="140" y="188" width="8.96602" height="2.89509"/>
  </g>
 </g>
</svg>
