<?xml version="1.0" encoding="UTF-8"?>
<!DOCTYPE svg PUBLIC "-//W3C//DTD SVG 1.1//EN" "http://www.w3.org/Graphics/SVG/1.1/DTD/svg11.dtd">
<!-- Creator: CorelDRAW X7 -->
<svg xmlns="http://www.w3.org/2000/svg" xml:space="preserve" width="153.102mm" height="36.4249mm" version="1.1" style="shape-rendering:geometricPrecision; text-rendering:geometricPrecision; image-rendering:optimizeQuality; fill-rule:evenodd; clip-rule:evenodd"
viewBox="0 0 6663 1585"
 xmlns:xlink="http://www.w3.org/1999/xlink">
 <defs>
  <style type="text/css">
   <![CDATA[
    .fil0 {fill:#426A5A}
    .fil3 {fill:#426A5A}
    .fil1 {fill:#D1901F}
    .fil2 {fill:#EFA82D}
   ]]>
  </style>
 </defs>
 <g id="Layer_x0020_1">
  <metadata id="CorelCorpID_0Corel-Layer"/>
  <g id="_548345992">
   <path class="fil0" d="M547 1376c40,-12 141,-8 178,4 -9,36 -85,88 -95,87 -2,0 -76,-54 -83,-91zm273 -711c0,-24 -5,-86 -60,-140 -3,-9 -3,-19 2,-33 11,-31 26,-57 55,-70 127,-61 -12,-230 -98,-131 -34,40 -12,63 -13,104 0,23 -25,62 -35,81 -28,-9 -61,-9 -99,0 -61,-93 -19,-117 -35,-167 -14,-43 -85,-70 -130,-36 -45,35 -43,105 -2,136 33,25 36,1 56,44 9,18 24,46 30,66 -24,27 -38,42 -54,92 18,15 44,34 69,37 13,-15 74,-139 188,-59 73,51 55,154 49,246 44,-11 188,-171 337,-117 225,81 114,507 -299,221 -89,-62 -164,-131 -262,-200 -87,-61 -195,-158 -342,-119 -246,66 -249,504 75,508 124,2 287,-99 304,-161 -17,-26 -40,-40 -61,-50 -44,32 -62,62 -124,94 -48,24 -117,43 -179,19 -111,-43 -142,-199 -52,-285 174,-167 442,215 716,340 0,11 0,26 -1,41 -67,-22 -133,-38 -227,-37 -105,0 -235,31 -305,80 -10,137 225,372 306,416 57,-16 296,-229 322,-393l0 0 0 -1c1,-6 2,-13 2,-19 1,-16 2,-37 1,-54 11,2 23,4 35,5 140,11 239,-46 279,-154 46,-124 -12,-246 -98,-304 -156,-106 -309,-18 -350,0zm22 561c-1,3 -2,5 -2,7 -6,24 -28,62 -41,74 -113,-35 -214,-38 -323,4 -20,-23 -39,-57 -43,-84 71,-67 309,-68 409,-1l0 0z"/>
   <path class="fil0" d="M625 542l0 -16c77,0 115,106 190,83 73,-40 150,-43 150,-43l-82 -286c0,0 290,-56 300,-62 10,-6 -542,-212 -558,-218l0 0 -1 0 0 0 0 0c-16,6 -568,212 -558,218 9,6 300,62 300,62l-60 269c0,4 84,22 147,75 75,22 94,-82 172,-82z"/>
   <polygon class="fil0" points="152,430 160,430 160,228 152,228 "/>
   <polygon class="fil1" points="148,438 164,438 164,430 148,430 "/>
   <polygon class="fil2" points="146,549 166,549 166,437 146,437 "/>
   <polygon class="fil1" points="142,446 169,446 169,437 142,437 "/>
  </g>
  <path class="fil3" d="M1507 761l294 0c108,0 204,-59 204,-168 0,-98 -78,-138 -136,-140l0 -8c55,-7 111,-47 111,-127 0,-91 -78,-143 -190,-143l-283 0 0 586zm178 -466l55 0c42,0 65,23 65,54 0,29 -19,56 -64,56l-56 0 0 -110zm0 216l61 0c52,0 76,27 76,64 0,36 -22,66 -76,66l-61 0 0 -130zm805 111l-240 0 0 -91 224 0 0 -125 -224 0 0 -93 240 0 0 -138 -418 0 0 586 418 0 0 -139zm61 -41c0,91 59,190 251,190 172,0 254,-84 254,-198 0,-121 -84,-163 -166,-175l-75 -11c-47,-8 -76,-20 -76,-46 0,-25 19,-46 65,-46 52,0 76,31 77,56l163 0c0,-92 -74,-186 -240,-186 -146,0 -244,70 -244,191 0,109 70,157 167,174l71 13c53,9 82,19 82,50 0,24 -19,46 -74,46 -56,0 -85,-30 -86,-58l-169 0zm861 180l0 -442 149 0 0 -144 -478 0 0 144 149 0 0 442 180 0z"/>
  <path class="fil3" d="M1692 1090c0,-85 31,-130 85,-130 53,0 81,43 81,99l170 0 0 -26c0,-133 -105,-219 -253,-219 -173,0 -268,109 -268,276l0 53c0,168 95,277 268,277 148,0 253,-86 253,-219l0 -26 -170 0c0,56 -28,99 -81,99 -54,0 -85,-45 -85,-129l0 -55zm385 57c0,164 98,273 277,273 180,0 277,-109 277,-273l0 -58c0,-165 -97,-275 -277,-275 -179,0 -277,109 -277,275l0 58zm185 -60c0,-85 35,-130 92,-130 57,0 92,45 92,130l0 61c0,84 -35,129 -92,129 -57,0 -92,-45 -92,-129l0 -61zm603 323l0 -327 9 0 100 216 95 0 99 -216 9 0 0 327 161 0 0 -586 -186 0 -126 261 -6 0 -126 -261 -188 0 0 586 159 0zm732 0l0 -327 8 0 101 216 94 0 100 -216 8 0 0 327 162 0 0 -586 -187 0 -126 261 -6 0 -125 -261 -189 0 0 586 160 0zm746 -586l-181 0 0 383c0,130 99,213 260,213 160,0 259,-83 259,-213l0 -383 -180 0 0 358c0,64 -34,90 -79,90 -46,0 -79,-25 -79,-90l0 -358zm596 586l0 -289 7 0 201 289 134 0 0 -586 -165 0 0 283 -7 0 -200 -283 -135 0 0 586 165 0zm621 0l0 -586 -180 0 0 586 180 0zm382 0l0 -442 149 0 0 -144 -478 0 0 144 149 0 0 442 180 0zm524 0l0 -182 197 -404 -189 0 -92 230 -6 0 -91 -230 -195 0 196 410 0 176 180 0z"/>
 </g>
</svg>
