<svg xmlns="http://www.w3.org/2000/svg" width="500" height="500" viewBox="0 0 500 500">
  <g id="Group_1702" data-name="Group 1702" transform="translate(-2552 -4526)">
    <rect id="Rectangle_696" data-name="Rectangle 696" width="500" height="500" transform="translate(2552 4526)" fill="none"/>
    <g id="Group_1696" data-name="Group 1696" transform="translate(2627.622 4572.068)">
      <g id="money" transform="translate(0)">
        <g id="Group_60" data-name="Group 60" transform="translate(186.023 104.488)">
          <g id="Group_59" data-name="Group 59">
            <path id="Path_243" data-name="Path 243" d="M388.753,280.379V134.557c0-4.529-3.705-7.657-8.233-7.657H348.653c-4.528,0-8.481,3.129-8.481,7.657V266.135a76.879,76.879,0,0,0-15.644,2.058V177.539c0-4.529-3.87-7.823-8.4-7.823H284.264c-4.528,0-8.317,3.211-8.317,7.823V300.47a80.827,80.827,0,0,0-14.985,47.262,81.639,81.639,0,1,0,127.79-67.353ZM356.641,143.368h15.644V271.651a73.374,73.374,0,0,0-15.644-4.281Zm-64.225,42.816H308.06v87.691a83.852,83.852,0,0,0-15.644,9.387Zm106.3,194.731a65.14,65.14,0,1,1-80.939-93.372,7.832,7.832,0,0,0,2.717-1.071,63.9,63.9,0,0,1,22.231-3.952c1.729,0,3.375.082,5.106.247h.082a63.612,63.612,0,0,1,28,8.892A65.118,65.118,0,0,1,398.716,380.915Z" transform="translate(-260.962 -126.9)" fill="#426a5a"/>
          </g>
        </g>
        <g id="Group_62" data-name="Group 62" transform="translate(241.025 268.095)">
          <g id="Group_61" data-name="Group 61">
            <path id="Path_244" data-name="Path 244" d="M354.524,376.156A10.416,10.416,0,1,1,364.816,365.7a8.259,8.259,0,0,0,8.234,8.235,8.346,8.346,0,0,0,8.4-8.235,26.892,26.892,0,0,0-17.044-25.03v-6.834a8.234,8.234,0,1,0-16.467,0v5.928a26.855,26.855,0,0,0-19.268,32.688,26.514,26.514,0,0,0,25.772,20.091,10.333,10.333,0,1,1-10.375,10.292,8.258,8.258,0,0,0-8.234-8.234,8,8,0,0,0-8.069,8.152v.082a26.96,26.96,0,0,0,20.091,25.937v3.7a8.234,8.234,0,1,0,16.467,0v-4.529a26.811,26.811,0,0,0-9.8-51.791Z" transform="translate(-327.761 -325.6)" fill="#426a5a"/>
          </g>
        </g>
        <g id="Group_64" data-name="Group 64" transform="translate(71.738 213.175)">
          <g id="Group_63" data-name="Group 63">
            <path id="Path_245" data-name="Path 245" d="M162.509,258.9H130.4a8.258,8.258,0,0,0-8.234,8.234V396.406a8.258,8.258,0,0,0,8.234,8.234h32.112a8.259,8.259,0,0,0,8.234-8.234V267.134A8.258,8.258,0,0,0,162.509,258.9ZM154.275,389H138.631V275.368h15.645Z" transform="translate(-122.163 -258.9)" fill="#426a5a"/>
          </g>
        </g>
        <g id="Group_66" data-name="Group 66" transform="translate(136.785 194.237)">
          <g id="Group_65" data-name="Group 65">
            <path id="Path_246" data-name="Path 246" d="M241.509,235.9H209.4a8.258,8.258,0,0,0-8.234,8.234V393.167A8.258,8.258,0,0,0,209.4,401.4h32.112a8.258,8.258,0,0,0,8.234-8.234V244.134A8.258,8.258,0,0,0,241.509,235.9Zm-8.234,149.033H217.631V252.368h15.645Z" transform="translate(-201.163 -235.9)" fill="#426a5a"/>
          </g>
        </g>
        <g id="Group_68" data-name="Group 68" transform="translate(6.69 283.986)">
          <g id="Group_67" data-name="Group 67">
            <path id="Path_247" data-name="Path 247" d="M83.509,344.9H51.4a8.258,8.258,0,0,0-8.234,8.234v58.46a8.259,8.259,0,0,0,8.234,8.234H83.509a8.259,8.259,0,0,0,8.234-8.234v-58.46A8.258,8.258,0,0,0,83.509,344.9Zm-8.234,59.284H59.631V361.368H75.275Z" transform="translate(-43.163 -344.9)" fill="#426a5a"/>
          </g>
        </g>
        <g id="Group_70" data-name="Group 70" transform="translate(0)">
          <g id="Group_69" data-name="Group 69">
            <path id="Path_248" data-name="Path 248" d="M347.617,0,291.3.082a8.234,8.234,0,1,0-.165,16.468h.165l36.476-.082-89.338,89.008L207.229,74.517a9.053,9.053,0,0,0-11.692,0L37.446,232.607a8.21,8.21,0,0,0,11.692,11.527L201.465,91.808l31.206,31.453a8.243,8.243,0,0,0,5.846,2.635,8.755,8.755,0,0,0,5.846-2.635l95.019-95.1L339.3,64.8a8.237,8.237,0,1,0,16.468,0l.082-56.484A8.329,8.329,0,0,0,347.617,0Z" transform="translate(-35.038)" fill="#426a5a"/>
          </g>
        </g>
      </g>
    </g>
  </g>
</svg>
