<?xml version="1.0" encoding="UTF-8"?>
<!DOCTYPE svg PUBLIC "-//W3C//DTD SVG 1.1//EN" "http://www.w3.org/Graphics/SVG/1.1/DTD/svg11.dtd">
<!-- Creator: CorelDRAW X7 -->
<svg xmlns="http://www.w3.org/2000/svg" xml:space="preserve" width="38.3333mm" height="38.3333mm" version="1.1" style="shape-rendering:geometricPrecision; text-rendering:geometricPrecision; image-rendering:optimizeQuality; fill-rule:evenodd; clip-rule:evenodd"
viewBox="0 0 1454 1454"
 xmlns:xlink="http://www.w3.org/1999/xlink">
 <defs>
  <style type="text/css">
   <![CDATA[
    .fil0 {fill:none}
    .fil1 {fill:#426A5A}
    .fil2 {fill:white}
   ]]>
  </style>
 </defs>
 <g id="Layer_x0020_1">
  <metadata id="CorelCorpID_0Corel-Layer"/>
  <rect class="fil0" width="1454" height="1454"/>
  <g id="_419741024">
   <path class="fil1" d="M228 498c-19,9 -30,15 -43,27 -13,11 -18,23 -29,41l-9 29c-4,33 -1,333 -1,377l0 283c0,16 -1,29 4,43 1,6 4,11 7,16 2,2 4,5 5,7 3,4 4,4 6,7 7,5 9,10 24,17 10,5 21,8 33,8 27,1 56,0 84,0 276,1 553,-1 830,0 27,0 50,3 73,-8 17,-9 32,-24 39,-45 9,-24 6,-130 5,-163 -6,0 -162,3 -169,-1 -12,3 -53,-11 -60,-20 -5,0 -3,0 -8,-3 -2,-2 -4,-3 -6,-5 -5,-3 -10,-8 -13,-11l-7 -8c-4,-4 -14,-15 -16,-21l-4 -7c-10,-16 -16,-37 -18,-56l-1 -28c2,-20 7,-45 17,-58 5,-16 25,-38 34,-46 9,-6 36,-28 51,-27l33 -8 27 0 31 0 27 0 32 0 27 0 23 0c1,-17 1,-134 -1,-149 -3,-18 -9,-24 -15,-36 -3,-1 -4,-3 -5,-6 -6,-4 -12,-10 -19,-14 -26,-15 -50,-11 -82,-11l-809 0c-11,0 -55,2 -60,-2l-7 -1c-12,-4 -21,-12 -24,-25 -4,-6 -3,-22 1,-26 3,-11 12,-19 24,-22 7,-4 19,-2 28,-2l29 0c5,0 13,0 18,0 5,-1 2,0 6,-2 2,-2 0,-1 4,-3 2,-3 1,-2 4,-4 0,-3 2,-3 5,-6 3,-3 5,-4 7,-6 5,-4 10,-11 14,-13 7,-8 14,-11 21,-21l-131 1 -7 0 -29 8z"/>
   <path class="fil1" d="M1138 947c4,2 6,4 8,8 5,4 8,11 10,17 2,8 2,16 1,24 -7,47 -65,59 -93,29 -19,-21 -18,-55 1,-76 24,-25 68,-14 73,-2zm-54 -67l-24 6c-2,3 -19,12 -24,15 -7,6 -13,13 -19,20 -11,16 -18,30 -21,54 -1,32 2,36 10,63 2,1 18,27 18,27 5,2 3,0 5,5 6,2 16,11 26,16 10,5 21,8 33,9l28 1 30 0 29 0 30 0 29 0 27 1 14 -5c5,-2 8,-4 12,-7 11,-8 10,-13 18,-20 1,-9 4,-16 4,-29l0 -29 0 -30 0 -29c0,-11 0,-18 -2,-30 -6,-15 -14,-27 -30,-34 -2,-1 -4,-2 -7,-2l-8 -3 -28 0 -29 0 -30 0 -29 0 -30 0 -32 1z"/>
   <path class="fil1" d="M612 485c71,-65 182,-61 248,10 28,30 43,68 46,106l-350 0c3,-43 22,-84 56,-116z"/>
   <path class="fil2" d="M824 601c-2,-6 -6,-11 -10,-15 -20,-22 -46,-23 -77,-3l-21 13c-3,2 -5,4 -8,5l116 0zm-137 0c0,0 0,-1 -1,-1 -6,-6 -5,-18 5,-27 9,-8 18,-12 33,-14 9,0 16,-3 22,-9 7,-7 9,-18 2,-26 -6,-5 -14,-8 -24,-9 -15,0 -32,7 -48,19l-6 -7c-7,-7 -14,-4 -19,1 -4,4 -8,11 -1,18l5 6c-13,16 -21,33 -21,49l53 0z"/>
   <path class="fil1" d="M310 601l526 -487c22,-20 56,-18 76,3l328 355c20,22 19,56 -3,76l-57 53 -71 0c-25,-32 -19,-166 9,-192 29,-27 3,-3 5,-5l-152 -164c-2,1 24,-22 -5,4 -29,27 -168,21 -194,-7 -26,-29 -2,-2 -2,-3l-397 367 -63 0z"/>
  </g>
 </g>
</svg>
