<svg id="Group_1764" data-name="Group 1764" xmlns="http://www.w3.org/2000/svg" width="409.573" height="546.103" viewBox="0 0 409.573 546.103">
  <path id="Path_81" data-name="Path 81" d="M2306.745,975.355H1999.566a51.269,51.269,0,0,1-51.2-51.2V685.236a51.269,51.269,0,0,1,51.2-51.2h307.179a51.261,51.261,0,0,1,51.2,51.2V924.158A51.261,51.261,0,0,1,2306.745,975.355Zm-307.179-307.18a17.081,17.081,0,0,0-17.061,17.061V924.158a17.082,17.082,0,0,0,17.061,17.061h307.179a17.086,17.086,0,0,0,17.076-17.061V685.236a17.086,17.086,0,0,0-17.076-17.061Z" transform="translate(-1948.369 -429.252)" fill="#404040"/>
  <path id="Path_82" data-name="Path 82" d="M2209.188,858.461a17.076,17.076,0,0,1-17.076-17.061V756.068a102.393,102.393,0,1,0-204.785,0V841.4a17.062,17.062,0,0,1-34.124,0V756.068c0-75.291,61.225-136.529,136.518-136.529s136.528,61.239,136.528,136.529V841.4A17.065,17.065,0,0,1,2209.188,858.461Z" transform="translate(-1884.932 -619.539)" fill="#404040"/>
  <path id="Path_83" data-name="Path 83" d="M2005.153,731.494a45.5,45.5,0,1,1,45.518-45.505A45.55,45.55,0,0,1,2005.153,731.494Zm0-56.888a11.383,11.383,0,1,0,11.383,11.382A11.392,11.392,0,0,0,2005.153,674.606Z" transform="translate(-1800.367 -344.673)" fill="#404040"/>
  <path id="Path_84" data-name="Path 84" d="M1978.722,741.63a17.076,17.076,0,0,1-17.061-17.075V661.989a17.068,17.068,0,1,1,34.135,0v62.566A17.088,17.088,0,0,1,1978.722,741.63Z" transform="translate(-1773.936 -286.537)" fill="#404040"/>
</svg>
