<svg id="Capa_1" enable-background="new 0 0 512 512" height="512" viewBox="0 0 512 512" width="512" xmlns="http://www.w3.org/2000/svg"><g><g><path d="m496.647 151.796c0-16.352-13.303-29.655-29.655-29.655h-14.792c-4.208-24.791-31.678-43.997-64.855-43.997-1.599 0-3.2.045-4.796.135-1.79-11.621-6.577-22.922-14.061-33.072-2.459-3.334-7.153-4.044-10.486-1.585-3.334 2.458-4.043 7.153-1.585 10.486 7.489 10.155 11.49 21.142 11.895 32.657.158 4.482 4.193 7.822 8.61 7.152 3.415-.514 6.921-.774 10.423-.774 24.606 0 45.14 12.512 49.547 28.998h-367.179c10.921-34.767 51.887-61.304 101.535-64.478 2.23-.143 4.281-1.272 5.593-3.082 17.699-24.416 52.173-39.583 89.966-39.583 23.869 0 47.078 6.17 65.354 17.374 3.529 2.166 8.148 1.058 10.312-2.473 2.165-3.531 1.058-8.149-2.473-10.312-20.602-12.631-46.596-19.587-73.193-19.587-41.075 0-78.99 16.376-99.971 42.953-27.907 2.365-54.325 11.664-74.721 26.355-19.651 14.154-32.956 32.725-38 52.834h-9.107c-16.352 0-29.655 13.303-29.655 29.655 0 16.328 13.263 29.614 29.581 29.654-13.991 78.335-16.738 173.468-7.307 257.021-9.216 19.558-20.101 53.724-6.597 67.229 14.846 14.846 54.232-.127 70.803-8.38 102.306 13.098 206.03 13.098 308.337 0 11.493 5.724 33.957 14.68 51.6 14.679 7.795-.001 14.652-1.75 19.202-6.299 13.505-13.505 2.619-47.672-6.597-67.23 9.43-83.553 6.683-178.685-7.307-257.02 16.316-.041 29.579-13.327 29.579-29.655zm-26.283 343.298c-4.478 4.48-29.696 1.353-55.361-12.145-1.369-.72-2.924-1-4.458-.8-102.548 13.329-206.544 13.329-309.092 0-1.535-.2-3.09.08-4.458.8-25.664 13.498-50.883 16.622-55.361 12.145-4.129-4.129-2.122-26.447 10.42-52.022.634-1.291.882-2.736.717-4.164-9.674-83.641-6.883-179.334 7.402-257.456h391.651c14.285 78.122 17.076 173.815 7.402 257.456-.165 1.428.083 2.873.717 4.164 12.544 25.575 14.551 47.894 10.421 52.022zm-3.372-328.64c-4.823 0-390.604 0-421.983 0-8.082 0-14.657-6.576-14.657-14.658s6.575-14.657 14.657-14.657h421.983c8.082 0 14.657 6.575 14.657 14.657-.001 8.083-6.575 14.658-14.657 14.658z"/><path d="m362.77 335.971c-4.1-.592-7.904 2.248-8.497 6.347-1.487 10.266-4.584 20.164-9.103 29.362h-43.541c13.822-13.273 22.103-33.749 25.437-52.161 1.157-6.388-4.425-11.977-10.819-10.822-11.069 2.004-22.391 5.615-32.535 10.984-4.138-20.408-14.83-37.616-19.843-44.844-3.806-5.488-11.932-5.487-15.737 0-5.012 7.227-15.704 24.436-19.843 44.844-10.145-5.369-21.468-8.98-32.539-10.985-6.383-1.154-11.973 4.433-10.815 10.821 3.311 18.294 11.557 38.834 25.437 52.163h-43.541c-4.519-9.198-7.616-19.096-9.103-29.362-.594-4.098-4.406-6.932-8.497-6.347-4.099.594-6.941 4.398-6.347 8.497 1.951 13.467 6.302 26.385 12.742 38.183.071.135.149.266.228.396 20.261 36.775 58.708 59.203 100.146 59.203 41.491 0 79.914-22.48 100.147-59.202.079-.13.157-.261.228-.396 6.44-11.798 10.79-24.716 12.742-38.182.593-4.1-2.248-7.905-6.347-8.499zm-52.439-10.556c-4.132 15.029-14.996 42.107-40.163 46.266h-6.635c.587-25.376 22.43-39.635 46.798-46.266zm-54.331-35.042c5.144 8.711 12.197 23.037 13.971 38.359-5.555 4.561-10.339 9.878-13.971 15.997-3.632-6.119-8.416-11.436-13.971-15.996 1.773-15.323 8.827-29.649 13.971-38.36zm-54.331 35.042c24.377 6.633 46.211 20.898 46.798 46.266h-6.635c-25.164-4.159-36.03-31.235-40.163-46.266zm54.331 101.836c-31.477 0-61.224-14.899-80.074-40.572h160.148c-18.852 25.677-48.601 40.572-80.074 40.572z"/><path d="m149.629 315.685c4.066.759 7.987-1.93 8.743-6.003 8.726-46.956 49.785-81.037 97.628-81.037 47.844 0 88.903 34.082 97.628 81.038.671 3.609 3.822 6.131 7.365 6.13.455 0 .916-.041 1.379-.127 4.072-.757 6.76-4.671 6.003-8.743-10.046-54.06-57.306-93.296-112.375-93.296-55.068 0-102.328 39.236-112.375 93.295-.756 4.072 1.932 7.987 6.004 8.743z"/></g></g></svg>