<svg xmlns="http://www.w3.org/2000/svg" width="228.124" height="299.41" viewBox="0 0 228.124 299.41"><g transform="translate(0.125 0.125)"><path d="M1389.937,146.123A114.076,114.076,0,0,0,1276,260.06c0,40.562,12.344,56.817,71.628,134.977,10.291,13.577,21.952,28.94,35.3,46.733a8.746,8.746,0,0,0,14.016,0c13.272-17.7,24.895-33,35.13-46.524,59.438-78.389,71.8-94.7,71.8-135.186A114.076,114.076,0,0,0,1389.937,146.123Zm28.181,238.527c-8.431,11.109-17.757,23.414-28.181,37.276-10.5-13.938-19.882-26.32-28.353-37.485-57.67-76.015-68.058-89.726-68.058-124.381a96.41,96.41,0,0,1,192.82,0C1486.347,294.659,1475.92,308.388,1418.118,384.65Z" transform="translate(-1276 -146.123)" fill="#426a5a" stroke="#426a5a" stroke-miterlimit="10" stroke-width="0.25"/><path d="M1340.125,148.892a61.355,61.355,0,1,0,61.354,61.355A61.438,61.438,0,0,0,1340.125,148.892Zm0,105.183a43.828,43.828,0,1,1,43.827-43.828A43.881,43.881,0,0,1,1340.125,254.075Z" transform="translate(-1226.187 -96.31)" fill="#426a5a" stroke="#426a5a" stroke-miterlimit="10" stroke-width="0.25"/></g></svg>