<svg xmlns="http://www.w3.org/2000/svg" width="500" height="500" viewBox="0 0 500 500">
  <g id="Group_1704" data-name="Group 1704" transform="translate(-1883 -5181)">
    <rect id="Rectangle_700" data-name="Rectangle 700" width="500" height="500" transform="translate(1883 5181)" fill="none"/>
    <g id="Group_1697" data-name="Group 1697" transform="translate(1959.676 5256.68)">
      <g id="logout">
        <path id="Path_252" data-name="Path 252" d="M347.208,170.815,307.9,137.121a5.617,5.617,0,0,0-9.271,4.262v11.231H236.856V23.456a5.614,5.614,0,0,0-5.616-5.616H180.7V6.609a5.6,5.6,0,0,0-2.055-4.341,5.666,5.666,0,0,0-4.661-1.162L5.515,34.8A5.606,5.606,0,0,0,1,40.3V304.236a5.616,5.616,0,0,0,4.341,5.47l168.468,39.309a5.765,5.765,0,0,0,1.275.146,5.616,5.616,0,0,0,5.616-5.616V332.314h50.54a5.614,5.614,0,0,0,5.616-5.616V197.54h61.772v11.231a5.615,5.615,0,0,0,9.271,4.262l39.309-33.694a5.615,5.615,0,0,0,0-8.524ZM169.468,336.469,12.231,299.777V44.9L169.468,13.455Zm56.156-15.387H180.7V29.072h44.925V152.615H197.547a5.614,5.614,0,0,0-5.616,5.616v33.694a5.614,5.614,0,0,0,5.616,5.616h28.078Zm84.234-124.52v-4.638a5.614,5.614,0,0,0-5.616-5.616H203.162V163.846H304.243a5.614,5.614,0,0,0,5.616-5.616v-4.638l25.063,21.485Z" transform="translate(-1 -1.001)" fill="#426a5a"/>
        <path id="Path_253" data-name="Path 253" d="M39.847,72.925c9.445,0,16.847-9.867,16.847-22.462S49.292,28,39.847,28,23,37.867,23,50.462,30.4,72.925,39.847,72.925Zm0-33.694c2.291,0,5.616,4.374,5.616,11.231s-3.324,11.231-5.616,11.231-5.616-4.374-5.616-11.231S37.556,39.231,39.847,39.231Z" transform="translate(100.544 123.613)" fill="#426a5a"/>
      </g>
    </g>
  </g>
</svg>
