<svg xmlns="http://www.w3.org/2000/svg" width="250.796" height="286.87" viewBox="0 0 250.796 286.87">
  <g id="Group_355" data-name="Group 355" transform="translate(-11 266)">
    <g id="Group_356" data-name="Group 356" transform="translate(11 -266)">
      <g id="Group_341" data-name="Group 341" transform="translate(0 68.319)">
        <g id="Group_340" data-name="Group 340" transform="translate(38.916)">
          <path id="Path_395" data-name="Path 395" d="M264.268,223.872l-2.179-20.182-1.619-15.019c-4.166-24.8-33.773-34.4-57.616-42.932,16.644-4.03,49.516-26.486,47.6-49.516L247.48,68.309a28.92,28.92,0,0,0-28.754-25.817H87.2A28.925,28.925,0,0,0,58.444,68.309l-5.887,54.6a16.683,16.683,0,0,1,5.478-2.145A19.134,19.134,0,0,1,77.4,128.725c3.845,5.84,3.531,13.12-.847,19.458a1.54,1.54,0,0,0-.15.676,29.7,29.7,0,0,1,5.573,3.189c6.352-6.946,17.163-15.21,33.692-14,14.192,1.024,30.2,11.74,33.35,30.242.212,1.27.342,2.52.423,3.763.014.191-.014.369-.007.56h26.636c14.158,0,25.632,14.848,25.632,33.172v9.794H133.5c1.059,13.844-3.114,30.338-6.925,40.31H235.514A28.922,28.922,0,0,0,264.268,223.872ZM168.623,123.091H107.312l2.657-32.134c.526-6.413,4.289-11.235,8.749-11.235h79.9C198.613,103.674,185.185,123.091,168.623,123.091Z" transform="translate(-52.557 -42.492)" fill="#426a5a"/>
          <path id="Path_396" data-name="Path 396" d="M57.868,59.34" transform="translate(-21.595 55.729)" fill="#426a5a"/>
        </g>
        <path id="Path_397" data-name="Path 397" d="M79.471,107.325a12.9,12.9,0,0,0,6.386-.56c.437-2.049-.621-16.8,14.309-15.5,9.384.82,13.236,11.337,17.689,20.175,3.47-3.429,8.216-25.885,24.874-28.863A18.214,18.214,0,0,1,164.29,98.6c.867,9.412-6.359,19.561-26.93,20.571a80.532,80.532,0,0,1-10.457-.2c-11.6-.963-22.217-3.374-34.962-4.467-4-.342-8.489-.956-13.127-1.113-8.483-.294-17.464.97-24.888,8.387-17.368,17.368-.341,52,25.2,46.484a31.437,31.437,0,0,0,8.851-3.415c11.583-6.5,21.316-24.608,19.533-31.219a15.052,15.052,0,0,0-8.25-1.38c-2.377,5.382-2.459,9.111-6.536,15.353-3.149,4.822-8.53,10.245-15.565,11.331a16.181,16.181,0,0,1-1.8.15c-11.809.533-21.787-11.59-18.249-23.734,2.629-9.036,10.354-11.959,20.647-12.191,16.392-.376,39.306,6.072,58.723,5.662,1.769-.041,3.517-.123,5.225-.28.574,1.031,1.3,2.384,2.069,3.879-2.3.451-4.562.977-6.844,1.625a67.93,67.93,0,0,0-16.207,7.028c-9.678,5.655-20.039,15.47-23.959,23.781,3.49,7.13,15.094,13.079,26.582,17.02,9.78,3.353,19.465,5.245,23.979,5.15a19.778,19.778,0,0,0,2.985-5.15c4-8.967,8.872-26.773,7.629-40.31a30.729,30.729,0,0,0-1.762-8.155v-.007l-.062-.137a19.417,19.417,0,0,0-.84-1.871,37.694,37.694,0,0,0-2.828-5.068,34.509,34.509,0,0,0,3.524-1.421c12.519-5.928,18.639-15.374,17.921-26.309a27.427,27.427,0,0,0-25.632-25.8c-20.08-1.448-29.594,14.937-32.421,18.721a21.359,21.359,0,0,0-13.011-9.767,4.721,4.721,0,0,1-1.626-3.067c-.635-3.565-.581-6.693,1.346-9.493,8.544-12.41-13.393-20.606-16.036-6.871-1.052,5.464,2.233,6.427,4.371,10.272,1.2,2.145.956,7.158,1.024,9.439-3.019.628-6.044,2.431-9.125,5.279-.389-.2-.731-.389-1.093-.587h0C72.334,81.618,74.574,77.41,70.544,73.7c-3.524-3.237-11.6-1.953-13.892,3.592-2.322,5.655,1.639,12.014,7.117,12.751,4.323.581,3.326-1.783,7.5,1.018a49.541,49.541,0,0,1,6.263,4.6,22.3,22.3,0,0,0-.109,11.358c.628.116,1.325.225,2.049.307m61.687,68.688c-.164.082-9.9-.929-12.519-3.982l16.624-9.193C146.424,166.717,142.087,175.576,141.158,176.013Zm7.144-23.85c-12.444,2.814-21.9,7.909-29.778,17.594-3.039-1.031-6.652-3.128-8.469-5.382,2.937-10.081,24.97-22.832,37.8-22.04l.007.02a2.92,2.92,0,0,0,.273.758A22.984,22.984,0,0,1,148.3,152.163Z" transform="translate(-46.859 31.518)" fill="#426a5a"/>
      </g>
      <path id="Path_398" data-name="Path 398" d="M60.41,75.722v42.42a6.373,6.373,0,0,0,5.553,6.12h2.076c2.868-.471,5.443-3.019,5.416-8.558-.055-9.3-.553-37.578.444-43.192C76.453,58.1,89.922,45.541,104.8,45.541c10.832,0,20.455-.171,29.02,8.462,5.32,5.355,8.981,10.3,10.436,18.509.99,5.546.512,33.555.451,42.782-.034,5,1.175,8.968,6.925,8.968a5.99,5.99,0,0,0,6.113-6.12V75.722c0-7.67-4.207-18.311-8.373-23.829-5.355-7.089-9.493-10.771-17.689-14.916a48.192,48.192,0,0,0-17.621-4.487h-9.965a48.155,48.155,0,0,0-17.621,4.487C76.262,42.133,70.04,48.368,64.89,58.593c-2.015,3.989-4.48,11.187-4.48,17.129Z" transform="translate(32.142 -32.489)" fill="#426a5a" fill-rule="evenodd"/>
    </g>
  </g>
</svg>
