<?xml version="1.0" encoding="UTF-8"?>
<!DOCTYPE svg PUBLIC "-//W3C//DTD SVG 1.1//EN" "http://www.w3.org/Graphics/SVG/1.1/DTD/svg11.dtd">
<!-- Creator: CorelDRAW X7 -->
<svg xmlns="http://www.w3.org/2000/svg" xml:space="preserve" width="38.3333mm" height="38.3333mm" version="1.1" style="shape-rendering:geometricPrecision; text-rendering:geometricPrecision; image-rendering:optimizeQuality; fill-rule:evenodd; clip-rule:evenodd"
viewBox="0 0 862 862"
 xmlns:xlink="http://www.w3.org/1999/xlink">
 <defs>
  <style type="text/css">
   <![CDATA[
    .str0 {stroke:#426A5A;stroke-width:10.1795}
    .str1 {stroke:#426A5A;stroke-width:30.5386;stroke-linecap:round;stroke-linejoin:round}
    .fil0 {fill:none}
    .fil1 {fill:#426A5A}
    .fil2 {fill:white}
   ]]>
  </style>
 </defs>
 <g id="Layer_x0020_1">
  <metadata id="CorelCorpID_0Corel-Layer"/>
  <rect class="fil0" width="862" height="862"/>
  <g id="_602954512">
   <path class="fil1 str0" d="M148 253c2,-1 201,-1 223,-1 27,0 28,-1 30,26 1,18 2,35 4,53 2,34 5,69 7,104 0,16 4,48 4,65l4 64c1,5 2,10 -1,15 -3,3 -6,5 -12,5 -91,-1 -185,0 -276,0 -21,0 -35,3 -33,-18l9 -147c1,-6 1,-10 1,-16 0,-6 2,-10 -2,-14 -3,-3 -7,-5 -12,-4 -4,2 -7,4 -8,10l-2 40c-1,3 0,5 -1,8 -1,11 -1,36 -3,50 0,2 0,5 0,8l-1 16c0,2 0,5 0,8l-3 48 0 2c0,13 10,25 22,29 3,1 7,2 12,2l20 0 1 0 275 0 1 0c10,0 17,-1 25,-8 5,-5 11,-12 11,-22l0 -4c0,-11 -2,-36 -3,-46 0,-5 -1,-12 -1,-17l-3 -48c-1,-7 -2,-39 -3,-49l-3 -40c0,-3 -1,-4 -1,-8 0,-4 -1,-12 -1,-16l-6 -88c-2,-11 -9,-20 -18,-26 -5,-3 -10,-3 -17,-4l-13 0 -1 0 -241 0 -1 0c-11,0 -16,1 -25,9 -6,5 -11,13 -12,23 0,5 0,11 -1,16 -4,27 19,23 22,12 3,-12 -4,-37 15,-37 6,0 12,0 18,0z"/>
   <path class="fil1 str0" d="M176 216l0 73c0,5 5,10 10,10l3 0c5,-1 10,-5 10,-14 0,-16 -1,-65 1,-75 4,-24 27,-46 53,-46 18,0 35,0 50,14 9,10 15,18 18,32 1,10 0,58 0,74 0,8 2,15 12,15 6,0 11,-4 11,-10l0 -73c0,-13 -8,-32 -15,-41 -9,-12 -16,-19 -30,-26 -9,-4 -19,-7 -30,-8l-18 0c-11,1 -21,4 -30,8 -17,9 -28,20 -37,37 -3,7 -8,20 -8,30z"/>
  </g>
  <g id="_602959480">
   <rect class="fil2 str1" transform="matrix(1.31633 0.512718 -0 -1.00013 489.317 526.511)" width="183" height="183"/>
   <rect class="fil2 str1" transform="matrix(-1.31633 0.512718 -0 -1.00013 489.317 526.511)" width="183" height="183"/>
   <rect class="fil2 str1" transform="matrix(1.31633 -0.512718 -0 1.00013 489.317 537.199)" width="183" height="183"/>
   <rect class="fil2 str1" transform="matrix(-1.31633 -0.512718 -0 1.00013 489.317 537.199)" width="183" height="183"/>
   <polygon class="fil2 str1" points="489,537 730,443 786,530 545,623 "/>
   <polygon class="fil2 str1" points="489,537 248,443 193,530 434,623 "/>
  </g>
 </g>
</svg>
