<svg xmlns="http://www.w3.org/2000/svg" width="500" height="500" viewBox="0 0 500 500">
  <g id="Group_1701" data-name="Group 1701" transform="translate(-3341 -4527)">
    <rect id="Rectangle_698" data-name="Rectangle 698" width="500" height="500" transform="translate(3341 4527)" fill="none"/>
    <g id="trust" transform="translate(3423.942 4609.998)">
      <path id="Path_254" data-name="Path 254" d="M313.819,127.745a37.466,37.466,0,0,0,20.82-33.692V65.575a37.716,37.716,0,0,0-35.371-37.6L286.477,15.185A48.1,48.1,0,0,0,252.236,1h-24.8a38.091,38.091,0,0,0-23.8,67.836L212.8,76.16a248.855,248.855,0,0,0-1.926,27.084v5.381h10.763v3.751a28.538,28.538,0,0,0,28.537,28.537h1.458c.77,0,1.528-.167,2.292-.226v19.491l-10,2a10.785,10.785,0,0,0-6.054,3.552l-6.463,7.539a107.424,107.424,0,0,0-16.3,25.76l-31.141,31.136V209.874a74.353,74.353,0,0,0-74.342-74.342h-1v-5.564a32.588,32.588,0,0,0,28.042-20.46,58.969,58.969,0,0,0,4.246-22.031v-21.9a26.661,26.661,0,0,0-2.244-10.693,41.655,41.655,0,0,0,13.007-30.13A23.756,23.756,0,0,0,127.923,1H84.6A51.4,51.4,0,0,0,47.9,16.45C38.75,25.6,33.288,39.939,33.288,54.813A45.681,45.681,0,0,0,49.566,89.834a31.119,31.119,0,0,0,9.051,19.448l1.577,1.571V135.6A60.725,60.725,0,0,0,1,196.345v46.812a59.1,59.1,0,0,0,21.525,45.628v45.854H151.676V302.351h14.46a48.113,48.113,0,0,0,34.246-14.185l5.112-5.112v51.585H334.645V199.321A47.654,47.654,0,0,0,308.3,156.707l-5.952-2.976V133.476ZM210.364,60.431a27.328,27.328,0,0,1,17.075-48.668h24.8a37.433,37.433,0,0,1,26.637,11.032l15.869,15.875h2.228a26.937,26.937,0,0,1,26.906,26.906V94.053A26.755,26.755,0,0,1,309,118.118l-10.741,5.37a29.244,29.244,0,0,1-5.473-11.069,42.544,42.544,0,0,1-1.066-6.3c4.057-2.933,10.628-9.186,10.628-19.023a21.547,21.547,0,0,0-21.525-21.525h-.732a20.961,20.961,0,0,0-6.587-10.015,45.375,45.375,0,0,0-30.35-11.511c-11.893,0-23.446,5.71-23.931,5.946l-2.357,1.179-.517,2.578c-.689,3.444-1.286,6.791-1.814,10.02Zm45.612,118.151h-7.458l.016-6.35,11.8-2.357Zm-5.9,61.637-6.748-12.146,4.612-38.729h7.049l7.69,34.6A101.607,101.607,0,0,1,250.073,240.219Zm20.3-31.238-5.4-24.318L273.7,167.2l9.966-1.991-9.31,32.578A103.444,103.444,0,0,1,270.371,208.981Zm-5.688-70.113,17.2-3.439-2.115-10.553-24.657,4.935a17.928,17.928,0,0,1-3.482.339H250.17A17.779,17.779,0,0,1,232.4,112.376V97.863H221.789a284.943,284.943,0,0,1,4.59-39.267c3.455-1.415,10.219-3.783,16.779-3.783a34.737,34.737,0,0,1,23.236,8.825c2.54,2.239,3.67,4.493,3.67,7.319v5.381h10.763A10.773,10.773,0,0,1,291.589,87.1c0,7.222-7.738,11.306-7.787,11.328l-2.976,1.491v3.326a49.712,49.712,0,0,0,1.507,11.72,40.235,40.235,0,0,0,9.256,17.328v20.352l-26.906,5.381Zm-26.906,43.7v1.076L234.4,212.01l-7.27-13.087A96.417,96.417,0,0,1,237.777,182.569Zm-64.575,27.3v31.055l-2.879,2.879a16.268,16.268,0,0,1-11.424,4.73h-7.222V216.251H140.913v32.288H97.863V233.46l34.2-83.071A63.571,63.571,0,0,1,173.2,209.874Zm-21.525,66.152a15.581,15.581,0,0,1-15.46,15.563h-6.065v.005H119.388V259.3h16.176C144.433,259.317,151.66,266.587,151.676,276.026ZM99.919,146.294l-5.381,10.763H85.045l-5.381-10.763Zm6.9,37.141-3.358-20.158L111.9,146.4a63.688,63.688,0,0,1,9.729,1.066ZM67.631,146.294l8.492,16.983-2.674,16.036-15.4-32.729c1.259-.1,2.5-.291,3.767-.291Zm18.646,21.525H93.3L99.047,202.3l-6.9,16.757L81.5,196.437Zm43.874-80.342a48.251,48.251,0,0,1-3.476,18.033,22.081,22.081,0,0,1-32.75,10.176L84.7,109.535l-5.968,8.954,9.224,6.151a32.789,32.789,0,0,0,9.9,4.38v6.511H70.951V106.4l-4.73-4.73A20.488,20.488,0,0,1,60.194,87.1a5.39,5.39,0,0,1,5.381-5.381h5.381V65.575A16.164,16.164,0,0,1,87.1,49.431h26.906a16.164,16.164,0,0,1,16.144,16.144ZM52.51,77.64A34.662,34.662,0,0,1,44.05,54.813c0-12.081,4.283-23.581,11.807-31.1A40.427,40.427,0,0,1,84.6,11.763h43.319a12.99,12.99,0,0,1,12.99,12.99,30.8,30.8,0,0,1-8.6,21.224,26.724,26.724,0,0,0-18.307-7.308H87.1A26.937,26.937,0,0,0,60.194,65.575v6.3A16.2,16.2,0,0,0,52.51,77.64ZM11.763,243.157V196.345a49.932,49.932,0,0,1,35.312-47.807L87.1,233.6v14.938H54.813V216.251H44.05v32.288A10.76,10.76,0,0,0,54.781,259.3h53.845v32.293l-48.432-.005A48.487,48.487,0,0,1,11.763,243.157Zm129.151,80.719H33.288V295.818a58.741,58.741,0,0,0,26.906,6.533l75.935.005h.005c.027,0,.054-.005.081-.005h4.7Zm51.854-43.319a37.424,37.424,0,0,1-26.637,11.032h-8.911a26.89,26.89,0,0,0-.334-32.288H158.9a27.125,27.125,0,0,0,19.039-7.884l29.871-29.871a106.956,106.956,0,0,0-2.319,21.762v24.528Zm23.484-37.249a96.8,96.8,0,0,1,5.484-31.932l20.25,36.447c-.737.624-1.431,1.286-2.19,1.894l-2.018,1.62v72.54H216.251Zm87.236-76.974a36.89,36.89,0,0,1,20.39,32.987V323.876H291.589v-86.1H280.827v86.1H248.539V256.47a112.725,112.725,0,0,0,36.168-55.723l10.832-37.911.678-.135Z" transform="translate(-1 -1)" fill="#426a5a"/>
      <ellipse id="Ellipse_16" data-name="Ellipse 16" cx="4.5" rx="4.5" transform="translate(261.058 298.003)" fill="#426a5a"/>
      <ellipse id="Ellipse_17" data-name="Ellipse 17" cx="4.5" rx="4.5" transform="translate(261.058 276.003)" fill="#426a5a"/>
    </g>
  </g>
</svg>
