<svg xmlns="http://www.w3.org/2000/svg" width="500" height="500" viewBox="0 0 500 500">
  <g id="Group_1699" data-name="Group 1699" transform="translate(-2557 -3920)">
    <rect id="Rectangle_694" data-name="Rectangle 694" width="500" height="500" transform="translate(2557 3920)" fill="none"/>
    <g id="Group_1695" data-name="Group 1695" transform="translate(2627.622 3990.012)">
      <g id="Send_package" data-name="Send package" transform="translate(0 0)">
        <path id="Path_232" data-name="Path 232" d="M354.459,54h-42V48a6,6,0,0,0-6-6h-48a6,6,0,0,0-6,6V58.313L214.929,48.93a18.071,18.071,0,0,0-9,.078L110.389,74.6a23.783,23.783,0,0,0-13.553,9.774L38.32,50.6a24.011,24.011,0,1,0-24,41.6l106.358,61.4a18,18,0,0,0,9,2.4H231.632a18.084,18.084,0,0,0,8.046-1.9l12.785-6.4V156a6,6,0,0,0,6,6h48a6,6,0,0,0,6-6v-6h42a6,6,0,0,0,6-6V60A6,6,0,0,0,354.459,54ZM234.314,143.4a6.1,6.1,0,0,1-2.682.6H129.684a6,6,0,0,1-3-.8L20.345,81.808A12.041,12.041,0,0,1,16,65.4a12.2,12.2,0,0,1,16.331-4.386L92.774,95.908a23.891,23.891,0,0,0,30.041,25.073l71.547-19.169a6,6,0,1,0-3.1-11.592l-71.553,19.2A12,12,0,1,1,113.5,86.24L209.025,60.6a6,6,0,0,1,3,0l40.438,10.086v63.6Zm66.147,6.6h-36V54h36Zm48-12h-36V66h36Z" transform="translate(-2.305 197.99)" fill="#426a5a"/>
        <path id="Path_233" data-name="Path 233" d="M231.391,53.316l-24-48A6,6,0,0,0,201.992,2H34a6,6,0,0,0-5.37,3.318l-24,48A10.679,10.679,0,0,0,4,56V223.991a6,6,0,0,0,6,6H225.991a6,6,0,0,0,6-6V56A10.682,10.682,0,0,0,231.391,53.316ZM216.283,50H146.674l-9-36h60.6ZM100,62h36v56.29l-15.317-7.662a6,6,0,0,0-5.364,0L100,118.287Zm25.313-48,9,36H101.682l9-36Zm-87.6,0H98.3l-9,36h-69.6ZM219.991,217.991H16V62H88v66a6,6,0,0,0,8.682,5.37L118,122.7l21.317,10.692a6,6,0,0,0,8.682-5.4V62h72Z" transform="translate(6.168 -2)" fill="#426a5a"/>
      </g>
    </g>
  </g>
</svg>
