<svg id="Group_352" data-name="Group 352" xmlns="http://www.w3.org/2000/svg" width="406.114" height="407.945" viewBox="0 0 406.114 407.945">
  <path id="Path_126" data-name="Path 126" d="M1677.36,647.837a117.676,117.676,0,0,0-166.232,0,116.291,116.291,0,0,0-33.676,69.786,118.3,118.3,0,0,0,11.717,66.066l-183.549,183.55,52.34,52.339,21.32-21.321,23.151,23.152,49.683-49.682-23.151-23.14L1446,931.542l23.151,23.151,49.67-49.67-23.14-23.151,45.831-45.843a118.341,118.341,0,0,0,66.066,11.717,116.3,116.3,0,0,0,69.786-33.676,117.676,117.676,0,0,0,0-166.233Zm-16.9,149.329A93.368,93.368,0,0,1,1545.63,811.01l-8.031-4.89-75.74,75.751,23.152,23.151-15.864,15.864L1446,897.736l-50.852,50.839,23.151,23.152L1402.431,987.6,1379.28,964.45l-21.32,21.321-18.534-18.532L1519.076,787.6l-4.89-8.032a93.649,93.649,0,1,1,146.271,17.6Z" transform="translate(-1305.619 -613.464)" fill="#404040"/>
  <path id="Path_127" data-name="Path 127" d="M1340.117,629.621A39.156,39.156,0,0,0,1395.492,685h0a39.156,39.156,0,0,0-55.375-55.375Zm38.473,38.472a15.238,15.238,0,1,1,0-21.568,15.257,15.257,0,0,1,0,21.568Z" transform="translate(-1056.472 -562.528)" fill="#404040"/>
</svg>
