<svg xmlns="http://www.w3.org/2000/svg" width="500" height="500" viewBox="0 0 500 500">
  <g id="Group_1700" data-name="Group 1700" transform="translate(-3315 -3920)">
    <rect id="Rectangle_695" data-name="Rectangle 695" width="500" height="500" transform="translate(3315 3920)" fill="none"/>
    <g id="product" transform="translate(3371.953 3990.012)">
      <g id="Group_58" data-name="Group 58" transform="translate(0 0)">
        <path id="Path_234" data-name="Path 234" d="M371.149,180.485H351.7a19.152,19.152,0,0,0-18.28-14.051H312.667v-50.76a5.355,5.355,0,0,0-2.612-4.732L163.626,26.366a5.407,5.407,0,0,0-5.435,0L11.717,110.942A5.449,5.449,0,0,0,9,115.674V284.825a5.464,5.464,0,0,0,2.732,4.732l146.489,84.575a5.465,5.465,0,0,0,2.732.732,5.748,5.748,0,0,0,2.81-.732l77.085-44.463v32.142a23.139,23.139,0,0,0,23.334,23.2H371.149a23.268,23.268,0,0,0,23.485-23.2V204.046A23.575,23.575,0,0,0,371.149,180.485Zm-37.53-3.122a7.932,7.932,0,0,1,7.932,7.932v.529a7.932,7.932,0,0,1-7.932,7.932H301.864a7.932,7.932,0,0,1-7.932-7.932v-.529a7.932,7.932,0,0,1,7.932-7.932ZM160.954,37.408l60.869,35.143L86.272,150.811,25.4,115.668Zm-5.194,322.527L19.929,281.67V125.126l135.83,78.266Zm5.194-166.008L97.2,157.12,232.752,78.861l63.756,36.808Zm79.895,10.119V317.052l-74.16,42.884V203.392l135.05-78.266v41.307h.169a19.151,19.151,0,0,0-18.28,14.051H264.182A23.448,23.448,0,0,0,240.848,204.046ZM383.7,361.812a12.328,12.328,0,0,1-12.556,12.27H264.182a12.2,12.2,0,0,1-12.405-12.27V204.046a12.507,12.507,0,0,1,12.405-12.632H283.84a18.692,18.692,0,0,0,18.067,13.271h31.517a18.69,18.69,0,0,0,18.066-13.271h19.659A12.635,12.635,0,0,1,383.7,204.046Z" transform="translate(-9 -25.634)" fill="#426a5a"/>
        <path id="Path_235" data-name="Path 235" d="M342.424,314.689h5.719a5.464,5.464,0,1,0,0-10.929h-.215V288.928H363a5.26,5.26,0,0,0,5.195,3.691,5.479,5.479,0,0,0,5.494-5.453V283.49a5.536,5.536,0,0,0-5.523-5.49H342.424A5.454,5.454,0,0,0,337,283.49v25.741a5.426,5.426,0,0,0,5.424,5.458Z" transform="translate(-80.952 -80.995)" fill="#426a5a"/>
        <path id="Path_236" data-name="Path 236" d="M342.465,378.69h25.761a5.464,5.464,0,0,0,5.465-5.464V347.465A5.464,5.464,0,0,0,368.226,342H342.465A5.464,5.464,0,0,0,337,347.465v25.761A5.464,5.464,0,0,0,342.465,378.69Zm5.465-25.761h14.832v14.832H347.929Z" transform="translate(-80.951 -95.035)" fill="#426a5a"/>
        <path id="Path_237" data-name="Path 237" d="M348.145,431.761h-.217V416.929h14.777a5.493,5.493,0,1,0,10.985.011l0-5.265A5.7,5.7,0,0,0,368.167,406H342.425A5.614,5.614,0,0,0,337,411.675v25.74a5.273,5.273,0,0,0,5.425,5.275h5.721a5.464,5.464,0,0,0,0-10.929Z" transform="translate(-80.95 -109.074)" fill="#426a5a"/>
        <path id="Path_238" data-name="Path 238" d="M384.555,286.141l-16,16-4.868-4.868A5.464,5.464,0,0,0,355.955,305l8.733,8.733a5.464,5.464,0,0,0,7.728,0l19.869-19.869a5.465,5.465,0,1,0-7.729-7.728Z" transform="translate(-84.759 -82.427)" fill="#426a5a"/>
        <path id="Path_239" data-name="Path 239" d="M384.555,415.391l-16,16-4.868-4.868a5.465,5.465,0,0,0-7.728,7.729l8.733,8.732a5.464,5.464,0,0,0,7.728,0l19.869-19.87a5.465,5.465,0,0,0-7.729-7.728Z" transform="translate(-84.759 -110.782)" fill="#426a5a"/>
        <path id="Path_240" data-name="Path 240" d="M453.677,295H419.356a5.464,5.464,0,1,0,0,10.929h34.322a5.464,5.464,0,0,0,0-10.929Z" transform="translate(-97.817 -84.724)" fill="#426a5a"/>
        <path id="Path_241" data-name="Path 241" d="M453.677,359H419.356a5.465,5.465,0,1,0,0,10.929h34.322a5.465,5.465,0,0,0,0-10.929Z" transform="translate(-97.817 -98.764)" fill="#426a5a"/>
        <path id="Path_242" data-name="Path 242" d="M453.677,423H419.356a5.464,5.464,0,1,0,0,10.929h34.322a5.464,5.464,0,0,0,0-10.929Z" transform="translate(-97.817 -112.804)" fill="#426a5a"/>
      </g>
    </g>
  </g>
</svg>
