<?xml version="1.0" encoding="UTF-8"?>
<!DOCTYPE svg PUBLIC "-//W3C//DTD SVG 1.1//EN" "http://www.w3.org/Graphics/SVG/1.1/DTD/svg11.dtd">
<!-- Creator: CorelDRAW X7 -->
<svg xmlns="http://www.w3.org/2000/svg" xml:space="preserve" width="38.3333mm" height="38.3333mm" version="1.1" style="shape-rendering:geometricPrecision; text-rendering:geometricPrecision; image-rendering:optimizeQuality; fill-rule:evenodd; clip-rule:evenodd"
viewBox="0 0 612 612"
 xmlns:xlink="http://www.w3.org/1999/xlink">
 <defs>
  <style type="text/css">
   <![CDATA[
    .str0 {stroke:#426A5A;stroke-width:36.17}
    .fil0 {fill:none}
    .fil1 {fill:#426A5A}
    .fil2 {fill:white}
   ]]>
  </style>
 </defs>
 <g id="Layer_x0020_1">
  <metadata id="CorelCorpID_0Corel-Layer"/>
  <rect class="fil0" width="612" height="612"/>
  <circle class="fil1 str0" cx="306" cy="306" r="245"/>
  <path class="fil2" d="M307 470c8,0 18,-4 18,-17l0 -9c57,-7 93,-40 93,-88 0,-42 -25,-67 -75,-76l-35 -6c-24,-4 -35,-11 -35,-24 0,-12 12,-24 31,-24 17,0 30,5 46,17 11,8 21,12 33,12 14,0 25,-10 25,-24 0,-12 -5,-23 -15,-33 -15,-14 -40,-23 -67,-26l0 -13c0,-13 -11,-17 -19,-17 -9,0 -19,4 -19,17l0 12c-55,5 -91,38 -91,85 0,42 25,68 74,77l34 7c27,5 38,12 38,24 0,15 -12,25 -36,25 -16,0 -35,-7 -53,-20 -12,-9 -21,-12 -30,-12 -16,0 -30,10 -30,27 0,12 6,23 16,33 17,16 45,25 77,28l0 8c0,13 11,17 20,17z"/>
  <polygon class="fil1" points="99,450 143,488 488,143 443,105 "/>
 </g>
</svg>
