<svg id="Group_351" data-name="Group 351" xmlns="http://www.w3.org/2000/svg" width="425.903" height="457.041" viewBox="0 0 425.903 457.041">
  <g id="Group_33" data-name="Group 33" transform="translate(0 257.423)">
    <g id="Group_32" data-name="Group 32">
      <path id="Path_124" data-name="Path 124" d="M1519.952,520.005c-137.324,0-212.952,64.963-212.952,182.939a16.684,16.684,0,0,0,16.68,16.679h392.544a16.684,16.684,0,0,0,16.679-16.679C1732.9,584.983,1657.274,520.005,1519.952,520.005ZM1340.97,686.264c6.561-88.2,66.684-132.885,178.981-132.885,112.281,0,172.419,44.68,178.981,132.885Z" transform="translate(-1307 -520.005)" fill="#404040"/>
    </g>
  </g>
  <g id="Group_35" data-name="Group 35" transform="translate(102.309)">
    <g id="Group_34" data-name="Group 34">
      <path id="Path_125" data-name="Path 125" d="M1424,504c-63.083,0-110.643,48.526-110.643,112.861,0,66.234,49.637,120.1,110.643,120.1s110.641-53.865,110.641-120.1C1534.645,552.526,1487.084,504,1424,504Zm0,199.6c-42.624,0-77.283-38.906-77.283-86.741,0-46.064,32.5-79.5,77.283-79.5,44.069,0,77.284,34.178,77.284,79.5C1501.288,664.7,1466.625,703.6,1424,703.6Z" transform="translate(-1313.361 -504)" fill="#404040"/>
    </g>
  </g>
</svg>
