<svg xmlns="http://www.w3.org/2000/svg" width="500" height="500" viewBox="0 0 500 500"><g transform="translate(-2609 -2715)"><rect width="500" height="500" transform="translate(2609 2715)" fill="none"/><g transform="translate(2703 2809)"><path d="M1348.913,478.774a154.652,154.652,0,0,0,79.833,22.1c85.641,0,156.244-69.881,156.244-155.638,0-85.643-70.508-155.638-156.244-155.638-85.491,0-155.03,69.825-155.03,155.638a155.86,155.86,0,0,0,22.1,80.439L1273.6,500.991ZM1291.944,345.24c0-75.768,61.376-137.389,136.8-137.389,76.091,0,137.994,61.621,137.994,137.389s-61.9,137.408-137.994,137.408a136.358,136.358,0,0,1-73.586-21.458l-3.493-2.241-51.083,15.059,15.06-51.081-2.241-3.494a137.392,137.392,0,0,1-21.458-74.192Zm0,0" transform="translate(-1273.602 -189.602)" fill="#426a5a"/><path d="M1279.62,263.182c3,15.818,11.945,46.24,37.979,72.274s56.456,34.979,72.292,38c18.116,3.456,44.7,3.969,57.689-9.02l7.235-7.254a19.321,19.321,0,0,0,0-27.364l-28.957-28.978a19.393,19.393,0,0,0-27.383,0l-7.235,7.235c-4.426,4.425-12.782,4.444-17.244.057l-28.883-30.1-.133-.133a11.381,11.381,0,0,1,0-16.065l7.235-7.254a19.334,19.334,0,0,0,0-27.382l-28.96-28.959a19.369,19.369,0,0,0-27.383,0l-7.234,7.235h0c-10.368,10.368-13.843,32.491-9.02,57.709Zm21.916-44.815c7.593-7.425,7.194-7.558,8.031-7.558a1.185,1.185,0,0,1,.8.323c30.515,30.687,29.3,28.883,29.3,29.757a1.037,1.037,0,0,1-.34.8l-7.235,7.254a29.558,29.558,0,0,0-.077,41.777l28.9,30.136.133.133c11.547,11.527,31.524,11.565,43.089,0l7.234-7.254a1.134,1.134,0,0,1,1.595,0c30.517,30.687,29.3,28.883,29.3,29.776a1.029,1.029,0,0,1-.344.779l-7.235,7.254c-4.956,4.956-20.773,7.919-41.4,3.988-13.749-2.621-40.219-10.387-62.8-32.966s-30.344-49.031-32.965-62.8c-3.932-20.622-.969-36.422,4.009-41.4Zm0,0" transform="translate(-1203.816 -136.218)" fill="#426a5a"/></g></g></svg>