<svg xmlns="http://www.w3.org/2000/svg" viewBox="0 0 501 184.71"><defs><style>.cls-1{fill:#426a5a;}.cls-2{opacity:0.15;}.cls-3{fill:#dfa72c;}.cls-4{fill:#f7be33;}.cls-5{fill:#1a2e35;}.cls-6{fill:#375a64;}.cls-7{fill:#fafafa;}.cls-8{fill:#ff4f5b;}.cls-16,.cls-17,.cls-20,.cls-9{fill:#fff;}.cls-10{fill:#ffbf9d;}.cls-11{fill:#ff9a6c;}.cls-12{opacity:0.3;}.cls-13{font-size:31.65px;fill:none;stroke:#fff;stroke-miterlimit:10;stroke-width:0.5px;font-family:SFCompactDisplay-Black, SF Compact Display;}.cls-13,.cls-17{font-weight:800;}.cls-14{letter-spacing:-0.02em;}.cls-15{letter-spacing:0.02em;}.cls-16{fill-rule:evenodd;}.cls-17{font-size:23.49px;font-family:SFCompactRounded-Heavy, SF Compact Rounded;letter-spacing:-0.04em;}.cls-18{letter-spacing:-0.05em;}.cls-19{letter-spacing:-0.04em;}.cls-20{font-size:3.96px;font-family:SFCompactRounded-Light, SF Compact Rounded;font-weight:300;letter-spacing:0.2em;}.cls-21{letter-spacing:0.23em;}.cls-22{letter-spacing:0.22em;}.cls-23{letter-spacing:0.2em;}.cls-24{letter-spacing:0.21em;}</style></defs><g id="Layer_2" data-name="Layer 2"><g id="Layer_1-2" data-name="Layer 1"><rect class="cls-1" width="501" height="155"/><g class="cls-2"><path d="M196.69,38.25l.35,1.23-1.11,7.79-2.05.57L195,40.39l-2.71.76.37,1.33-1.68.47-.8-2.88Z"/><path d="M205.07,42c.41,1.45-.31,3-2.64,3.66a5.9,5.9,0,0,1-3.36,0l.34-1.66a4,4,0,0,0,2.53.09c.95-.26,1.42-.82,1.23-1.49s-.71-.94-2.2-.53l-2.09.58L198,37.88l5-1.38.42,1.51L200,39l.31,1.59.66-.18C203.41,39.69,204.67,40.51,205.07,42Z"/><path d="M204.92,38.29a1.95,1.95,0,1,1,3.69-1,1.95,1.95,0,1,1-3.69,1Zm3.11-.86c-.3-1.06-1-1.56-1.74-1.34s-1.08,1-.79,2,1,1.56,1.74,1.34S208.32,38.49,208,37.43Zm3.09-3.19.68-.19-3.3,9.73-.69.19ZM211,40.75a1.95,1.95,0,1,1,3.69-1,1.95,1.95,0,1,1-3.69,1Zm3.11-.86c-.29-1-1-1.56-1.73-1.34s-1.09,1-.79,2,1,1.55,1.73,1.34S214.4,40.94,214.11,39.89Z"/></g><g class="cls-2"><path d="M43.87,23.7,44.21,25l-5.29,1.36-.27-1.05,2-3.25c.47-.75.49-1.13.4-1.47-.14-.55-.6-.78-1.34-.59a1.78,1.78,0,0,0-1.27,1.08l-1.38-.46a3.35,3.35,0,0,1,2.45-2c1.56-.41,2.8.13,3.13,1.4a2.91,2.91,0,0,1-.6,2.51l-1.22,1.93Z"/><path d="M44,21.35c-.59-2.31.35-4,2.07-4.39s3.33.54,3.93,2.85-.34,4-2.07,4.39S44.55,23.66,44,21.35Zm4.37-1.12c-.41-1.59-1.14-2.11-1.95-1.9s-1.19,1-.78,2.6,1.14,2.11,1.94,1.9S48.74,21.82,48.33,20.23Z"/><path d="M50.35,18a1.72,1.72,0,0,1,1.1-2.3c.93-.24,1.77.34,2.06,1.49a1.71,1.71,0,0,1-1.09,2.3C51.48,19.69,50.65,19.09,50.35,18ZM53,17.27c-.23-.91-.8-1.34-1.45-1.17s-.94.82-.71,1.72.8,1.34,1.46,1.17S53.25,18.18,53,17.27Zm2.69-2.66.59-.15-3,8.22-.59.15Zm-.21,5.54a1.66,1.66,0,1,1,3.16-.81,1.66,1.66,0,1,1-3.16.81Zm2.66-.68c-.23-.9-.79-1.35-1.45-1.18s-.94.82-.71,1.73.8,1.34,1.45,1.17S58.38,20.37,58.15,19.47Z"/></g><g class="cls-2"><path d="M109.55,45.62c0,1.43-1,2.76-3.47,2.8a5.84,5.84,0,0,1-3.25-.85l.74-1.52a4,4,0,0,0,2.44.72c1,0,1.58-.42,1.57-1.11s-.49-1-1.61-1l-.9,0,0-1.3,1.71-2-3.61.06,0-1.58,5.94-.1,0,1.27-1.87,2.22A2.4,2.4,0,0,1,109.55,45.62Z"/><path d="M110.43,44c-.05-2.8,1.48-4.42,3.56-4.45s3.66,1.52,3.71,4.32-1.46,4.42-3.56,4.45S110.48,46.76,110.43,44Zm5.3-.09c0-1.93-.73-2.72-1.71-2.7s-1.63.83-1.6,2.75.73,2.72,1.69,2.7S115.76,45.79,115.73,43.87Z"/><path d="M118.66,41.82c0-1.39.74-2.32,1.88-2.34s1.93.88,1.95,2.27-.75,2.32-1.87,2.34S118.69,43.2,118.66,41.82Zm3.23-.06c0-1.1-.56-1.75-1.34-1.73s-1.3.69-1.28,1.78.54,1.74,1.34,1.73S121.9,42.86,121.89,41.76Zm3.79-2.31h.71L120.75,48,120,48Zm-1.75,6.28c0-1.39.75-2.32,1.88-2.34s1.93.89,2,2.27S127,48,125.88,48,124,47.11,123.93,45.73Zm3.22-.06c0-1.09-.54-1.75-1.34-1.73s-1.29.67-1.27,1.78.55,1.74,1.34,1.73S127.17,46.76,127.15,45.67Z"/></g><g class="cls-2"><path d="M150.59,19.41c-.17,1.09-1.11,1.91-2.86,1.64a4.26,4.26,0,0,1-2.23-1l.72-1a3,3,0,0,0,1.66.82c.71.11,1.19-.12,1.27-.62s-.2-.85-1.31-1L146.28,18l.84-3.4,3.73.57-.17,1.14-2.55-.39-.28,1.14.5.08C150.16,17.41,150.75,18.33,150.59,19.41Z"/><path d="M151.34,18.37c.3-2,1.6-3,3.1-2.77s2.45,1.55,2.14,3.57-1.59,3-3.11,2.76S151,20.38,151.34,18.37Zm3.82.58c.21-1.39-.19-2-.9-2.15s-1.28.4-1.49,1.78.19,2.05.89,2.15S154.94,20.34,155.16,19Z"/><path d="M157.52,17.83c.15-1,.81-1.57,1.63-1.45a1.49,1.49,0,0,1,1.13,1.88c-.15,1-.82,1.57-1.64,1.45A1.48,1.48,0,0,1,157.52,17.83Zm5.33-.84.52.08-5.12,5.48-.51-.08Zm-3,1.2c.12-.8-.18-1.33-.75-1.41s-1,.33-1.14,1.12.18,1.32.75,1.41S159.72,19,159.84,18.19Zm1,3.1c.15-1,.82-1.57,1.63-1.45a1.48,1.48,0,0,1,1.13,1.87c-.15,1-.82,1.58-1.64,1.45A1.47,1.47,0,0,1,160.83,21.29Zm2.32.36c.12-.79-.17-1.33-.75-1.42s-1,.33-1.14,1.13.19,1.32.75,1.41S163,22.43,163.15,21.65Z"/></g><g class="cls-2"><path d="M11.43,48.84l-1.27,5.42L8.91,54l1-4.42L8.86,49.3l.23-1Z"/><path d="M11.74,51.77c.42-1.79,1.65-2.57,3-2.26s2.08,1.56,1.66,3.35-1.64,2.57-3,2.26S11.32,53.56,11.74,51.77Zm3.38.79c.29-1.23,0-1.84-.65-2s-1.17.27-1.46,1.5,0,1.84.64,2S14.83,53.79,15.12,52.56Z"/><path d="M22.16,51.35l.46.11-5,4.55-.46-.1Zm-4.84.38a1.28,1.28,0,1,1,2.44.57c-.2.89-.84,1.36-1.56,1.19A1.33,1.33,0,0,1,17.32,51.73Zm2.06.48c.16-.7-.07-1.2-.58-1.32s-.93.23-1.1.93.07,1.2.58,1.32S19.21,52.92,19.38,52.21ZM20,55.06a1.28,1.28,0,1,1,2.45.57c-.21.89-.84,1.36-1.57,1.19A1.33,1.33,0,0,1,20,55.06Zm2.06.48c.16-.69-.06-1.19-.57-1.31s-.94.22-1.1.92.07,1.2.57,1.32S21.94,56.24,22.1,55.54Z"/></g><path class="cls-3" d="M44.25,104.9a25,25,0,0,0-23.84-6.54,43.39,43.39,0,0,0,24.12,7.53"/><path class="cls-4" d="M36.16,76.27a24.16,24.16,0,0,0-7-20,32.64,32.64,0,0,0,7,20"/><path class="cls-3" d="M40.37,89.54A37.53,37.53,0,0,0,23.14,73.08,23.67,23.67,0,0,0,40.43,89.61"/><path class="cls-4" d="M41.24,92.1A44.31,44.31,0,0,1,28.6,91a20.88,20.88,0,0,1-10.76-6.42,42.19,42.19,0,0,1,23.34,7.13"/><path class="cls-4" d="M39.09,83.67c2.15-8.07,5.7-13.66,12-18.18a16.79,16.79,0,0,1-12,18.18"/><path class="cls-3" d="M55.1,97.58a12,12,0,0,0-7.26-11.06c.36,4.17,3.63,9,7.26,11.06"/><path class="cls-4" d="M57.13,90.78A17.79,17.79,0,0,1,68.79,75.6C67.32,82.34,63.42,88,57.13,90.78"/><path class="cls-4" d="M54.07,102.86a11.25,11.25,0,0,1,6.47-4.14A33.11,33.11,0,0,1,68.31,98a18.19,18.19,0,0,1-14,5.85"/><path class="cls-4" d="M51,120.06a19.91,19.91,0,0,1,24.32,11.52A52.09,52.09,0,0,1,51,120.06"/><path class="cls-4" d="M41.34,114.08c1.47,4.34,1.19,9.58-2.07,13.32a15.9,15.9,0,0,1,2.07-13.32"/><path class="cls-3" d="M35.61,111.67a16.3,16.3,0,0,1-9,13.24,1,1,0,0,1-.8.13c-.4-.16-.43-.7-.38-1.13.63-5.55,4.75-10.93,10.19-12.24"/><path class="cls-4" d="M31.87,111.11a13.4,13.4,0,0,1-19.56.1c6.22-.68,13.39-1.14,19.56-.1"/><path class="cls-5" d="M30.94,61.42s0,.06,0,.18l.19.53q.27.7.75,2c.34.87.72,1.94,1.17,3.19.23.62.47,1.29.72,2l.78,2.24c1.1,3.15,2.32,6.93,3.64,11.13s2.66,8.87,4,13.78,2.49,9.62,3.49,13.91,1.8,8.18,2.4,11.46c.15.82.3,1.6.44,2.34s.25,1.44.36,2.09c.22,1.31.41,2.43.54,3.35s.25,1.63.33,2.13l.09.55a.94.94,0,0,0,0,.18,1.42,1.42,0,0,0,0-.19l-.06-.55-.28-2.13c-.12-.93-.3-2.05-.51-3.36-.11-.65-.22-1.35-.34-2.1s-.28-1.52-.42-2.34c-.59-3.28-1.4-7.17-2.36-11.48s-2.15-9-3.47-13.93-2.71-9.56-4-13.77-2.57-8-3.69-11.12L34,69.27l-.73-2C32.77,66,32.37,65,32,64.11s-.61-1.53-.79-2L31,61.59Z"/><path class="cls-5" d="M65.08,79.2s0,0-.11.1l-.3.31c-.26.28-.63.69-1.1,1.24a43.48,43.48,0,0,0-3.66,4.88,32.65,32.65,0,0,0-3.83,8.18,80.6,80.6,0,0,0-2.29,10.84c-1.27,7.75-2.82,14.69-3.94,19.71-.57,2.5-1,4.52-1.35,5.94L48.15,132l-.09.42c0,.1,0,.15,0,.15a1,1,0,0,0,0-.14l.11-.42c.1-.38.23-.92.4-1.61.34-1.41.83-3.43,1.42-5.92,1.17-5,2.75-12,4-19.71A82.37,82.37,0,0,1,56.29,94a33,33,0,0,1,3.76-8.16,44.15,44.15,0,0,1,3.59-4.91c.46-.56.82-1,1.07-1.27l.28-.33Z"/><path class="cls-5" d="M30,110.84l.23,0,.64.07.46,0,.55.08c.4.06.85.12,1.34.23l.77.15.83.21c.57.13,1.17.34,1.8.53a25.9,25.9,0,0,1,3.93,1.74,21.49,21.49,0,0,1,3.53,2.45,17.07,17.07,0,0,1,1.36,1.3,14.21,14.21,0,0,1,1.07,1.23,11.72,11.72,0,0,1,.79,1.1,6.74,6.74,0,0,1,.54.86l.33.56.13.18a.79.79,0,0,0-.08-.21l-.29-.58a7.65,7.65,0,0,0-.52-.89,10.84,10.84,0,0,0-.77-1.12,14,14,0,0,0-1.06-1.27c-.39-.45-.86-.87-1.35-1.33a21.91,21.91,0,0,0-3.56-2.49,25.79,25.79,0,0,0-4-1.74c-.64-.18-1.24-.39-1.83-.51l-.83-.2-.78-.14c-.5-.1-.95-.14-1.35-.19l-.55-.06-.47,0-.65,0A.68.68,0,0,0,30,110.84Z"/><path class="cls-5" d="M28.24,79.35a3.77,3.77,0,0,0,.45.43L30,80.89c1.08.93,2.6,2.2,4.28,3.59s3.21,2.64,4.32,3.54l1.33,1a3.56,3.56,0,0,0,.5.36A2.56,2.56,0,0,0,40,89l-1.28-1.11c-1.09-.93-2.6-2.2-4.28-3.59s-3.21-2.65-4.32-3.54l-1.33-1.05A2.37,2.37,0,0,0,28.24,79.35Z"/><path class="cls-5" d="M26.71,87.57c0,.06,3.25,1.08,7.29,2.27s7.34,2.12,7.36,2-3.25-1.08-7.29-2.27S26.73,87.5,26.71,87.57Z"/><path class="cls-5" d="M38.76,84.29a1.87,1.87,0,0,0,.34-.46L40,82.51c.73-1.1,1.77-2.6,3-4.21s2.41-3,3.28-4l1-1.17a3.23,3.23,0,0,0,.36-.45s-.16.12-.43.38-.64.65-1.09,1.13c-.9,1-2.11,2.36-3.34,4a51.48,51.48,0,0,0-2.94,4.26c-.35.57-.62,1-.8,1.36A3.49,3.49,0,0,0,38.76,84.29Z"/><path class="cls-5" d="M50.1,88.86a11.53,11.53,0,0,0,.76,1.26c.49.76,1.15,1.83,1.84,3s1.26,2.32,1.67,3.13a10.61,10.61,0,0,0,.69,1.3,8,8,0,0,0-.54-1.37c-.37-.83-.93-2-1.62-3.18s-1.37-2.26-1.9-3A8,8,0,0,0,50.1,88.86Z"/><path class="cls-5" d="M54,103.08s.64-.27,1.66-.73,2.44-1.06,4-1.62,3.1-1,4.18-1.26S65.62,99,65.61,99a1.58,1.58,0,0,0-.48,0c-.31,0-.76.13-1.31.25a36,36,0,0,0-4.22,1.19,37.73,37.73,0,0,0-4,1.7c-.5.25-.9.46-1.17.62A2.24,2.24,0,0,0,54,103.08Z"/><path class="cls-5" d="M50.92,120.08a.5.5,0,0,0,.2.07l.59.15,2.17.5c1.83.43,4.38,1,7.09,1.87a31.67,31.67,0,0,1,6.61,3.11c.8.5,1.41,1,1.83,1.27a7.51,7.51,0,0,0,.65.49s0-.06-.14-.16-.25-.24-.46-.4a17.89,17.89,0,0,0-1.78-1.34,29.34,29.34,0,0,0-6.63-3.19,58.7,58.7,0,0,0-7.13-1.81l-2.19-.43A6.25,6.25,0,0,0,50.92,120.08Z"/><path class="cls-5" d="M39.88,124.27a51.84,51.84,0,0,0,.87-5.11c.42-2.83.7-5.14.63-5.14s-.45,2.27-.86,5.11S39.82,124.27,39.88,124.27Z"/><path class="cls-5" d="M28.39,120.1a13.13,13.13,0,0,0,1-1.23c.62-.77,1.48-1.84,2.45-3s1.88-2.19,2.53-2.94a11.43,11.43,0,0,0,1-1.23,1.64,1.64,0,0,0-.33.28c-.2.19-.48.48-.82.84-.69.71-1.62,1.73-2.59,2.89s-1.82,2.25-2.41,3l-.68,1A1.92,1.92,0,0,0,28.39,120.1Z"/><polygon class="cls-6" points="58.8 130.76 58.8 136.44 57.38 136.44 52.34 152.37 41.14 152.37 36.25 136.6 34.36 136.44 34.36 130.76 58.8 130.76"/><path class="cls-5" d="M35.31,136.6c0,.06,4.94.12,11,.12s11-.06,11-.12-5-.12-11-.12S35.31,136.53,35.31,136.6Z"/><path class="cls-5" d="M27.26,100.07a5.51,5.51,0,0,0,.71.19l2,.48c1.65.41,3.93,1,6.39,1.86S41,104.31,42.56,105l1.85.81a5.28,5.28,0,0,0,.69.28,5,5,0,0,0-.65-.36c-.43-.22-1.05-.53-1.83-.88a63.77,63.77,0,0,0-6.21-2.46,64.76,64.76,0,0,0-6.43-1.8c-.84-.18-1.52-.32-2-.4A3.92,3.92,0,0,0,27.26,100.07Z"/><path class="cls-7" d="M39,145.45c0,.06,3.47.11,7.75.11s7.74-.05,7.74-.11-3.46-.12-7.74-.12S39,145.38,39,145.45Z"/><path class="cls-7" d="M38.59,144.13c0,.06,3.67.12,8.21.12s8.2-.06,8.2-.12-3.67-.12-8.2-.12S38.59,144.06,38.59,144.13Z"/><path class="cls-8" d="M216.66,108.68l-23.11-26a9.78,9.78,0,0,0-7.24-3.28l-76.11-.56a9.8,9.8,0,0,0-9.86,9.81l.13,53.9a9.79,9.79,0,0,0,9.83,9.76l75.84-.32a9.75,9.75,0,0,0,7.38-3.41l23.25-27.05A9.77,9.77,0,0,0,216.66,108.68ZM203.8,118a8.07,8.07,0,1,1-4.44-10.52A8.07,8.07,0,0,1,203.8,118Z"/><path class="cls-3" d="M216.66,108.68l-23.11-26a9.78,9.78,0,0,0-7.24-3.28l-76.11-.56a9.8,9.8,0,0,0-9.86,9.81l.13,53.9a9.79,9.79,0,0,0,9.83,9.76l75.84-.32a9.75,9.75,0,0,0,7.38-3.41l23.25-27.05A9.77,9.77,0,0,0,216.66,108.68ZM203.8,118a8.07,8.07,0,1,1-4.44-10.52A8.07,8.07,0,0,1,203.8,118Z"/><path class="cls-4" d="M220.67,108.68l-23.12-26a9.78,9.78,0,0,0-7.24-3.28l-76.1-.56a9.8,9.8,0,0,0-9.86,9.81l.13,53.9a9.78,9.78,0,0,0,9.83,9.76l75.84-.32a9.77,9.77,0,0,0,7.38-3.41l23.25-27.05A9.78,9.78,0,0,0,220.67,108.68ZM207.81,118a8.07,8.07,0,1,1-4.44-10.52A8.07,8.07,0,0,1,207.81,118Z"/><path class="cls-9" d="M129.66,106.87c.06-6.53,4.09-10.65,9.73-10.59s9.54,4.18,9.48,10.77-4,10.65-9.67,10.59S129.6,113.4,129.66,106.87Zm13.68.13c0-4.15-1.55-6.16-4-6.18s-4.06,2-4.1,6.1,1.61,6.16,4,6.18S143.3,111.15,143.34,107Zm19.13-10.07,6.59.07-26.82,38.5-6.59-.06Zm-6.63,28.45c.06-6.53,4.09-10.64,9.68-10.59s9.59,4.24,9.53,10.77-4.08,10.65-9.73,10.6S155.78,131.91,155.84,125.38Zm13.62.13c0-4.1-1.55-6.16-4-6.18s-4.06,2-4.1,6.1,1.6,6.16,4,6.19S169.42,129.61,169.46,125.51Z"/><path class="cls-5" d="M218.14,124.71a3.54,3.54,0,0,1,.75.54c.48.38,1.17,1,2.05,1.7s1.95,1.69,3.15,2.81,2.54,2.43,3.93,4a40.83,40.83,0,0,1,4.14,5.4l.49.79.46.82a16.57,16.57,0,0,1,.89,1.73,11.11,11.11,0,0,1,1,4,6.3,6.3,0,0,1-.32,2.18,5.65,5.65,0,0,1-1.14,2,7.47,7.47,0,0,1-4,2.27,10.92,10.92,0,0,1-4.69-.11,20.31,20.31,0,0,1-4.46-1.65,27.66,27.66,0,0,1-7.46-5.55,38.89,38.89,0,0,1-2.89-3.35c-.87-1.14-1.7-2.28-2.48-3.4a64.29,64.29,0,0,1-7.07-12.72c-.38-1-.71-1.9-1-2.79-.14-.45-.27-.89-.38-1.32a9.34,9.34,0,0,1-.25-1.28,3.23,3.23,0,0,1,.57-2.33,3.42,3.42,0,0,1,1.65-1.14,3.67,3.67,0,0,1,.83-.19,3.72,3.72,0,0,1,.74,0,3.51,3.51,0,0,1,1.12.25,2,2,0,0,1,.61.37c.12.11.17.17.16.18s-.09,0-.22-.11a3.11,3.11,0,0,0-.61-.27,3.53,3.53,0,0,0-1.07-.15,5.6,5.6,0,0,0-.69,0,4.51,4.51,0,0,0-.75.22,3,3,0,0,0-1.42,1.07,2.8,2.8,0,0,0-.42,2,8.57,8.57,0,0,0,.28,1.2c.11.42.25.84.4,1.28.3.87.65,1.78,1,2.73a66.89,66.89,0,0,0,7.16,12.48c.79,1.11,1.62,2.23,2.49,3.35a34.39,34.39,0,0,0,2.83,3.26,27.4,27.4,0,0,0,7.23,5.37,19.55,19.55,0,0,0,4.26,1.57,9.94,9.94,0,0,0,4.3.12,6.55,6.55,0,0,0,3.51-2,5.11,5.11,0,0,0,1.28-3.56,10.21,10.21,0,0,0-.9-3.7,16.38,16.38,0,0,0-.83-1.68l-.45-.81-.47-.77a40.26,40.26,0,0,0-4-5.37c-1.34-1.56-2.64-2.89-3.8-4s-2.19-2.12-3-2.9l-1.94-1.83A3.78,3.78,0,0,1,218.14,124.71Z"/><path class="cls-5" d="M182,70.89c-.05,0-1-6.78-2.17-15.15s-2-15.18-2-15.18,1,6.77,2.18,15.15S182.07,70.88,182,70.89Z"/><path class="cls-5" d="M210.61,33.78a.55.55,0,0,1,0,.1l-.11.31L210,35.34c-.4,1-1,2.46-1.66,4.24-1.39,3.57-3.28,8.53-5.3,14s-3.77,10.51-5,14.14c-.62,1.8-1.12,3.27-1.47,4.3-.17.5-.31.89-.41,1.17l-.11.3a.39.39,0,0,1,0,.1l0-.11.09-.31L196.5,72c.33-1,.81-2.5,1.42-4.32,1.22-3.65,3-8.66,5-14.16s3.93-10.45,5.36-14c.71-1.78,1.29-3.22,1.7-4.22l.48-1.14.13-.29C210.59,33.81,210.6,33.78,210.61,33.78Z"/><path class="cls-5" d="M231.09,60.46s-4.93,3.93-11.08,8.69-11.17,8.57-11.2,8.53,4.93-3.92,11.09-8.68S231.06,60.42,231.09,60.46Z"/><path class="cls-5" d="M170,72.16s-2-2.42-4.28-5.47-4.19-5.54-4.15-5.57,2,2.42,4.29,5.46S170,72.13,170,72.16Z"/><path class="cls-5" d="M228.75,91.27s-3.06-.8-6.79-1.89-6.76-2-6.74-2.06,3.05.8,6.79,1.89S228.76,91.22,228.75,91.27Z"/><path class="cls-6" d="M75.39,146.23s-14.48,4-15.06,4.21c-.87.3-.73,3.5.63,3.45.64,0,11.12.39,12.45.31a27.15,27.15,0,0,0,4.88-1.49Z"/><path class="cls-5" d="M69.36,151.75a12.25,12.25,0,0,0-.64-1.55,16.35,16.35,0,0,0-1-1.34,2.69,2.69,0,0,1,1.23,1.22A2.57,2.57,0,0,1,69.36,151.75Z"/><path class="cls-5" d="M70.87,151.07c-.07,0-.22-.68-.61-1.43s-.84-1.29-.78-1.34a2.76,2.76,0,0,1,1,1.23A2.73,2.73,0,0,1,70.87,151.07Z"/><path class="cls-5" d="M72.28,150.69a8.87,8.87,0,0,0-.33-1.53,10.65,10.65,0,0,0-.79-1.36,2.27,2.27,0,0,1,1,1.27A2.16,2.16,0,0,1,72.28,150.69Z"/><path class="cls-5" d="M72,148.82a2.46,2.46,0,0,1-.16-1.08,4.88,4.88,0,0,1,.15-1.18,4.31,4.31,0,0,1,.21-.67.79.79,0,0,1,.24-.36.38.38,0,0,1,.49,0,.6.6,0,0,1,.2.41,2.41,2.41,0,0,1,0,.38,3.22,3.22,0,0,1-.08.71,4.19,4.19,0,0,1-.45,1.1A3.2,3.2,0,0,1,72,149s.21-.36.5-1a4.74,4.74,0,0,0,.38-1.07,3.51,3.51,0,0,0,.07-.66c0-.23,0-.5-.14-.61a.14.14,0,0,0-.19,0,.64.64,0,0,0-.16.26,5.93,5.93,0,0,0-.22.63,6.93,6.93,0,0,0-.19,1.14C72,148.4,72.07,148.81,72,148.82Z"/><path class="cls-5" d="M72,148.67a2,2,0,0,1,.94-.15,4.53,4.53,0,0,1,1,.12,2.69,2.69,0,0,1,.59.22.6.6,0,0,1,.32.66.72.72,0,0,1-.52.52,1.3,1.3,0,0,1-.65,0,2.66,2.66,0,0,1-.94-.46,2.58,2.58,0,0,1-.67-.67,6,6,0,0,1,.77.53,2.69,2.69,0,0,0,.89.38,1.23,1.23,0,0,0,.54,0,.47.47,0,0,0,.35-.34.37.37,0,0,0-.22-.4,1.83,1.83,0,0,0-.52-.21,4.93,4.93,0,0,0-1-.17C72.41,148.65,72.05,148.71,72,148.67Z"/><path class="cls-5" d="M67.13,151.91a3.84,3.84,0,0,0-1-2.44,1.66,1.66,0,0,1,.93,1A1.69,1.69,0,0,1,67.13,151.91Z"/><path class="cls-5" d="M77.24,152.57a3.35,3.35,0,0,1-.56.27,14.71,14.71,0,0,1-1.61.5,23.15,23.15,0,0,1-5.53.52c-2.17,0-4.13-.12-5.55-.18l-1.67-.09a3.49,3.49,0,0,1-.62-.06,2.52,2.52,0,0,1,.62,0H64l5.54.11a26.23,26.23,0,0,0,5.49-.45C76.41,152.89,77.22,152.53,77.24,152.57Z"/><path class="cls-5" d="M77.66,152.9a9,9,0,0,1-1.08-.49,5.06,5.06,0,0,0-2.74-.45,4.33,4.33,0,0,0-2.37,1.41,11,11,0,0,1-.83.85,4.38,4.38,0,0,1,.71-1,5.66,5.66,0,0,1,1-.9,3.47,3.47,0,0,1,1.49-.63,4.75,4.75,0,0,1,2.85.54A3.77,3.77,0,0,1,77.66,152.9Z"/><path class="cls-5" d="M63.14,153.53a5.57,5.57,0,0,1,.21-.55,2.77,2.77,0,0,0,.11-1.36,2.72,2.72,0,0,0-.59-1.23c-.23-.28-.41-.41-.39-.44s.23.08.49.35a2.47,2.47,0,0,1,.68,1.29,2.41,2.41,0,0,1-.17,1.44C63.32,153.38,63.16,153.54,63.14,153.53Z"/><path class="cls-6" d="M90.5,146.65s14.85,2.26,15.45,2.4c.9.2,1.14,3.39-.21,3.5-.64,0-11,1.71-12.33,1.79a32.27,32.27,0,0,1-5.47-1Z"/><path class="cls-5" d="M97.14,151.42a15.26,15.26,0,0,1,.45-1.62,13.54,13.54,0,0,1,.86-1.44,3.23,3.23,0,0,0-1.31,3.06Z"/><path class="cls-5" d="M95.56,150.92c.08,0,.14-.69.43-1.49s.68-1.37.63-1.42a3.61,3.61,0,0,0-1.06,2.91Z"/><path class="cls-5" d="M94.11,150.72a9.08,9.08,0,0,1,.16-1.56,10.06,10.06,0,0,1,.62-1.44A2.18,2.18,0,0,0,94,149.1,2.25,2.25,0,0,0,94.11,150.72Z"/><path class="cls-5" d="M94.15,148.83a2.82,2.82,0,0,0,0-1.09,5.52,5.52,0,0,0-.28-1.16,5.21,5.21,0,0,0-.3-.64.8.8,0,0,0-.27-.32.38.38,0,0,0-.49.08.62.62,0,0,0-.14.43,2.36,2.36,0,0,0,0,.38,3.78,3.78,0,0,0,.18.7,4,4,0,0,0,.57,1,2.69,2.69,0,0,0,.75.79s-.25-.33-.61-.88a4.3,4.3,0,0,1-.5-1,3.25,3.25,0,0,1-.15-.65c0-.22-.06-.49.06-.62a.14.14,0,0,1,.19,0,.54.54,0,0,1,.18.23,4.3,4.3,0,0,1,.3.61,5.71,5.71,0,0,1,.32,1.1C94.12,148.41,94.11,148.83,94.15,148.83Z"/><path class="cls-5" d="M94.11,148.68a2.29,2.29,0,0,0-1,0,4.55,4.55,0,0,0-1,.25,2.14,2.14,0,0,0-.56.29.6.6,0,0,0-.25.69.77.77,0,0,0,.58.46,1.51,1.51,0,0,0,.65-.08,2.53,2.53,0,0,0,.87-.57,2.5,2.5,0,0,0,.59-.74,7,7,0,0,0-.7.61,2.7,2.7,0,0,1-.84.49,1.19,1.19,0,0,1-.53.05.49.49,0,0,1-.39-.3.37.37,0,0,1,.16-.42,2,2,0,0,1,.5-.27,5.85,5.85,0,0,1,1-.29C93.75,148.71,94.11,148.72,94.11,148.68Z"/><path class="cls-5" d="M99.37,151.31A8.19,8.19,0,0,1,99.5,150a7.88,7.88,0,0,1,.57-1.21,2.1,2.1,0,0,0-.7,2.54Z"/><path class="cls-5" d="M89.42,153.18a3.52,3.52,0,0,0,.59.19,11.62,11.62,0,0,0,1.66.31,23.13,23.13,0,0,0,5.55-.14c2.15-.28,4.08-.61,5.48-.84l1.65-.28a4.7,4.7,0,0,0,.61-.14,2.88,2.88,0,0,0-.62,0l-1.67.21-5.48.77a26.34,26.34,0,0,1-5.51.21C90.28,153.39,89.43,153.13,89.42,153.18Z"/><path class="cls-5" d="M89,153.56s.39-.25,1-.62a5,5,0,0,1,2.67-.78,4.35,4.35,0,0,1,2.52,1.12,9.3,9.3,0,0,0,.93.75,4.25,4.25,0,0,0-.82-.88,5.6,5.6,0,0,0-1.06-.78,3.52,3.52,0,0,0-1.56-.45,4.82,4.82,0,0,0-2.77.87A3.83,3.83,0,0,0,89,153.56Z"/><path class="cls-10" d="M136.69,85.63a.92.92,0,0,0-.43-.43l.35-.71a2,2,0,0,0-.2-.71c-.17-.3-.78-.28-.78-.28l.09-.19a.89.89,0,0,0-.08-.88.76.76,0,0,0-.08-.11,1.4,1.4,0,0,0-.77-.39s.34-.67.19-1a1.44,1.44,0,0,0-1.48-.58,22.15,22.15,0,0,0-2.69,1.28.64.64,0,0,1-.9-.33,8.86,8.86,0,0,0-1.31-2.47A1.36,1.36,0,0,0,127,78.3a.29.29,0,0,0-.15.42,14.49,14.49,0,0,1,1,1.72c.17.45.36,3.87.36,3.87l-.94,1.78L117.74,101s-14.27-9.62-14.21-9.86l-.67,11,10.75,7.14a7.58,7.58,0,0,0,11.13-3.27L132,90.36l.88-1.28,3.41-2.19S136.81,85.91,136.69,85.63Z"/><path class="cls-11" d="M135.13,82l-.07.06-.21.16-.76.59-1.14.87a7.67,7.67,0,0,1-.69.5,1,1,0,0,1-.9.12.75.75,0,0,1-.34-.34,1.24,1.24,0,0,1-.08-.46,1.36,1.36,0,0,1,.37-.78,6.64,6.64,0,0,1,.56-.52l.52-.42.74-.61.21-.17.08,0-.07.07-.19.17-.73.64-.51.43a5.32,5.32,0,0,0-.55.52,1.16,1.16,0,0,0-.34.73.71.71,0,0,0,.36.71.8.8,0,0,0,.43,0,1.4,1.4,0,0,0,.4-.16,7.44,7.44,0,0,0,.68-.49l1.15-.85.78-.57.22-.16S135.12,81.94,135.13,82Z"/><path class="cls-11" d="M135.88,83.55s0,0-.15.13l-.46.33c-.38.27-.93.63-1.55,1-.15.09-.31.19-.46.26a1,1,0,0,1-.5.09.77.77,0,0,1-.64-.51.75.75,0,0,1,0-.57.46.46,0,0,1,.09-.12l0,0a.76.76,0,0,0-.1.18.77.77,0,0,0,0,.53.7.7,0,0,0,.59.45.83.83,0,0,0,.45-.09c.15-.07.3-.16.46-.25l1.56-1,.47-.31Z"/><path class="cls-11" d="M136.32,85.12a.54.54,0,0,1-.16.09l-.46.23c-.39.2-.93.46-1.54.74a3.62,3.62,0,0,1-.45.2.81.81,0,0,1-.46,0,.5.5,0,0,1-.35-.24.63.63,0,0,1-.06-.37.83.83,0,0,1,.28-.45.5.5,0,0,1,.16-.11s-.06.05-.14.14a.76.76,0,0,0-.23.43.46.46,0,0,0,.05.32.48.48,0,0,0,.3.21.8.8,0,0,0,.43,0c.14,0,.28-.13.44-.2l1.54-.71.48-.21C136.26,85.13,136.32,85.11,136.32,85.12Z"/><path class="cls-11" d="M136.57,86.57a4.63,4.63,0,0,1-.54.14l-1.32.28-.38.08a1.47,1.47,0,0,1-.36,0,.55.55,0,0,1-.33-.11.41.41,0,0,1-.12-.28.48.48,0,0,1,.21-.36c.08-.06.14-.07.14-.06a.41.41,0,0,0-.12.09.44.44,0,0,0-.17.33.29.29,0,0,0,.11.22A.43.43,0,0,0,134,87a1.4,1.4,0,0,0,.34,0l.38-.07,1.33-.26A4,4,0,0,1,136.57,86.57Z"/><path class="cls-11" d="M132.87,85.88a4.14,4.14,0,0,0-1-.1,4,4,0,0,0-1,.19,1.78,1.78,0,0,1,1-.28A1.74,1.74,0,0,1,132.87,85.88Z"/><path class="cls-5" d="M81.92,82.61s-4.79-4-3.68-6.84,4.19-4.17,5.7-9.24c1.21-4.05,8.42-11.85,17-6,0,0,2.9-.46,4.54.86s2,3.94,2.74,7c1.08,4.68,1.67,8.27-.42,10.56s-2.84,2.9-2.73,5.5c.15,3.4,1.64,2.94.35,5.42l-7.16-2.34-.08-2-.72,1.85-4.17-1.5Z"/><path class="cls-5" d="M105.78,65.54a4.47,4.47,0,0,0,.36,3.38,6.06,6.06,0,0,1,.73,3.37c-.39,2-2.91,3.16-3.19,5.21-.15,1.1.4,2.21.19,3.3a3.82,3.82,0,0,1-2,2.37c-.93.53-2,.88-2.84,1.5,0,0-1.93,1.58-5.25-1"/><path class="cls-10" d="M92.18,62.89a1.76,1.76,0,0,0-2.08,1.17h0L83.21,86.91c-.89,2.68,2.47,5.53,5.34,6.46h0c2.9.94,3.49-.44,4.41-3,1.54-4.21,2.09-5.8,2.08-5.77s3.84.66,6.24-3.82a53.18,53.18,0,0,0,3.32-9.36c.81-2.91.14-7.06-2.8-7.74Z"/><path class="cls-5" d="M102.17,73.86a.65.65,0,0,1-.8.41.62.62,0,0,1-.44-.77.65.65,0,0,1,.8-.41A.62.62,0,0,1,102.17,73.86Z"/><path class="cls-5" d="M103.12,73c-.1,0-.45-.45-1.1-.67s-1.25-.07-1.29-.17.1-.17.36-.25a1.8,1.8,0,0,1,1.07,0,1.61,1.61,0,0,1,.84.64C103.15,72.84,103.17,73,103.12,73Z"/><path class="cls-5" d="M95.68,71.79a.65.65,0,0,1-.8.41.62.62,0,0,1-.44-.77.65.65,0,0,1,.8-.41A.62.62,0,0,1,95.68,71.79Z"/><path class="cls-5" d="M96.59,71.07c-.1.05-.44-.45-1.1-.67s-1.25-.07-1.29-.17.1-.17.37-.25a1.77,1.77,0,0,1,1.06,0,1.71,1.71,0,0,1,.84.64C96.62,70.88,96.64,71.05,96.59,71.07Z"/><path class="cls-5" d="M97.28,76.75a4.29,4.29,0,0,1,1.13.18c.17,0,.34.06.41,0a1,1,0,0,0,.06-.54c0-.46,0-.94,0-1.44a23.72,23.72,0,0,1,0-3.72,22.14,22.14,0,0,1,.26,3.71c0,.51,0,1,0,1.45A1,1,0,0,1,99,77a.43.43,0,0,1-.36.15.83.83,0,0,1-.29-.06A4.21,4.21,0,0,1,97.28,76.75Z"/><path class="cls-11" d="M95,84.65a12.74,12.74,0,0,1-5.76-3.9s.47,3.82,5.37,5Z"/><path class="cls-11" d="M96.45,78.23a1.25,1.25,0,0,0-.9-.81,1.13,1.13,0,0,0-.88.15.71.71,0,0,0-.33.76.84.84,0,0,0,.79.51,2.58,2.58,0,0,0,1-.21.72.72,0,0,0,.25-.12.23.23,0,0,0,.08-.25"/><path class="cls-5" d="M97.08,69.2c-.1.17-.77,0-1.58-.1s-1.51,0-1.58-.15.11-.24.41-.37a2.58,2.58,0,0,1,1.22-.18,2.65,2.65,0,0,1,1.18.37C97,68.94,97.12,69.12,97.08,69.2Z"/><path class="cls-5" d="M104.06,70.86c-.18.11-.69-.2-1.35-.4s-1.25-.24-1.33-.43.09-.22.38-.3a2.28,2.28,0,0,1,1.17.06,2.16,2.16,0,0,1,1,.61C104.11,70.62,104.15,70.8,104.06,70.86Z"/><path class="cls-5" d="M84.16,77.88l3.87-13a4.55,4.55,0,0,1,1.31-2.39,4.23,4.23,0,0,1,2.51-.61A47.62,47.62,0,0,1,103.08,63a1.92,1.92,0,0,1-1.43,2,8.58,8.58,0,0,1-2.68.2,3.36,3.36,0,0,0-2.48.83c-.65.7-.71,1.79-1.32,2.52-1,1.27-3.25,1-4.29,2.27-.79,1-.58,2.36-.84,3.58a9,9,0,0,1-1.37,3.4c-.66,1.24,1,3.62-.65,6.69L84.8,83.6l1.41-4.76L84.3,83.3Z"/><path class="cls-5" d="M95.34,76.67c.06,0,0,.21,0,.46a1.93,1.93,0,0,0,.19.89,1.75,1.75,0,0,0,.63.66c.21.14.37.21.36.29s-.2.14-.51.07a1.52,1.52,0,0,1-1-2C95.11,76.75,95.28,76.63,95.34,76.67Z"/><path class="cls-5" d="M94.38,66.25l-.18.1-.51.28a6,6,0,0,0-1.59,1.42,6.13,6.13,0,0,0-1.25,2.86,6.91,6.91,0,0,0,0,1.87,12.3,12.3,0,0,1,.12,2,4,4,0,0,1-.22,1,6.38,6.38,0,0,1-.47.9,4.59,4.59,0,0,0-.72,1.69,5.93,5.93,0,0,0,0,1.69c.08.52.17,1,.21,1.48a3.93,3.93,0,0,1-.32,2.13,2.2,2.2,0,0,1-.35.48l-.15.14a3.5,3.5,0,0,0,.43-.65,4,4,0,0,0,.26-2.09c0-.45-.15-.94-.23-1.47a6.16,6.16,0,0,1-.06-1.73c.14-1.28,1.37-2.21,1.4-3.62a11,11,0,0,0-.12-2,7.18,7.18,0,0,1,0-1.91A6.12,6.12,0,0,1,92,68a5.9,5.9,0,0,1,1.65-1.4,3.77,3.77,0,0,1,.54-.25A.7.7,0,0,1,94.38,66.25Z"/><path class="cls-5" d="M109.92,85.75l-.06,0-.18.13a3,3,0,0,1-.79.32,3.46,3.46,0,0,1-1.35.05,3,3,0,0,1-1.59-.8,3.26,3.26,0,0,1-1-1.93,3.18,3.18,0,0,1,.08-1.22,4,4,0,0,1,.57-1.15,14.77,14.77,0,0,1,1.92-2,6.86,6.86,0,0,0,.94-1.07,5,5,0,0,0,.65-1.3,8.27,8.27,0,0,0,.36-2.86,19.26,19.26,0,0,0-.28-2.7,25.53,25.53,0,0,0-1.15-4.45A25,25,0,0,0,106.86,64c-.16-.33-.29-.58-.38-.75a1.39,1.39,0,0,1-.13-.27,1.42,1.42,0,0,1,.16.25c.1.17.24.41.41.74a22.59,22.59,0,0,1,1.28,2.85,24.33,24.33,0,0,1,1.2,4.46,21,21,0,0,1,.29,2.73,8.44,8.44,0,0,1-.37,2.92,5.16,5.16,0,0,1-.67,1.35,6.75,6.75,0,0,1-1,1.09,15.6,15.6,0,0,0-1.9,1.92,3.6,3.6,0,0,0-.55,1.11,2.82,2.82,0,0,0-.09,1.15,3.12,3.12,0,0,0,.9,1.86,2.88,2.88,0,0,0,1.52.79,3.32,3.32,0,0,0,1.31,0A4.2,4.2,0,0,0,109.92,85.75Z"/><path class="cls-6" d="M80.42,81a3,3,0,0,0,1.12-.55,4.49,4.49,0,0,0,1.48-3,18.08,18.08,0,0,0,.06-2.37,10.45,10.45,0,0,1,.21-2.74A4.83,4.83,0,0,1,83.85,71a3.43,3.43,0,0,1,1.09-1.12,15.09,15.09,0,0,1,3.12-.9,3.42,3.42,0,0,0,1.33-.87,8.8,8.8,0,0,0,.93-1.27,7.14,7.14,0,0,1,1.94-2.33A3.07,3.07,0,0,1,93.6,64,7.64,7.64,0,0,1,94.94,64a13.15,13.15,0,0,0,2.36,0,7,7,0,0,0,3.15-1.26,7.41,7.41,0,0,0,.72-.59l.18-.16.07-.06a5.29,5.29,0,0,1-.93.87,7,7,0,0,1-3.17,1.33,14.43,14.43,0,0,1-2.39,0,4.32,4.32,0,0,0-2.58.54,7,7,0,0,0-1.88,2.28,7.86,7.86,0,0,1-1,1.3,3.49,3.49,0,0,1-1.4.92A15.31,15.31,0,0,0,85,70a3.85,3.85,0,0,0-1.58,2.4,10.12,10.12,0,0,0-.22,2.7,18.25,18.25,0,0,1-.09,2.39,4.44,4.44,0,0,1-1.56,3,2.86,2.86,0,0,1-.83.43l-.24,0Z"/><path class="cls-6" d="M83.9,66.68a3.63,3.63,0,0,0,.68.18,3.43,3.43,0,0,0,1.87-.3,7.89,7.89,0,0,0,2.24-1.77c.39-.39.78-.8,1.24-1.19a5.56,5.56,0,0,1,1.56-1,4.92,4.92,0,0,1,1.82-.34,15.68,15.68,0,0,1,1.72.09,14.29,14.29,0,0,0,1.54.11,6.81,6.81,0,0,0,1.32-.1,3.72,3.72,0,0,0,1.75-.77c.34-.3.47-.53.49-.51l-.1.16a1.29,1.29,0,0,1-.13.18l-.22.22a3.56,3.56,0,0,1-1.76.84,6.38,6.38,0,0,1-1.35.13A14.1,14.1,0,0,1,95,62.52a13.55,13.55,0,0,0-1.7-.08,4.89,4.89,0,0,0-1.76.32,9,9,0,0,0-2.75,2.15,7.72,7.72,0,0,1-2.3,1.76,3.25,3.25,0,0,1-1.94.26,2.05,2.05,0,0,1-.51-.16C84,66.72,83.9,66.69,83.9,66.68Z"/><path class="cls-6" d="M109,76.4a4,4,0,0,0,.17-.66,2.87,2.87,0,0,0-.5-1.75,11.54,11.54,0,0,0-1.9-2,5.3,5.3,0,0,1-1-1.34,4.6,4.6,0,0,1-.43-1.74c-.08-1.23.13-2.38.1-3.42a4.05,4.05,0,0,0-.76-2.59,2.57,2.57,0,0,0-1.52-1,2.72,2.72,0,0,0-.68,0s.06,0,.17,0a2.1,2.1,0,0,1,.52,0,2.59,2.59,0,0,1,1.61,1,4.16,4.16,0,0,1,.83,2.66c0,1.07-.17,2.22-.09,3.42a4.51,4.51,0,0,0,.41,1.68,4.8,4.8,0,0,0,1,1.29,11.34,11.34,0,0,1,1.89,2.06,3,3,0,0,1,.46,1.83,2,2,0,0,1-.15.5Z"/><path class="cls-5" d="M78.3,78.48l-.22-.12a2.23,2.23,0,0,1-.54-.49,3.15,3.15,0,0,1-.67-2.53,3.21,3.21,0,0,1,.3-.85,3.29,3.29,0,0,1,.61-.75,7.37,7.37,0,0,1,1.8-1.11,7.09,7.09,0,0,0,1.93-1.23,4.48,4.48,0,0,0,1.09-2.16c.21-.82.35-1.65.62-2.42a11,11,0,0,1,3.65-5,10.08,10.08,0,0,1,2.29-1.35,5.66,5.66,0,0,1,.68-.25l.24-.07s-.32.12-.89.39A10.46,10.46,0,0,0,87,61.88a11.15,11.15,0,0,0-2.58,2.91,10.87,10.87,0,0,0-1,2.09c-.26.75-.4,1.57-.61,2.41a4.71,4.71,0,0,1-1.14,2.23,7.34,7.34,0,0,1-2,1.26,7.71,7.71,0,0,0-1.78,1.07,3.23,3.23,0,0,0-.59.71,2.82,2.82,0,0,0-.29.81,3.18,3.18,0,0,0,.08,1.46,3.11,3.11,0,0,0,.51,1A3.41,3.41,0,0,0,78.3,78.48Z"/><path class="cls-5" d="M110,76.73s.15-.17.37-.5A4.22,4.22,0,0,0,111,74.7a5.89,5.89,0,0,0-.09-2.45,9.73,9.73,0,0,0-1.24-2.76c-.57-.92-1.19-1.75-1.71-2.54a15.32,15.32,0,0,1-1.23-2.19,7.61,7.61,0,0,1-.5-1.62,3.47,3.47,0,0,1-.05-.46c0-.1,0-.16,0-.16s0,.22.12.61a9.15,9.15,0,0,0,.55,1.58,16,16,0,0,0,1.25,2.15c.52.78,1.14,1.61,1.72,2.54A9.27,9.27,0,0,1,111,72.21a5.64,5.64,0,0,1,0,2.51,4.11,4.11,0,0,1-.68,1.55,3.2,3.2,0,0,1-.31.35Z"/><path class="cls-5" d="M74,125.06l-2.85,5S57,124.84,48.67,126.35c-3.15.57-6.52,7.72-1.94,12.31s12.49,10.8,27.51,12.85c.38.05,6.53,1.37,6.15,1.33S89,154.22,89,154.22l2.11-8,16.78,2.63c9.89-.68,14.73-11.25,8.77-14.65-5.55-3.18-16-3.43-16-3.43l-3.78-5.94Z"/><path class="cls-6" d="M89.35,154.51c.05-.27.16-1,.41-2.49.13-.8.3-1.77.51-2.89.11-.56.22-1.15.37-1.78q.1-.48.24-1a4.74,4.74,0,0,1,.15-.5,1.46,1.46,0,0,1,.26-.49l0,.12c-3.57-1.27-8-2.94-12.79-5-2.93-1.24-5.69-2.5-8.12-3.81a27,27,0,0,1-3.33-2.06c-1-.73-1.86-1.46-2.69-2.09a14.65,14.65,0,0,0-4.22-2.48c-.27-.1-.52-.16-.74-.22s-.4-.09-.55-.12l-.34-.06q-.12,0-.12,0h.12l.35,0a4,4,0,0,1,.56.1,6,6,0,0,1,.74.2,10.74,10.74,0,0,1,2,.87,20.31,20.31,0,0,1,2.33,1.57c.83.63,1.71,1.36,2.7,2.08a26.83,26.83,0,0,0,3.32,2c2.43,1.3,5.18,2.55,8.11,3.79,4.75,2,9.21,3.7,12.77,5l.1,0-.07.09a1.09,1.09,0,0,0-.22.43c-.06.16-.11.32-.16.48-.09.33-.17.65-.25,1-.14.62-.26,1.21-.38,1.77-.22,1.12-.39,2.09-.54,2.88s-.26,1.41-.34,1.84c0,.21-.08.37-.1.48A1.66,1.66,0,0,1,89.35,154.51Z"/><path class="cls-6" d="M113.43,135.17h-.09l-.26,0c-.23,0-.57-.12-1-.16a19.37,19.37,0,0,0-3.72-.13,28.12,28.12,0,0,0-5.45.9c-1,.27-2.05.58-3.12,1s-2.16.8-3.28,1.24A33.64,33.64,0,0,1,93.15,139c-1.1.3-2.17.54-3.2.73-2,.4-3.92.65-5.49.84s-2.84.32-3.71.41l-1,.1-.26,0q-.09,0-.09,0l.09,0,.26,0,1-.14,3.71-.46c1.56-.21,3.42-.47,5.47-.88,1-.2,2.09-.44,3.18-.74a32.49,32.49,0,0,0,3.33-1.11c1.12-.44,2.22-.87,3.29-1.24s2.13-.69,3.14-1a26.67,26.67,0,0,1,5.49-.87,18.59,18.59,0,0,1,3.73.19c.44.06.78.15,1,.19l.26.06Z"/><path class="cls-5" d="M87.58,132.29c0,.12-.75.31-2,.43a26.23,26.23,0,0,1-9.75-1c-1.2-.39-1.91-.73-1.87-.85s3,.54,6.79.93S87.55,132,87.58,132.29Z"/><path class="cls-6" d="M100.84,130.89a4.73,4.73,0,0,1-.55.15,4.87,4.87,0,0,0-.65.17,8.68,8.68,0,0,0-.85.26,18.48,18.48,0,0,0-2.14.85,28.05,28.05,0,0,0-2.49,1.33A38.72,38.72,0,0,0,90,136.6c-.52.41-.93.75-1.21,1a3.55,3.55,0,0,1-.45.35,4,4,0,0,1,.41-.41c.26-.25.66-.6,1.17-1a34.13,34.13,0,0,1,4.19-3,27,27,0,0,1,2.51-1.33,19.94,19.94,0,0,1,2.17-.82c.32-.1.61-.17.87-.23a6,6,0,0,1,.65-.14Z"/><path class="cls-6" d="M85.11,137.94a4.09,4.09,0,0,1-1-.28,22.09,22.09,0,0,1-2.27-1l-2.2-1.15a9.8,9.8,0,0,1-.91-.49,4.24,4.24,0,0,1,1,.37c.58.27,1.37.67,2.23,1.11s1.65.82,2.23,1.07A9.24,9.24,0,0,1,85.11,137.94Z"/><path class="cls-6" d="M86.64,125.65a13.22,13.22,0,0,1-.07,1.36c0,.83-.1,2-.08,3.26s.12,2.43.2,3.27a12.08,12.08,0,0,1,.13,1.35,1.8,1.8,0,0,1-.09-.36c0-.23-.1-.56-.16-1a28.34,28.34,0,0,1-.26-3.27,30.1,30.1,0,0,1,.13-3.28c0-.42.09-.76.13-1A1.45,1.45,0,0,1,86.64,125.65Z"/><path class="cls-6" d="M88.22,126.16s-.06.06-.15.16a1,1,0,0,0-.22.51.94.94,0,0,0,.22.76.81.81,0,0,0,.9.17.84.84,0,0,0,.58-.72.94.94,0,0,0-.33-.71,1,1,0,0,0-.51-.25c-.13,0-.21,0-.21,0s.07,0,.22,0a1,1,0,0,1,.58.22,1.06,1.06,0,0,1,.41.82,1,1,0,0,1-1.77.65,1.05,1.05,0,0,1,.08-1.43A.47.47,0,0,1,88.22,126.16Z"/><path class="cls-5" d="M92.53,120.45a3,3,0,0,1-.27.36,11.86,11.86,0,0,1-.84.88A15.22,15.22,0,0,1,90,122.84a13.62,13.62,0,0,1-3.94,2,14.71,14.71,0,0,1-1.75.41,9,9,0,0,1-1.21.14,2.5,2.5,0,0,1-.44,0s.63-.07,1.62-.26a17.24,17.24,0,0,0,1.73-.45,15.45,15.45,0,0,0,2-.83,14.89,14.89,0,0,0,1.87-1.11,16,16,0,0,0,1.4-1.11C92.09,120.91,92.5,120.43,92.53,120.45Z"/><path class="cls-5" d="M98.85,124.3s-.62.06-1.36.24-1.29.47-1.31.42a2.68,2.68,0,0,1,1.27-.6A2.79,2.79,0,0,1,98.85,124.3Z"/><g class="cls-12"><path d="M84.3,125.17A13.31,13.31,0,0,0,92,120.7a3.16,3.16,0,0,1-.76,3.19,5.13,5.13,0,0,0,2.88,0c1-.13,2.14,0,2.6.86a102.13,102.13,0,0,1-13,.37"/></g><path class="cls-5" d="M75.69,118.37a4.82,4.82,0,0,0-1.49-1,4.91,4.91,0,0,0-1.9-.32,5.29,5.29,0,0,0-2.27.61,9.94,9.94,0,0,0-3.09,3,9.83,9.83,0,0,0-.68,1.13,1.92,1.92,0,0,1-.24.42,2.65,2.65,0,0,1,.18-.45,7.25,7.25,0,0,1,.64-1.17c.32-.47.73-1,1.21-1.56a6.92,6.92,0,0,1,1.9-1.51,5.21,5.21,0,0,1,2.35-.61,4.69,4.69,0,0,1,1.94.37,3.49,3.49,0,0,1,1.13.72,1.44,1.44,0,0,1,.25.26C75.67,118.33,75.7,118.37,75.69,118.37Z"/><polygon class="cls-10" points="84.77 85.11 79.93 86.14 82.35 95.2 90.92 97.05 96.8 92.87 97.61 87.88 92.56 85.97 84.77 85.11"/><path class="cls-6" d="M81.36,85.77s3.28,9.52,9.33,8.64,5.55-7,5.55-7,6.32,1.93,8.27,4,.81,6.5.81,6.5l-1.64,8-3.56,15.43s1.36,4.2-2.12,5.24l-1.1-1.72-20.9.59s-4.47,5.15-5.86,3.37a26.18,26.18,0,0,1-2.74-5.24L77,86.91Z"/><path class="cls-6" d="M102.86,90.12c.17.1,14.84,10.76,14.84,10.76s-1.16,8.77,5.88,7.37c0,0-2.85,7.34-6.69,5.8-1.1-.44-14.62-9-14.62-9L99.4,98.93Z"/><path class="cls-6" d="M81.36,86.24s-.33,0-.89.06C77.6,86.58,67,88.77,66,96.25c-.51,3.91-.66,15.35-1.21,20.15,0,0,.88,6.66,1.21,7.9.59,2.2,11.22-1.32,11.22-1.32l0-21.17L81,86.25"/><path class="cls-5" d="M74.66,105.46a1.15,1.15,0,0,1,0,.17c0,.11,0,.28,0,.49a7,7,0,0,0,.44,1.74c.27.71.69,1.53,1.1,2.46a9.14,9.14,0,0,1,.55,1.5,8.51,8.51,0,0,1,.29,1.7,20.9,20.9,0,0,1-.08,3.3c-.09,1-.17,1.93-.3,2.69a10.81,10.81,0,0,1-.42,1.77c-.07.2-.13.36-.17.46s-.07.16-.08.16.07-.23.18-.64a12.23,12.23,0,0,0,.36-1.77c.11-.76.18-1.67.26-2.68a20.73,20.73,0,0,0,.07-3.28,9,9,0,0,0-.28-1.67,11.24,11.24,0,0,0-.53-1.48c-.4-.92-.81-1.75-1.07-2.48a6.33,6.33,0,0,1-.39-1.78,2.61,2.61,0,0,1,0-.49C74.64,105.51,74.65,105.46,74.66,105.46Z"/><path class="cls-5" d="M75.13,102.79s.06.54.18,1.4a18.58,18.58,0,0,0,.77,3.29c.11.31.22.62.34.91a1.82,1.82,0,0,0,.08.19l.13.2a3,3,0,0,1,.22.39,3.19,3.19,0,0,1,.39,1.5,2.77,2.77,0,0,1-.2,1,1.14,1.14,0,0,1-.2.33,3,3,0,0,0-.14-2.78,3.6,3.6,0,0,0-.22-.37l-.12-.19a1.58,1.58,0,0,1-.11-.23c-.12-.29-.23-.6-.34-.91a16.32,16.32,0,0,1-.73-3.34c0-.43-.06-.79-.06-1A2.21,2.21,0,0,1,75.13,102.79Z"/><path class="cls-5" d="M75.57,99.61s-.19-.43-.5-1.12A17.35,17.35,0,0,0,73.6,96a16.76,16.76,0,0,0-1.92-2.22c-.55-.52-.91-.81-.9-.83a1,1,0,0,1,.28.17,8.94,8.94,0,0,1,.7.57,13.34,13.34,0,0,1,2,2.21,12.85,12.85,0,0,1,1.43,2.59,7.33,7.33,0,0,1,.31.85A1.44,1.44,0,0,1,75.57,99.61Z"/><path class="cls-5" d="M105.62,93.4a5.08,5.08,0,0,1-.07.84c-.07.51-.15,1.22-.24,2s-.14,1.5-.18,2a4,4,0,0,1-.11.84,4.52,4.52,0,0,1,0-.85c0-.52,0-1.24.14-2s.19-1.5.28-2A4.1,4.1,0,0,1,105.62,93.4Z"/><path class="cls-5" d="M108.63,102.3s-.45.08-1.16.28A5.55,5.55,0,0,0,105,104a7,7,0,0,0-.93,1.27,9.71,9.71,0,0,0-.54,1.18l-.17.47-.11.36a1.43,1.43,0,0,1-.11.31,1,1,0,0,1,0-.33l.08-.37.14-.48a9.46,9.46,0,0,1,.51-1.22,6.57,6.57,0,0,1,1-1.31,5.21,5.21,0,0,1,2.54-1.43,4,4,0,0,1,.5-.1,2,2,0,0,1,.38,0A1.11,1.11,0,0,1,108.63,102.3Z"/><path class="cls-5" d="M118.35,112a1.74,1.74,0,0,1-.24-.39c-.07-.12-.15-.28-.24-.47s-.19-.4-.28-.65a13,13,0,0,1-.56-1.75,15.62,15.62,0,0,1-.34-2.23,15.08,15.08,0,0,1,0-2.25,13.93,13.93,0,0,1,.32-1.81c.06-.25.13-.48.19-.68a3.94,3.94,0,0,1,.18-.5,2.31,2.31,0,0,1,.18-.42s-.2.62-.43,1.63a14.93,14.93,0,0,0-.3,4,17.08,17.08,0,0,0,.32,2.2,15.71,15.71,0,0,0,.52,1.75C118.07,111.37,118.38,111.94,118.35,112Z"/><path class="cls-5" d="M114.53,109.35a2.81,2.81,0,0,1-.13-.38,7.12,7.12,0,0,1-.22-1,8.22,8.22,0,0,1,.33-3.52,7.91,7.91,0,0,1,1.77-3.07,1.6,1.6,0,0,1,1-.51.68.68,0,0,1,.3.06c.06,0,.09.05.08.06a1.13,1.13,0,0,0-.37,0,1.61,1.61,0,0,0-.87.53,8.56,8.56,0,0,0-1.69,3,8.73,8.73,0,0,0-.37,3.46C114.4,108.8,114.57,109.34,114.53,109.35Z"/><path class="cls-5" d="M90.69,107.62a2.37,2.37,0,0,1-.08.41c0,.13-.08.29-.15.47a4.32,4.32,0,0,1-.23.61,9.65,9.65,0,0,1-.79,1.51,10.43,10.43,0,0,1-1.3,1.63,11.26,11.26,0,0,1-1.6,1.34,10.5,10.5,0,0,1-1.49.83c-.21.1-.42.17-.6.24a3.52,3.52,0,0,1-.47.15,1.76,1.76,0,0,1-.41.1s.57-.19,1.43-.61a10.14,10.14,0,0,0,1.45-.85A12.16,12.16,0,0,0,88,112.13a11.91,11.91,0,0,0,1.29-1.6,10.8,10.8,0,0,0,.82-1.47C90.51,108.19,90.66,107.61,90.69,107.62Z"/><g class="cls-12"><path d="M78.68,111.05c-.66-2.43-1.33-4.86-2-7.29-.1-.36-.26-.78-.63-.84a.7.7,0,0,0-.71.59,4.26,4.26,0,0,0,0,1.07,8.53,8.53,0,0,0,1,3.89c1.44,2.39.49,3.55.49,3.55a32.87,32.87,0,0,1-1,9.88l.85,3.61c.82-2.68,2.67-4.92,3-7.71A18,18,0,0,0,78.68,111.05Z"/></g><g class="cls-12"><path d="M103.68,105.94c2.37,1.24,4.49,2.94,6.8,4.26a10.87,10.87,0,0,0-4.26-4.76,2.67,2.67,0,0,0-1.61-.42c-.56.08-1,.39-.88,1"/></g><g class="cls-12"><path d="M117.29,100.72c-.81,0-1.42.71-1.82,1.42a11,11,0,0,0-1.31,6.62c0,.41.2.9.6,1a.7.7,0,0,0,.72-.43,2,2,0,0,0,.14-.88,27.47,27.47,0,0,1,.1-4.16,6.17,6.17,0,0,1,1.74-3.7"/></g><path class="cls-9" d="M80.62,103.32h.08l.24,0,.94-.05,3.55-.16L98,102.55h.09v.08c.1,4.23.22,9.1.35,14.25v.61h-.09a123.23,123.23,0,0,0-15.48,1.16h-.07l0-.07A55.14,55.14,0,0,1,81,107.43c-.09-1.37-.1-2.44-.1-3.17,0-.36,0-.64,0-.83v-.29a.17.17,0,0,1,0,.07v.22l0,.83c0,.73,0,1.8.14,3.16a57,57,0,0,0,1.9,11.12l-.08-.06a121.31,121.31,0,0,1,15.5-1.18l-.09.09v-.51c-.12-5.16-.24-10-.33-14.25l.08.08-12.58.47-3.55.11-.94,0h-.32Z"/><path class="cls-9" d="M85.18,113.83s-.48-2.33-1-5.23-.84-5.26-.79-5.26.48,2.33,1,5.23S85.23,113.82,85.18,113.83Z"/><path class="cls-9" d="M85.71,118.3a9.71,9.71,0,0,1-.39-1.89,10.83,10.83,0,0,1-.21-1.92,20.43,20.43,0,0,1,.6,3.81Z"/><path class="cls-9" d="M88.69,111.51a1.55,1.55,0,0,1-.09-.32c-.06-.21-.12-.52-.19-.9-.15-.75-.31-1.81-.43-3s-.16-2.24-.17-3c0-.39,0-.7,0-.92a1.5,1.5,0,0,1,0-.33,8.85,8.85,0,0,1,.09,1.24c0,.77.1,1.83.22,3s.26,2.22.37,3A9.86,9.86,0,0,1,88.69,111.51Z"/><path class="cls-9" d="M88.3,117.84a16.24,16.24,0,0,1-.39-2.45,17.25,17.25,0,0,1-.22-2.47,16,16,0,0,1,.39,2.45A17.14,17.14,0,0,1,88.3,117.84Z"/><path class="cls-9" d="M92.22,117.56a3.57,3.57,0,0,1-.07-.57c0-.4-.08-.93-.14-1.56-.11-1.32-.28-3.14-.51-5.14s-.48-3.81-.67-5.12c-.09-.63-.16-1.15-.22-1.55a4,4,0,0,1-.06-.57,3,3,0,0,1,.13.56c.07.36.17.89.28,1.54.22,1.3.49,3.11.72,5.12s.38,3.83.46,5.15c0,.66.07,1.19.08,1.56A4.33,4.33,0,0,1,92.22,117.56Z"/><path class="cls-9" d="M95.55,117.74a3.7,3.7,0,0,1,0-.58l0-1.59c0-1.33-.05-3.18-.14-5.22s-.24-3.89-.35-5.22l-.14-1.59a4.16,4.16,0,0,1,0-.58,3.83,3.83,0,0,1,.1.58c0,.37.12.91.19,1.57.15,1.34.31,3.18.41,5.23s.11,3.89.09,5.23c0,.67,0,1.22,0,1.59A3.8,3.8,0,0,1,95.55,117.74Z"/><g class="cls-12"><path d="M83.84,114.93a2.93,2.93,0,0,0,1.83.45,5.64,5.64,0,0,0,1.84-.49,5.42,5.42,0,0,0,2.1-1.38,4.79,4.79,0,0,0,1.06-2.46,14.32,14.32,0,0,0,.09-2.7.14.14,0,0,0,0-.11.13.13,0,0,0-.19,0,.45.45,0,0,0-.11.19,10,10,0,0,1-6.69,6.32"/></g><path class="cls-10" d="M81.7,144l-2.12-4-4.77-22.3s-4.38-2.51-8,3c-.14.23,4.94,16.19,6.36,20.64l.2,4.25s-.25,5,0,5.47a2,2,0,0,0,.88.69,1.21,1.21,0,0,0,1.25,1.38s.13,1.39,1.2,1.2a2.06,2.06,0,0,0,1.45-.88s0,1.76.94,1.57,1.1-.94,1.27-1.2a18.52,18.52,0,0,0,.37-2.83v-4.26l2.45,2c.71.36,1.75.8,2.34.27Z"/><path class="cls-11" d="M80.75,146.52a7.87,7.87,0,0,1,.14,2.3l-.08,1.62a3.28,3.28,0,0,1-.06.67,9.66,9.66,0,0,1,0-2.3C80.77,147.55,80.7,146.53,80.75,146.52Z"/><path class="cls-11" d="M78,149.49a11.63,11.63,0,0,1,.12,2.11,11.86,11.86,0,0,1-.06,2.1,12.64,12.64,0,0,1-.12-2.1A13.3,13.3,0,0,1,78,149.49Z"/><path class="cls-11" d="M75.77,150.26a3.89,3.89,0,0,1,0,1.48,3.68,3.68,0,0,1-.33,1.44s.08-.66.15-1.46S75.72,150.27,75.77,150.26Z"/><path class="cls-11" d="M74.31,149.77a2.61,2.61,0,0,1,0,1,2.65,2.65,0,0,1-.18.94,2.59,2.59,0,0,1,0-1A2.65,2.65,0,0,1,74.31,149.77Z"/><path class="cls-9" d="M79.08,62.89l-3.19-5.62a15,15,0,1,0-3.61,4h0Z"/><path class="cls-5" d="M79.08,62.89l-6.82-1.55a0,0,0,0,1,0-.06v0h0l.06.06a14.8,14.8,0,0,1-7.21,3,13.44,13.44,0,0,1-2.39.12l-1.24-.06-1.27-.2A15.19,15.19,0,0,1,48.24,52.38a15.45,15.45,0,0,1,.18-6.69,14.76,14.76,0,0,1,3.23-6.19l.61-.68c.2-.22.44-.41.66-.62s.44-.42.68-.59l.73-.54a7.38,7.38,0,0,1,.74-.5l.77-.46.8-.39a7.22,7.22,0,0,1,.8-.36,15.34,15.34,0,0,1,6.74-1,14.83,14.83,0,0,1,6.19,1.83,15.17,15.17,0,0,1,7.14,8.78,16.42,16.42,0,0,1,.66,4.89,15.18,15.18,0,0,1-.74,4.23,14.93,14.93,0,0,1-1.51,3.23v0l3.16,5.64c-.16-.26-1.17-2-3.23-5.6a0,0,0,0,1,0,0A15.15,15.15,0,0,0,77.33,54,15,15,0,0,0,78,49.83,16.17,16.17,0,0,0,77.38,45a15.12,15.12,0,0,0-7.09-8.68,14.68,14.68,0,0,0-6.12-1.8,15.12,15.12,0,0,0-6.66,1,8.08,8.08,0,0,0-.8.35l-.79.39-.75.45c-.25.16-.51.31-.74.49l-.71.54c-.25.17-.45.39-.68.58s-.45.4-.65.62l-.61.67a14.65,14.65,0,0,0-3.18,6.11,15.1,15.1,0,0,0-.18,6.61,14.76,14.76,0,0,0,2.5,5.75,15.19,15.19,0,0,0,4.28,4,15,15,0,0,0,5,2l1.26.2,1.24.07a14.1,14.1,0,0,0,2.36-.11,14.85,14.85,0,0,0,7.18-3,0,0,0,0,1,.06,0s0,0,0,.05h0l0-.07Z"/><path class="cls-8" d="M58.66,46.53a2.13,2.13,0,0,0-.75-.19,2.25,2.25,0,0,0-2.07.76c1.63.95,3.85,2.2,5.43,3.1l2-1.14C61.83,48.26,60,47.26,58.66,46.53Z"/><path class="cls-3" d="M58.66,46.53a2.13,2.13,0,0,0-.75-.19,2.25,2.25,0,0,0-2.07.76c1.63.95,3.85,2.2,5.43,3.1l2-1.14C61.83,48.26,60,47.26,58.66,46.53Z"/><path class="cls-4" d="M64.78,52.31l-.07-.06c-.5-.29-1-.84-1.53-.83-.19,0-.4.17-.9.45-.82.47-2.21,1.28-3,1.74a3.16,3.16,0,0,1-2.39.43,3.2,3.2,0,0,1-1.11-.68l9-5.24-.14-.39a2.59,2.59,0,0,1,4.1-2.83,2.59,2.59,0,0,1-1.93,4.57,1.28,1.28,0,0,0-.61.12c-.34.17-.66.38-1.07.62.69.31,1.17.81,2,.73a2.45,2.45,0,0,1,2.46,1.8,2.59,2.59,0,1,1-4.93-.06C64.68,52.56,64.73,52.44,64.78,52.31Zm2.31-4.17a1.22,1.22,0,0,0,1.25-1.26,1.25,1.25,0,0,0-1.24-1.24,1.28,1.28,0,0,0-1.26,1.27A1.26,1.26,0,0,0,67.09,48.14Zm0,6.62a1.25,1.25,0,0,0,1.26-1.21,1.23,1.23,0,0,0-1.22-1.29,1.27,1.27,0,0,0-1.28,1.2A1.29,1.29,0,0,0,67.08,54.76Z"/><path class="cls-5" d="M63.73,50.16s0-.24-.27-.42a.52.52,0,0,0-.49-.06.53.53,0,0,0-.33.48.5.5,0,0,0,.33.47.55.55,0,0,0,.49-.05c.25-.19.24-.43.27-.42s0,.05,0,.15a.55.55,0,0,1-.21.37.65.65,0,0,1-.62.11.68.68,0,0,1-.45-.63.67.67,0,0,1,.45-.63.62.62,0,0,1,.62.11.55.55,0,0,1,.21.37C63.76,50.1,63.74,50.16,63.73,50.16Z"/><path class="cls-5" d="M65.94,49.72l-.18.12-.52.31-1.71,1-1.72,1-.52.3-.2.09.18-.12.52-.31,1.71-1,1.72-1,.52-.29Z"/><path class="cls-5" d="M64.44,48.33l-.09.06-.25.16-.92.55c-.78.47-1.86,1.12-3.06,1.8L57,52.65l-1,.53-.25.14-.09,0,.08,0,.25-.16.93-.54,3.08-1.77c1.21-.68,2.29-1.32,3.08-1.78l.93-.54.25-.14Z"/><polygon class="cls-4" points="121.72 67.21 122.38 68.42 123.58 69.07 122.38 69.73 121.72 70.94 121.06 69.73 119.86 69.07 121.06 68.42 121.72 67.21"/><polygon class="cls-4" points="126.11 50.73 126.8 50.69 127.35 50.28 127.39 50.97 127.8 51.52 127.12 51.56 126.56 51.97 126.52 51.29 126.11 50.73"/><polygon class="cls-4" points="158.9 71.22 159.58 71.17 160.13 70.77 160.18 71.45 160.59 72 159.9 72.05 159.35 72.45 159.3 71.77 158.9 71.22"/><polygon class="cls-4" points="163.06 41.92 163.75 41.87 164.3 41.47 164.34 42.15 164.75 42.7 164.07 42.75 163.52 43.15 163.47 42.47 163.06 41.92"/><polygon class="cls-4" points="142.07 60.1 143.11 59.5 143.66 58.44 144.26 59.48 145.33 60.03 144.29 60.63 143.74 61.7 143.14 60.65 142.07 60.1"/><text class="cls-13" transform="translate(239.19 51.16)">DIS<tspan class="cls-14" x="51.37" y="0">K</tspan><tspan x="71.95" y="0">ON GI</tspan><tspan class="cls-15" x="152.51" y="0">L</tspan><tspan x="169.74" y="0">A</tspan><tspan x="0" y="37.98">SEMUA PRODUK</tspan><tspan x="0" y="75.96">OFFICIAL</tspan></text><path class="cls-16" d="M392.86,99.7v5.21a.77.77,0,0,0,.68.75h.25c.36,0,.67-.37.67-1,0-1.14-.07-4.62.05-5.31a4.07,4.07,0,0,1,3.8-3.31c1.33,0,2.51,0,3.57,1a4,4,0,0,1,1.28,2.27c.12.69.06,4.13,0,5.26,0,.62.15,1.1.86,1.1a.74.74,0,0,0,.75-.75V99.7a5.77,5.77,0,0,0-1-2.93,5.49,5.49,0,0,0-2.18-1.83,5.77,5.77,0,0,0-2.16-.55h-1.23a5.77,5.77,0,0,0-2.16.55,5.46,5.46,0,0,0-2.65,2.65,5.28,5.28,0,0,0-.55,2.11Z"/><text class="cls-17" transform="translate(412.89 123.84) scale(0.89 1)">ES<tspan class="cls-18" x="25.96" y="0">T</tspan><tspan class="cls-19" x="37.65" y="0">ORE</tspan></text><text class="cls-20" transform="translate(414.78 128.82)">Sma<tspan class="cls-21" x="9.92" y="0">r</tspan><tspan class="cls-22" x="12.15" y="0">t</tspan><tspan class="cls-23" x="14.29" y="0">, Simple and </tspan><tspan class="cls-24" x="45.86" y="0">P</tspan><tspan x="48.89" y="0">ro</tspan><tspan class="cls-24" x="53.94" y="0">f</tspan><tspan x="56.03" y="0">itable</tspan></text><path class="cls-9" d="M412.53,125l-.26-2.47-.2-1.84c-.51-3-4.14-4.21-7.05-5.26,2-.49,6.06-3.24,5.82-6.06l-.36-3.41a3.54,3.54,0,0,0-3.52-3.16h-16.1a3.54,3.54,0,0,0-3.52,3.16l-.72,6.68a2.17,2.17,0,0,1,.67-.26,2.33,2.33,0,0,1,2.37,1,2.07,2.07,0,0,1-.1,2.38.2.2,0,0,0,0,.09,3,3,0,0,1,.68.39,5,5,0,0,1,4.13-1.72,4.53,4.53,0,0,1,4.08,3.7c0,.16,0,.31.05.46v.07h3.26c1.73,0,3.14,1.82,3.14,4.06v1.2h-8.35a12.49,12.49,0,0,1-.85,4.93H409A3.53,3.53,0,0,0,412.53,125Zm-11.7-12.34h-7.51l.33-3.93c.06-.78.52-1.38,1.07-1.38h9.78C404.5,110.25,402.85,112.62,400.83,112.62Z"/><path class="cls-9" d="M385.85,119.75a1.56,1.56,0,0,0,.78-.07c.06-.25-.07-2.05,1.75-1.9,1.15.1,1.62,1.39,2.17,2.47.42-.42,1-3.16,3-3.53a2.23,2.23,0,0,1,2.64,2c.11,1.16-.78,2.4-3.3,2.52a9.15,9.15,0,0,1-1.27,0c-1.42-.12-2.72-.42-4.28-.55-.49,0-1-.12-1.61-.14a3.87,3.87,0,0,0-3,1c-2.12,2.13,0,6.36,3.09,5.69a3.94,3.94,0,0,0,1.08-.42c1.42-.79,2.61-3,2.39-3.82a1.88,1.88,0,0,0-1-.17,9,9,0,0,1-.8,1.88,3,3,0,0,1-1.9,1.39l-.22,0a2.3,2.3,0,0,1-2.24-2.91c.33-1.1,1.27-1.46,2.53-1.49,2,0,4.81.74,7.19.69.21,0,.43,0,.64,0s.16.29.25.47c-.28.06-.56.12-.84.2a8.37,8.37,0,0,0-2,.86,7.86,7.86,0,0,0-2.93,2.91c.42.87,1.84,1.6,3.25,2.08a10.36,10.36,0,0,0,2.93.64,2.38,2.38,0,0,0,.37-.64,11.36,11.36,0,0,0,.93-4.93,3.85,3.85,0,0,0-.21-1h0a1.6,1.6,0,0,0-.1-.23,4.26,4.26,0,0,0-.35-.62,3.25,3.25,0,0,0,.43-.18,3.31,3.31,0,0,0,2.2-3.22c0-.11,0-.23,0-.35a3.4,3.4,0,0,0-3.1-2.8,4.41,4.41,0,0,0-4,2.29,2.62,2.62,0,0,0-1.59-1.2.53.53,0,0,1-.2-.37,1.51,1.51,0,0,1,.16-1.17c1.05-1.51-1.63-2.52-2-.84-.13.67.28.79.54,1.26a3.48,3.48,0,0,1,.12,1.16,2.29,2.29,0,0,0-1.11.64l-.14-.07h0c-1.14-.63-.87-1.14-1.36-1.59a1.12,1.12,0,1,0-.83,2c.53.07.41-.22.92.12a6.75,6.75,0,0,1,.76.56,2.79,2.79,0,0,0,0,1.39l.25,0m7.55,8.41s-1.21-.12-1.53-.49l2-1.13A2.66,2.66,0,0,1,393.4,128.16Zm.87-2.92a6.1,6.1,0,0,0-3.64,2.15,2.45,2.45,0,0,1-1-.66c.36-1.23,3.06-2.79,4.63-2.69h0a.46.46,0,0,0,0,.09A2.61,2.61,0,0,1,394.27,125.24Z"/><path class="cls-16" d="M392.91,99.6v5.19a.79.79,0,0,0,.68.75h.25c.36-.06.67-.37.67-1.05,0-1.14-.07-4.6.05-5.29a4.05,4.05,0,0,1,3.78-3.3c1.33,0,2.51,0,3.56,1a4,4,0,0,1,1.27,2.26c.12.68.06,4.11.06,5.24,0,.61.14,1.1.85,1.1a.73.73,0,0,0,.74-.75V99.6a5.73,5.73,0,0,0-1-2.92,5.46,5.46,0,0,0-2.17-1.83,5.91,5.91,0,0,0-2.15-.54h-1.22a5.91,5.91,0,0,0-2.16.54,5.53,5.53,0,0,0-2.64,2.65,5.23,5.23,0,0,0-.55,2.1Z"/></g></g></svg>