<svg xmlns="http://www.w3.org/2000/svg" xmlns:xlink="http://www.w3.org/1999/xlink" viewBox="0 0 579.04 533.2"><defs><style>.cls-1{fill:none;}.cls-2{clip-path:url(#clip-path);}.cls-3{fill:#f9c032;}.cls-4{fill:#ccc;}.cls-5{fill:#00194a;}.cls-6{fill:#00123c;}.cls-7{fill:#ff9740;}.cls-8{fill:#001a37;}.cls-9{clip-path:url(#clip-path-2);}.cls-10{fill:#426a5a;}.cls-11{fill:#fff;}</style><clipPath id="clip-path" transform="translate(88.11 166.54)"><rect class="cls-1" width="414.35" height="236.69" rx="31"/></clipPath><clipPath id="clip-path-2" transform="translate(88.11 166.54)"><rect class="cls-1" x="2.52" y="-100.85" width="416.18" height="416.18"/></clipPath></defs><g id="Layer_2" data-name="Layer 2"><g id="Layer_1-2" data-name="Layer 1"><g class="cls-2"><rect class="cls-3" x="90.63" y="65.69" width="416.18" height="416.18"/><circle class="cls-4" cx="227.88" cy="115.04" r="0.76"/><circle class="cls-4" cx="232.52" cy="119.68" r="0.76"/><circle class="cls-4" cx="237.16" cy="124.32" r="0.76"/><circle class="cls-4" cx="241.8" cy="128.96" r="0.76"/><circle class="cls-4" cx="246.44" cy="133.61" r="0.76"/><circle class="cls-4" cx="251.09" cy="138.25" r="0.76"/><circle class="cls-4" cx="255.73" cy="142.89" r="0.76"/><circle class="cls-4" cx="260.37" cy="147.53" r="0.76"/><circle class="cls-4" cx="265.01" cy="152.17" r="0.76"/><circle class="cls-4" cx="223.24" cy="119.68" r="0.76"/><circle class="cls-4" cx="227.88" cy="124.32" r="0.76"/><circle class="cls-4" cx="232.52" cy="128.96" r="0.76"/><circle class="cls-4" cx="237.16" cy="133.61" r="0.76"/><circle class="cls-4" cx="241.8" cy="138.25" r="0.76"/><circle class="cls-4" cx="246.44" cy="142.89" r="0.76"/><circle class="cls-4" cx="251.09" cy="147.53" r="0.76"/><circle class="cls-4" cx="255.73" cy="152.17" r="0.76"/><circle class="cls-4" cx="260.37" cy="156.81" r="0.76"/><circle class="cls-4" cx="218.59" cy="124.32" r="0.76"/><circle class="cls-4" cx="223.24" cy="128.96" r="0.76"/><circle class="cls-4" cx="227.88" cy="133.61" r="0.76"/><circle class="cls-4" cx="232.52" cy="138.25" r="0.76"/><circle class="cls-4" cx="237.16" cy="142.89" r="0.76"/><circle class="cls-4" cx="241.8" cy="147.53" r="0.76"/><circle class="cls-4" cx="246.44" cy="152.17" r="0.76"/><circle class="cls-4" cx="251.09" cy="156.81" r="0.76"/><circle class="cls-4" cx="255.73" cy="161.45" r="0.76"/><circle class="cls-4" cx="213.95" cy="128.96" r="0.76"/><circle class="cls-4" cx="218.59" cy="133.61" r="0.76"/><circle class="cls-4" cx="223.24" cy="138.25" r="0.76"/><circle class="cls-4" cx="227.88" cy="142.89" r="0.76"/><circle class="cls-4" cx="232.52" cy="147.53" r="0.76"/><circle class="cls-4" cx="237.16" cy="152.17" r="0.76"/><circle class="cls-4" cx="241.8" cy="156.81" r="0.76"/><circle class="cls-4" cx="246.44" cy="161.45" r="0.76"/><circle class="cls-4" cx="251.09" cy="166.1" r="0.76"/><circle class="cls-4" cx="209.31" cy="133.61" r="0.76"/><circle class="cls-4" cx="213.95" cy="138.25" r="0.76"/><circle class="cls-4" cx="218.59" cy="142.89" r="0.76"/><circle class="cls-4" cx="223.24" cy="147.53" r="0.76"/><circle class="cls-4" cx="227.88" cy="152.17" r="0.76"/><circle class="cls-4" cx="232.52" cy="156.81" r="0.76"/><circle class="cls-4" cx="237.16" cy="161.45" r="0.76"/><circle class="cls-4" cx="241.8" cy="166.1" r="0.76"/><circle class="cls-4" cx="246.44" cy="170.74" r="0.76"/><circle class="cls-4" cx="204.67" cy="138.25" r="0.76"/><circle class="cls-4" cx="209.31" cy="142.89" r="0.76"/><circle class="cls-4" cx="213.95" cy="147.53" r="0.76"/><circle class="cls-4" cx="218.59" cy="152.17" r="0.76"/><circle class="cls-4" cx="223.24" cy="156.81" r="0.76"/><circle class="cls-4" cx="227.88" cy="161.45" r="0.76"/><circle class="cls-4" cx="232.52" cy="166.1" r="0.76"/><circle class="cls-4" cx="237.16" cy="170.74" r="0.76"/><circle class="cls-4" cx="241.8" cy="175.38" r="0.76"/><circle class="cls-4" cx="200.03" cy="142.89" r="0.76"/><circle class="cls-4" cx="204.67" cy="147.53" r="0.76"/><circle class="cls-4" cx="209.31" cy="152.17" r="0.76"/><circle class="cls-4" cx="213.95" cy="156.81" r="0.76"/><circle class="cls-4" cx="218.59" cy="161.45" r="0.76"/><circle class="cls-4" cx="223.24" cy="166.1" r="0.76"/><circle class="cls-4" cx="227.88" cy="170.74" r="0.76"/><circle class="cls-4" cx="232.52" cy="175.38" r="0.76"/><circle class="cls-4" cx="237.16" cy="180.02" r="0.76"/><circle class="cls-4" cx="195.39" cy="147.53" r="0.76"/><circle class="cls-4" cx="200.03" cy="152.17" r="0.76"/><circle class="cls-4" cx="204.67" cy="156.81" r="0.76"/><circle class="cls-4" cx="209.31" cy="161.45" r="0.76"/><circle class="cls-4" cx="213.95" cy="166.1" r="0.76"/><circle class="cls-4" cx="218.59" cy="170.74" r="0.76"/><circle class="cls-4" cx="223.24" cy="175.38" r="0.76"/><circle class="cls-4" cx="227.88" cy="180.02" r="0.76"/><circle class="cls-4" cx="232.52" cy="184.66" r="0.76"/><circle class="cls-4" cx="190.75" cy="152.17" r="0.76"/><circle class="cls-4" cx="195.39" cy="156.81" r="0.76"/><circle class="cls-4" cx="200.03" cy="161.45" r="0.76"/><circle class="cls-4" cx="204.67" cy="166.1" r="0.76"/><circle class="cls-4" cx="209.31" cy="170.74" r="0.76"/><circle class="cls-4" cx="213.95" cy="175.38" r="0.76"/><circle class="cls-4" cx="218.59" cy="180.02" r="0.76"/><circle class="cls-4" cx="223.24" cy="184.66" r="0.76"/><circle class="cls-4" cx="227.88" cy="189.3" r="0.76"/><circle class="cls-4" cx="186.1" cy="156.81" r="0.76"/><circle class="cls-4" cx="190.75" cy="161.45" r="0.76"/><circle class="cls-4" cx="195.39" cy="166.1" r="0.76"/><circle class="cls-4" cx="200.03" cy="170.74" r="0.76"/><circle class="cls-4" cx="204.67" cy="175.38" r="0.76"/><circle class="cls-4" cx="209.31" cy="180.02" r="0.76"/><circle class="cls-4" cx="213.95" cy="184.66" r="0.76"/><circle class="cls-4" cx="218.59" cy="189.3" r="0.76"/><circle class="cls-4" cx="223.24" cy="193.94" r="0.76"/><circle class="cls-4" cx="181.46" cy="161.45" r="0.76"/><circle class="cls-4" cx="186.1" cy="166.1" r="0.76"/><circle class="cls-4" cx="190.75" cy="170.74" r="0.76"/><circle class="cls-4" cx="195.39" cy="175.38" r="0.76"/><circle class="cls-4" cx="200.03" cy="180.02" r="0.76"/><circle class="cls-4" cx="204.67" cy="184.66" r="0.76"/><circle class="cls-4" cx="209.31" cy="189.3" r="0.76"/><circle class="cls-4" cx="213.95" cy="193.94" r="0.76"/><circle class="cls-4" cx="218.59" cy="198.59" r="0.76"/><circle class="cls-4" cx="176.82" cy="166.1" r="0.76"/><circle class="cls-4" cx="181.46" cy="170.74" r="0.76"/><circle class="cls-4" cx="186.1" cy="175.38" r="0.76"/><circle class="cls-4" cx="190.75" cy="180.02" r="0.76"/><circle class="cls-4" cx="195.39" cy="184.66" r="0.76"/><circle class="cls-4" cx="200.03" cy="189.3" r="0.76"/><circle class="cls-4" cx="204.67" cy="193.94" r="0.76"/><circle class="cls-4" cx="209.31" cy="198.59" r="0.76"/><circle class="cls-4" cx="213.95" cy="203.23" r="0.76"/><circle class="cls-4" cx="172.18" cy="170.74" r="0.76"/><circle class="cls-4" cx="176.82" cy="175.38" r="0.76"/><circle class="cls-4" cx="181.46" cy="180.02" r="0.76"/><circle class="cls-4" cx="186.1" cy="184.66" r="0.76"/><circle class="cls-4" cx="190.75" cy="189.3" r="0.76"/><circle class="cls-4" cx="195.39" cy="193.94" r="0.76"/><circle class="cls-4" cx="200.03" cy="198.59" r="0.76"/><circle class="cls-4" cx="204.67" cy="203.23" r="0.76"/><circle class="cls-4" cx="209.31" cy="207.87" r="0.76"/><circle class="cls-4" cx="167.54" cy="175.38" r="0.76"/><circle class="cls-4" cx="172.18" cy="180.02" r="0.76"/><circle class="cls-4" cx="176.82" cy="184.66" r="0.76"/><circle class="cls-4" cx="181.46" cy="189.3" r="0.76"/><circle class="cls-4" cx="186.1" cy="193.94" r="0.76"/><circle class="cls-4" cx="190.75" cy="198.59" r="0.76"/><circle class="cls-4" cx="195.39" cy="203.23" r="0.76"/><circle class="cls-4" cx="200.03" cy="207.87" r="0.76"/><circle class="cls-4" cx="204.67" cy="212.51" r="0.76"/><circle class="cls-4" cx="162.9" cy="180.02" r="0.76"/><circle class="cls-4" cx="167.54" cy="184.66" r="0.76"/><circle class="cls-4" cx="172.18" cy="189.3" r="0.76"/><circle class="cls-4" cx="176.82" cy="193.94" r="0.76"/><circle class="cls-4" cx="181.46" cy="198.59" r="0.76"/><circle class="cls-4" cx="186.1" cy="203.23" r="0.76"/><circle class="cls-4" cx="190.75" cy="207.87" r="0.76"/><circle class="cls-4" cx="195.39" cy="212.51" r="0.76"/><circle class="cls-4" cx="200.03" cy="217.15" r="0.76"/><circle class="cls-4" cx="158.26" cy="184.66" r="0.76"/><circle class="cls-4" cx="162.9" cy="189.3" r="0.76"/><circle class="cls-4" cx="167.54" cy="193.94" r="0.76"/><circle class="cls-4" cx="172.18" cy="198.59" r="0.76"/><circle class="cls-4" cx="176.82" cy="203.23" r="0.76"/><circle class="cls-4" cx="181.46" cy="207.87" r="0.76"/><circle class="cls-4" cx="186.1" cy="212.51" r="0.76"/><circle class="cls-4" cx="190.75" cy="217.15" r="0.76"/><circle class="cls-4" cx="195.39" cy="221.79" r="0.76"/><circle class="cls-4" cx="153.61" cy="189.3" r="0.76"/><circle class="cls-4" cx="158.26" cy="193.94" r="0.76"/><circle class="cls-4" cx="162.9" cy="198.59" r="0.76"/><circle class="cls-4" cx="167.54" cy="203.23" r="0.76"/><circle class="cls-4" cx="172.18" cy="207.87" r="0.76"/><circle class="cls-4" cx="176.82" cy="212.51" r="0.76"/><circle class="cls-4" cx="181.46" cy="217.15" r="0.76"/><circle class="cls-4" cx="186.1" cy="221.79" r="0.76"/><circle class="cls-4" cx="190.75" cy="226.44" r="0.76"/><circle class="cls-4" cx="148.97" cy="193.94" r="0.76"/><circle class="cls-4" cx="153.61" cy="198.59" r="0.76"/><circle class="cls-4" cx="158.26" cy="203.23" r="0.76"/><circle class="cls-4" cx="162.9" cy="207.87" r="0.76"/><circle class="cls-4" cx="167.54" cy="212.51" r="0.76"/><circle class="cls-4" cx="172.18" cy="217.15" r="0.76"/><circle class="cls-4" cx="176.82" cy="221.79" r="0.76"/><circle class="cls-4" cx="181.46" cy="226.44" r="0.76"/><circle class="cls-4" cx="186.1" cy="231.08" r="0.76"/><circle class="cls-4" cx="144.33" cy="198.59" r="0.76"/><circle class="cls-4" cx="148.97" cy="203.23" r="0.76"/><circle class="cls-4" cx="153.61" cy="207.87" r="0.76"/><circle class="cls-4" cx="158.26" cy="212.51" r="0.76"/><circle class="cls-4" cx="162.9" cy="217.15" r="0.76"/><circle class="cls-4" cx="167.54" cy="221.79" r="0.76"/><circle class="cls-4" cx="172.18" cy="226.44" r="0.76"/><circle class="cls-4" cx="176.82" cy="231.08" r="0.76"/><circle class="cls-4" cx="181.46" cy="235.72" r="0.76"/><circle class="cls-4" cx="139.69" cy="203.23" r="0.76"/><circle class="cls-4" cx="144.33" cy="207.87" r="0.76"/><circle class="cls-4" cx="148.97" cy="212.51" r="0.76"/><circle class="cls-4" cx="153.61" cy="217.15" r="0.76"/><circle class="cls-4" cx="158.26" cy="221.79" r="0.76"/><circle class="cls-4" cx="162.9" cy="226.44" r="0.76"/><circle class="cls-4" cx="167.54" cy="231.08" r="0.76"/><circle class="cls-4" cx="172.18" cy="235.72" r="0.76"/><circle class="cls-4" cx="176.82" cy="240.36" r="0.76"/><circle class="cls-4" cx="135.05" cy="207.87" r="0.76"/><circle class="cls-4" cx="139.69" cy="212.51" r="0.76"/><circle class="cls-4" cx="144.33" cy="217.15" r="0.76"/><circle class="cls-4" cx="148.97" cy="221.79" r="0.76"/><circle class="cls-4" cx="153.61" cy="226.44" r="0.76"/><circle class="cls-4" cx="158.26" cy="231.08" r="0.76"/><circle class="cls-4" cx="162.9" cy="235.72" r="0.76"/><circle class="cls-4" cx="167.54" cy="240.36" r="0.76"/><circle class="cls-4" cx="172.18" cy="245" r="0.76"/><path class="cls-4" d="M343,111.18a1.06,1.06,0,1,0,1.5-1.51,1.05,1.05,0,0,0-1.5,0A1.06,1.06,0,0,0,343,111.18Z" transform="translate(88.11 166.54)"/><path class="cls-4" d="M349.46,117.65a1.07,1.07,0,1,0,1.51-1.51,1.07,1.07,0,0,0-1.51,1.51Z" transform="translate(88.11 166.54)"/><path class="cls-4" d="M355.93,124.12a1.07,1.07,0,1,0,1.51-1.51,1.07,1.07,0,0,0-1.51,1.51Z" transform="translate(88.11 166.54)"/><path class="cls-4" d="M362.4,130.59a1.07,1.07,0,0,0,1.51-1.51,1.07,1.07,0,1,0-1.51,1.51Z" transform="translate(88.11 166.54)"/><path class="cls-4" d="M368.87,137.06a1.06,1.06,0,0,0,1.51,0,1.07,1.07,0,0,0-1.51-1.51A1.06,1.06,0,0,0,368.87,137.06Z" transform="translate(88.11 166.54)"/><path class="cls-4" d="M375.34,143.53a1.07,1.07,0,1,0,1.51-1.51,1.07,1.07,0,0,0-1.51,1.51Z" transform="translate(88.11 166.54)"/><path class="cls-4" d="M381.81,150a1.07,1.07,0,0,0,1.51-1.51,1.07,1.07,0,0,0-1.51,1.51Z" transform="translate(88.11 166.54)"/><path class="cls-4" d="M388.28,156.47a1.07,1.07,0,0,0,1.51-1.51,1.07,1.07,0,1,0-1.51,1.51Z" transform="translate(88.11 166.54)"/><circle class="cls-4" cx="483.62" cy="328.72" r="1.07"/><path class="cls-4" d="M336.52,117.65a1.06,1.06,0,1,0,1.5-1.51,1.05,1.05,0,0,0-1.5,0A1.06,1.06,0,0,0,336.52,117.65Z" transform="translate(88.11 166.54)"/><path class="cls-4" d="M343,124.12a1.06,1.06,0,1,0,1.5-1.51,1.05,1.05,0,0,0-1.5,0A1.06,1.06,0,0,0,343,124.12Z" transform="translate(88.11 166.54)"/><path class="cls-4" d="M349.46,130.59a1.07,1.07,0,1,0,1.51-1.51,1.07,1.07,0,0,0-1.51,1.51Z" transform="translate(88.11 166.54)"/><path class="cls-4" d="M355.93,137.06a1.06,1.06,0,0,0,1.51,0,1.07,1.07,0,0,0-1.51-1.51A1.06,1.06,0,0,0,355.93,137.06Z" transform="translate(88.11 166.54)"/><path class="cls-4" d="M362.4,143.53a1.06,1.06,0,0,0,1.51,0A1.07,1.07,0,0,0,362.4,142,1.06,1.06,0,0,0,362.4,143.53Z" transform="translate(88.11 166.54)"/><path class="cls-4" d="M368.87,150a1.06,1.06,0,0,0,1.51,0,1.07,1.07,0,0,0-1.51-1.51A1.06,1.06,0,0,0,368.87,150Z" transform="translate(88.11 166.54)"/><path class="cls-4" d="M375.34,156.47a1.07,1.07,0,1,0,1.51-1.51,1.07,1.07,0,0,0-1.51,1.51Z" transform="translate(88.11 166.54)"/><path class="cls-4" d="M381.81,162.94a1.06,1.06,0,0,0,1.51,0,1.05,1.05,0,0,0,0-1.5,1.06,1.06,0,0,0-1.51,1.5Z" transform="translate(88.11 166.54)"/><path class="cls-4" d="M388.28,169.41a1.06,1.06,0,0,0,1.51,0,1.05,1.05,0,0,0,0-1.5,1.06,1.06,0,1,0-1.51,1.5Z" transform="translate(88.11 166.54)"/><path class="cls-4" d="M330.05,124.12a1.06,1.06,0,1,0,1.5-1.51,1.05,1.05,0,0,0-1.5,0A1.06,1.06,0,0,0,330.05,124.12Z" transform="translate(88.11 166.54)"/><path class="cls-4" d="M336.52,130.59a1.06,1.06,0,0,0,1.5-1.51,1.05,1.05,0,0,0-1.5,0A1.06,1.06,0,0,0,336.52,130.59Z" transform="translate(88.11 166.54)"/><path class="cls-4" d="M343,137.06a1.05,1.05,0,0,0,1.5,0,1.06,1.06,0,1,0-1.5,0Z" transform="translate(88.11 166.54)"/><path class="cls-4" d="M349.46,143.53a1.06,1.06,0,0,0,1.51,0,1.07,1.07,0,1,0-1.51-1.51A1.06,1.06,0,0,0,349.46,143.53Z" transform="translate(88.11 166.54)"/><path class="cls-4" d="M355.93,150a1.06,1.06,0,0,0,1.51,0,1.07,1.07,0,0,0-1.51-1.51A1.06,1.06,0,0,0,355.93,150Z" transform="translate(88.11 166.54)"/><path class="cls-4" d="M362.4,156.47a1.06,1.06,0,0,0,1.51,0A1.07,1.07,0,0,0,362.4,155,1.06,1.06,0,0,0,362.4,156.47Z" transform="translate(88.11 166.54)"/><path class="cls-4" d="M368.87,162.94a1.06,1.06,0,1,0,0-1.5A1.05,1.05,0,0,0,368.87,162.94Z" transform="translate(88.11 166.54)"/><path class="cls-4" d="M375.34,169.41a1.06,1.06,0,0,0,1.51,0,1.05,1.05,0,0,0,0-1.5,1.06,1.06,0,0,0-1.51,1.5Z" transform="translate(88.11 166.54)"/><path class="cls-4" d="M381.81,175.88a1.06,1.06,0,0,0,1.51,0,1.05,1.05,0,0,0,0-1.5,1.06,1.06,0,0,0-1.51,1.5Z" transform="translate(88.11 166.54)"/><path class="cls-4" d="M323.57,130.59a1.08,1.08,0,0,0,1.51,0,1.07,1.07,0,0,0-1.51-1.51A1.08,1.08,0,0,0,323.57,130.59Z" transform="translate(88.11 166.54)"/><path class="cls-4" d="M330.05,137.06a1.05,1.05,0,0,0,1.5,0,1.06,1.06,0,1,0-1.5,0Z" transform="translate(88.11 166.54)"/><path class="cls-4" d="M336.52,143.53a1.05,1.05,0,0,0,1.5,0,1.06,1.06,0,1,0-1.5,0Z" transform="translate(88.11 166.54)"/><path class="cls-4" d="M343,150a1.05,1.05,0,0,0,1.5,0,1.06,1.06,0,1,0-1.5,0Z" transform="translate(88.11 166.54)"/><path class="cls-4" d="M349.46,156.47a1.06,1.06,0,0,0,1.51,0,1.07,1.07,0,1,0-1.51-1.51A1.06,1.06,0,0,0,349.46,156.47Z" transform="translate(88.11 166.54)"/><circle class="cls-4" cx="444.79" cy="328.72" r="1.07"/><path class="cls-4" d="M362.4,169.41a1.06,1.06,0,1,0,0-1.5A1.05,1.05,0,0,0,362.4,169.41Z" transform="translate(88.11 166.54)"/><path class="cls-4" d="M368.87,175.88a1.06,1.06,0,1,0,0-1.5A1.05,1.05,0,0,0,368.87,175.88Z" transform="translate(88.11 166.54)"/><circle class="cls-4" cx="464.21" cy="348.14" r="1.07"/><path class="cls-4" d="M317.1,137.06a1.07,1.07,0,0,0,1.51-1.51,1.07,1.07,0,0,0-1.51,1.51Z" transform="translate(88.11 166.54)"/><path class="cls-4" d="M323.57,143.53a1.07,1.07,0,0,0,1.51-1.51,1.07,1.07,0,0,0-1.51,1.51Z" transform="translate(88.11 166.54)"/><path class="cls-4" d="M330.05,150a1.05,1.05,0,0,0,1.5,0,1.06,1.06,0,1,0-1.5,0Z" transform="translate(88.11 166.54)"/><path class="cls-4" d="M336.52,156.47a1.05,1.05,0,0,0,1.5,0,1.06,1.06,0,1,0-1.5,0Z" transform="translate(88.11 166.54)"/><path class="cls-4" d="M343,162.94a1.06,1.06,0,1,0,0-1.5A1.05,1.05,0,0,0,343,162.94Z" transform="translate(88.11 166.54)"/><path class="cls-4" d="M349.46,169.41a1.06,1.06,0,1,0,0-1.5A1.05,1.05,0,0,0,349.46,169.41Z" transform="translate(88.11 166.54)"/><path class="cls-4" d="M355.93,175.88a1.06,1.06,0,1,0,0-1.5A1.05,1.05,0,0,0,355.93,175.88Z" transform="translate(88.11 166.54)"/><path class="cls-4" d="M362.4,182.36a1.07,1.07,0,0,0,1.51-1.51,1.07,1.07,0,1,0-1.51,1.51Z" transform="translate(88.11 166.54)"/><path class="cls-4" d="M368.87,188.83a1.07,1.07,0,0,0,1.51-1.51,1.07,1.07,0,1,0-1.51,1.51Z" transform="translate(88.11 166.54)"/><path class="cls-4" d="M310.63,143.53a1.07,1.07,0,0,0,1.51-1.51,1.07,1.07,0,0,0-1.51,1.51Z" transform="translate(88.11 166.54)"/><path class="cls-4" d="M317.1,150a1.07,1.07,0,0,0,1.51-1.51A1.07,1.07,0,0,0,317.1,150Z" transform="translate(88.11 166.54)"/><path class="cls-4" d="M323.57,156.47a1.07,1.07,0,0,0,1.51-1.51,1.07,1.07,0,0,0-1.51,1.51Z" transform="translate(88.11 166.54)"/><path class="cls-4" d="M330.05,162.94a1.06,1.06,0,1,0,0-1.5A1.05,1.05,0,0,0,330.05,162.94Z" transform="translate(88.11 166.54)"/><path class="cls-4" d="M336.52,169.41a1.06,1.06,0,1,0,0-1.5A1.05,1.05,0,0,0,336.52,169.41Z" transform="translate(88.11 166.54)"/><path class="cls-4" d="M343,175.88a1.06,1.06,0,1,0,0-1.5A1.05,1.05,0,0,0,343,175.88Z" transform="translate(88.11 166.54)"/><path class="cls-4" d="M349.46,182.36a1.07,1.07,0,1,0,1.51-1.51,1.07,1.07,0,0,0-1.51,1.51Z" transform="translate(88.11 166.54)"/><path class="cls-4" d="M355.93,188.83a1.07,1.07,0,0,0,1.51-1.51,1.07,1.07,0,1,0-1.51,1.51Z" transform="translate(88.11 166.54)"/><path class="cls-4" d="M362.4,195.3a1.07,1.07,0,0,0,1.51-1.51,1.07,1.07,0,1,0-1.51,1.51Z" transform="translate(88.11 166.54)"/><path class="cls-4" d="M304.16,150a1.07,1.07,0,0,0,1.51-1.51,1.07,1.07,0,0,0-1.51,1.51Z" transform="translate(88.11 166.54)"/><path class="cls-4" d="M310.63,156.47a1.07,1.07,0,0,0,1.51-1.51,1.07,1.07,0,0,0-1.51,1.51Z" transform="translate(88.11 166.54)"/><circle class="cls-4" cx="405.97" cy="328.72" r="1.07"/><path class="cls-4" d="M323.57,169.41a1.06,1.06,0,0,0,1.51,0,1.05,1.05,0,0,0,0-1.5,1.06,1.06,0,0,0-1.51,1.5Z" transform="translate(88.11 166.54)"/><path class="cls-4" d="M330.05,175.88a1.06,1.06,0,1,0,0-1.5A1.05,1.05,0,0,0,330.05,175.88Z" transform="translate(88.11 166.54)"/><circle class="cls-4" cx="425.38" cy="348.14" r="1.07"/><path class="cls-4" d="M343,188.83a1.06,1.06,0,0,0,1.5-1.51,1.05,1.05,0,0,0-1.5,0A1.06,1.06,0,0,0,343,188.83Z" transform="translate(88.11 166.54)"/><path class="cls-4" d="M349.46,195.3a1.07,1.07,0,1,0,1.51-1.51,1.07,1.07,0,0,0-1.51,1.51Z" transform="translate(88.11 166.54)"/><circle class="cls-4" cx="444.79" cy="367.55" r="1.07"/><path class="cls-4" d="M297.69,156.47a1.06,1.06,0,0,0,1.51,0,1.07,1.07,0,1,0-1.51,0Z" transform="translate(88.11 166.54)"/><path class="cls-4" d="M304.16,162.94a1.06,1.06,0,0,0,1.51,0,1.05,1.05,0,0,0,0-1.5,1.06,1.06,0,0,0-1.51,1.5Z" transform="translate(88.11 166.54)"/><path class="cls-4" d="M310.63,169.41a1.06,1.06,0,0,0,1.51,0,1.05,1.05,0,0,0,0-1.5,1.06,1.06,0,0,0-1.51,1.5Z" transform="translate(88.11 166.54)"/><path class="cls-4" d="M317.1,175.88a1.06,1.06,0,0,0,1.51,0,1.05,1.05,0,0,0,0-1.5,1.06,1.06,0,0,0-1.51,1.5Z" transform="translate(88.11 166.54)"/><path class="cls-4" d="M323.57,182.36a1.08,1.08,0,0,0,1.51,0,1.07,1.07,0,0,0-1.51-1.51A1.08,1.08,0,0,0,323.57,182.36Z" transform="translate(88.11 166.54)"/><path class="cls-4" d="M330.05,188.83a1.06,1.06,0,0,0,1.5-1.51,1.05,1.05,0,0,0-1.5,0A1.06,1.06,0,0,0,330.05,188.83Z" transform="translate(88.11 166.54)"/><path class="cls-4" d="M336.52,195.3a1.06,1.06,0,1,0,1.5-1.51,1.05,1.05,0,0,0-1.5,0A1.06,1.06,0,0,0,336.52,195.3Z" transform="translate(88.11 166.54)"/><path class="cls-4" d="M343,201.77a1.06,1.06,0,0,0,1.5-1.51,1.05,1.05,0,0,0-1.5,0A1.06,1.06,0,0,0,343,201.77Z" transform="translate(88.11 166.54)"/><path class="cls-4" d="M349.46,208.24a1.06,1.06,0,0,0,1.51,0,1.07,1.07,0,1,0-1.51-1.51A1.06,1.06,0,0,0,349.46,208.24Z" transform="translate(88.11 166.54)"/><path class="cls-4" d="M291.22,162.94a1.06,1.06,0,1,0,0-1.5A1.05,1.05,0,0,0,291.22,162.94Z" transform="translate(88.11 166.54)"/><path class="cls-4" d="M297.69,169.41a1.06,1.06,0,1,0,0-1.5A1.06,1.06,0,0,0,297.69,169.41Z" transform="translate(88.11 166.54)"/><path class="cls-4" d="M304.16,175.88a1.06,1.06,0,0,0,1.51,0,1.05,1.05,0,0,0,0-1.5,1.06,1.06,0,0,0-1.51,1.5Z" transform="translate(88.11 166.54)"/><path class="cls-4" d="M310.63,182.36a1.08,1.08,0,0,0,1.51,0,1.07,1.07,0,0,0-1.51-1.51A1.08,1.08,0,0,0,310.63,182.36Z" transform="translate(88.11 166.54)"/><path class="cls-4" d="M317.1,188.83a1.08,1.08,0,0,0,1.51,0,1.07,1.07,0,1,0-1.51-1.51A1.08,1.08,0,0,0,317.1,188.83Z" transform="translate(88.11 166.54)"/><path class="cls-4" d="M323.57,195.3a1.08,1.08,0,0,0,1.51,0,1.07,1.07,0,0,0-1.51-1.51A1.08,1.08,0,0,0,323.57,195.3Z" transform="translate(88.11 166.54)"/><path class="cls-4" d="M330.05,201.77a1.06,1.06,0,0,0,1.5-1.51,1.05,1.05,0,0,0-1.5,0A1.06,1.06,0,0,0,330.05,201.77Z" transform="translate(88.11 166.54)"/><path class="cls-4" d="M336.52,208.24a1.05,1.05,0,0,0,1.5,0,1.06,1.06,0,1,0-1.5,0Z" transform="translate(88.11 166.54)"/><path class="cls-4" d="M343,214.71a1.05,1.05,0,0,0,1.5,0,1.06,1.06,0,1,0-1.5,0Z" transform="translate(88.11 166.54)"/><path class="cls-4" d="M284.75,169.41a1.06,1.06,0,1,0,0-1.5A1.05,1.05,0,0,0,284.75,169.41Z" transform="translate(88.11 166.54)"/><path class="cls-4" d="M291.22,175.88a1.06,1.06,0,1,0,0-1.5A1.05,1.05,0,0,0,291.22,175.88Z" transform="translate(88.11 166.54)"/><path class="cls-4" d="M297.69,182.36a1.07,1.07,0,1,0,1.51-1.51,1.06,1.06,0,0,0-1.51,0A1.08,1.08,0,0,0,297.69,182.36Z" transform="translate(88.11 166.54)"/><path class="cls-4" d="M304.16,188.83a1.08,1.08,0,0,0,1.51,0,1.07,1.07,0,1,0-1.51-1.51A1.08,1.08,0,0,0,304.16,188.83Z" transform="translate(88.11 166.54)"/><path class="cls-4" d="M310.63,195.3a1.08,1.08,0,0,0,1.51,0,1.07,1.07,0,0,0-1.51-1.51A1.08,1.08,0,0,0,310.63,195.3Z" transform="translate(88.11 166.54)"/><circle class="cls-4" cx="405.97" cy="367.55" r="1.07"/><path class="cls-4" d="M323.57,208.24a1.07,1.07,0,1,0,1.51-1.51,1.07,1.07,0,0,0-1.51,1.51Z" transform="translate(88.11 166.54)"/><path class="cls-4" d="M330.05,214.71a1.05,1.05,0,0,0,1.5,0,1.06,1.06,0,1,0-1.5,0Z" transform="translate(88.11 166.54)"/><circle class="cls-4" cx="425.38" cy="386.96" r="1.07"/><path class="cls-4" d="M278.28,175.88a1.06,1.06,0,1,0,0-1.5A1.05,1.05,0,0,0,278.28,175.88Z" transform="translate(88.11 166.54)"/><path class="cls-4" d="M284.75,182.36a1.07,1.07,0,1,0,1.51-1.51,1.07,1.07,0,0,0-1.51,1.51Z" transform="translate(88.11 166.54)"/><path class="cls-4" d="M291.22,188.83a1.07,1.07,0,0,0,1.51-1.51,1.07,1.07,0,1,0-1.51,1.51Z" transform="translate(88.11 166.54)"/><path class="cls-4" d="M297.69,195.3a1.07,1.07,0,1,0,1.51-1.51,1.06,1.06,0,0,0-1.51,0A1.08,1.08,0,0,0,297.69,195.3Z" transform="translate(88.11 166.54)"/><path class="cls-4" d="M304.16,201.77a1.08,1.08,0,0,0,1.51,0,1.07,1.07,0,1,0-1.51-1.51A1.08,1.08,0,0,0,304.16,201.77Z" transform="translate(88.11 166.54)"/><path class="cls-4" d="M310.63,208.24a1.07,1.07,0,1,0,1.51-1.51,1.07,1.07,0,0,0-1.51,1.51Z" transform="translate(88.11 166.54)"/><path class="cls-4" d="M317.1,214.71a1.07,1.07,0,0,0,1.51-1.51,1.07,1.07,0,1,0-1.51,1.51Z" transform="translate(88.11 166.54)"/><path class="cls-4" d="M323.57,221.18a1.07,1.07,0,1,0,1.51-1.51,1.07,1.07,0,0,0-1.51,1.51Z" transform="translate(88.11 166.54)"/><path class="cls-4" d="M330.05,227.65a1.05,1.05,0,0,0,1.5,0,1.06,1.06,0,1,0-1.5,0Z" transform="translate(88.11 166.54)"/><path class="cls-4" d="M271.81,182.36a1.06,1.06,0,1,0,1.5-1.51,1.05,1.05,0,0,0-1.5,0A1.06,1.06,0,0,0,271.81,182.36Z" transform="translate(88.11 166.54)"/><path class="cls-4" d="M278.28,188.83a1.07,1.07,0,0,0,1.51-1.51,1.07,1.07,0,1,0-1.51,1.51Z" transform="translate(88.11 166.54)"/><path class="cls-4" d="M284.75,195.3a1.07,1.07,0,1,0,1.51-1.51,1.07,1.07,0,0,0-1.51,1.51Z" transform="translate(88.11 166.54)"/><path class="cls-4" d="M291.22,201.77a1.07,1.07,0,0,0,1.51-1.51,1.07,1.07,0,1,0-1.51,1.51Z" transform="translate(88.11 166.54)"/><path class="cls-4" d="M297.69,208.24a1.06,1.06,0,0,0,1.51,0,1.07,1.07,0,1,0-1.51,0Z" transform="translate(88.11 166.54)"/><path class="cls-4" d="M304.16,214.71a1.07,1.07,0,0,0,1.51-1.51,1.07,1.07,0,1,0-1.51,1.51Z" transform="translate(88.11 166.54)"/><path class="cls-4" d="M310.63,221.18a1.07,1.07,0,1,0,1.51-1.51,1.07,1.07,0,0,0-1.51,1.51Z" transform="translate(88.11 166.54)"/><path class="cls-4" d="M317.1,227.65a1.07,1.07,0,0,0,1.51-1.51,1.07,1.07,0,1,0-1.51,1.51Z" transform="translate(88.11 166.54)"/><path class="cls-4" d="M323.57,234.12a1.06,1.06,0,0,0,1.51,0,1.05,1.05,0,0,0,0-1.5,1.06,1.06,0,0,0-1.51,1.5Z" transform="translate(88.11 166.54)"/><path class="cls-4" d="M265.34,188.83a1.06,1.06,0,0,0,1.5-1.51,1.05,1.05,0,0,0-1.5,0A1.06,1.06,0,0,0,265.34,188.83Z" transform="translate(88.11 166.54)"/><path class="cls-4" d="M271.81,195.3a1.06,1.06,0,1,0,1.5-1.51,1.05,1.05,0,0,0-1.5,0A1.06,1.06,0,0,0,271.81,195.3Z" transform="translate(88.11 166.54)"/><path class="cls-4" d="M278.28,201.77a1.07,1.07,0,0,0,1.51-1.51,1.07,1.07,0,1,0-1.51,1.51Z" transform="translate(88.11 166.54)"/><path class="cls-4" d="M284.75,208.24a1.06,1.06,0,0,0,1.51,0,1.07,1.07,0,0,0-1.51-1.51A1.06,1.06,0,0,0,284.75,208.24Z" transform="translate(88.11 166.54)"/><path class="cls-4" d="M291.22,214.71a1.06,1.06,0,0,0,1.51,0,1.07,1.07,0,1,0-1.51-1.51A1.06,1.06,0,0,0,291.22,214.71Z" transform="translate(88.11 166.54)"/><path class="cls-4" d="M297.69,221.18a1.06,1.06,0,0,0,1.51,0,1.07,1.07,0,1,0-1.51,0Z" transform="translate(88.11 166.54)"/><path class="cls-4" d="M304.16,227.65a1.07,1.07,0,0,0,1.51-1.51,1.07,1.07,0,1,0-1.51,1.51Z" transform="translate(88.11 166.54)"/><path class="cls-4" d="M310.63,234.12a1.06,1.06,0,0,0,1.51,0,1.05,1.05,0,0,0,0-1.5,1.06,1.06,0,0,0-1.51,1.5Z" transform="translate(88.11 166.54)"/><path class="cls-4" d="M317.1,240.59a1.06,1.06,0,0,0,1.51,0,1.05,1.05,0,0,0,0-1.5,1.06,1.06,0,0,0-1.51,1.5Z" transform="translate(88.11 166.54)"/><path class="cls-4" d="M258.87,195.3a1.06,1.06,0,1,0,1.5-1.51,1.05,1.05,0,0,0-1.5,0A1.06,1.06,0,0,0,258.87,195.3Z" transform="translate(88.11 166.54)"/><path class="cls-4" d="M265.34,201.77a1.06,1.06,0,0,0,1.5-1.51,1.05,1.05,0,0,0-1.5,0A1.06,1.06,0,0,0,265.34,201.77Z" transform="translate(88.11 166.54)"/><path class="cls-4" d="M271.81,208.24a1.05,1.05,0,0,0,1.5,0,1.06,1.06,0,1,0-1.5,0Z" transform="translate(88.11 166.54)"/><path class="cls-4" d="M278.28,214.71a1.06,1.06,0,0,0,1.51,0,1.07,1.07,0,0,0-1.51-1.51A1.06,1.06,0,0,0,278.28,214.71Z" transform="translate(88.11 166.54)"/><path class="cls-4" d="M284.75,221.18a1.06,1.06,0,0,0,1.51,0,1.07,1.07,0,0,0-1.51-1.51A1.06,1.06,0,0,0,284.75,221.18Z" transform="translate(88.11 166.54)"/><path class="cls-4" d="M291.22,227.65a1.06,1.06,0,0,0,1.51,0,1.07,1.07,0,1,0-1.51-1.51A1.06,1.06,0,0,0,291.22,227.65Z" transform="translate(88.11 166.54)"/><path class="cls-4" d="M297.69,234.12a1.06,1.06,0,1,0,0-1.5A1.06,1.06,0,0,0,297.69,234.12Z" transform="translate(88.11 166.54)"/><path class="cls-4" d="M304.16,240.59a1.06,1.06,0,0,0,1.51,0,1.05,1.05,0,0,0,0-1.5,1.06,1.06,0,0,0-1.51,1.5Z" transform="translate(88.11 166.54)"/><path class="cls-4" d="M310.63,247.06a1.06,1.06,0,0,0,1.51,0,1.05,1.05,0,0,0,0-1.5,1.06,1.06,0,0,0-1.51,1.5Z" transform="translate(88.11 166.54)"/><circle class="cls-4" cx="341.26" cy="367.55" r="1.07"/><path class="cls-4" d="M258.87,208.24a1.05,1.05,0,0,0,1.5,0,1.06,1.06,0,1,0-1.5,0Z" transform="translate(88.11 166.54)"/><path class="cls-4" d="M265.34,214.71a1.05,1.05,0,0,0,1.5,0,1.06,1.06,0,1,0-1.5,0Z" transform="translate(88.11 166.54)"/><path class="cls-4" d="M271.81,221.18a1.05,1.05,0,0,0,1.5,0,1.06,1.06,0,1,0-1.5,0Z" transform="translate(88.11 166.54)"/><path class="cls-4" d="M278.28,227.65a1.06,1.06,0,0,0,1.51,0,1.07,1.07,0,0,0-1.51-1.51A1.06,1.06,0,0,0,278.28,227.65Z" transform="translate(88.11 166.54)"/><path class="cls-4" d="M284.75,234.12a1.06,1.06,0,1,0,0-1.5A1.05,1.05,0,0,0,284.75,234.12Z" transform="translate(88.11 166.54)"/><path class="cls-4" d="M291.22,240.59a1.06,1.06,0,1,0,0-1.5A1.05,1.05,0,0,0,291.22,240.59Z" transform="translate(88.11 166.54)"/><path class="cls-4" d="M297.69,247.06a1.06,1.06,0,1,0,0-1.5A1.06,1.06,0,0,0,297.69,247.06Z" transform="translate(88.11 166.54)"/><path class="cls-4" d="M304.16,253.54a1.08,1.08,0,0,0,1.51,0,1.07,1.07,0,0,0-1.51-1.51A1.08,1.08,0,0,0,304.16,253.54Z" transform="translate(88.11 166.54)"/><path class="cls-4" d="M245.92,208.24a1.07,1.07,0,1,0,1.51-1.51,1.07,1.07,0,0,0-1.51,1.51Z" transform="translate(88.11 166.54)"/><path class="cls-4" d="M252.4,214.71a1.05,1.05,0,0,0,1.5,0,1.06,1.06,0,1,0-1.5,0Z" transform="translate(88.11 166.54)"/><path class="cls-4" d="M258.87,221.18a1.05,1.05,0,0,0,1.5,0,1.06,1.06,0,1,0-1.5,0Z" transform="translate(88.11 166.54)"/><path class="cls-4" d="M265.34,227.65a1.05,1.05,0,0,0,1.5,0,1.06,1.06,0,1,0-1.5,0Z" transform="translate(88.11 166.54)"/><path class="cls-4" d="M271.81,234.12a1.06,1.06,0,1,0,0-1.5A1.05,1.05,0,0,0,271.81,234.12Z" transform="translate(88.11 166.54)"/><path class="cls-4" d="M278.28,240.59a1.06,1.06,0,1,0,0-1.5A1.05,1.05,0,0,0,278.28,240.59Z" transform="translate(88.11 166.54)"/><path class="cls-4" d="M284.75,247.06a1.06,1.06,0,1,0,0-1.5A1.05,1.05,0,0,0,284.75,247.06Z" transform="translate(88.11 166.54)"/><path class="cls-4" d="M291.22,253.54a1.07,1.07,0,0,0,1.51-1.51,1.07,1.07,0,0,0-1.51,1.51Z" transform="translate(88.11 166.54)"/><path class="cls-4" d="M297.69,260a1.07,1.07,0,0,0,1.51-1.51,1.06,1.06,0,0,0-1.51,0A1.08,1.08,0,0,0,297.69,260Z" transform="translate(88.11 166.54)"/><path class="cls-4" d="M239.45,214.71A1.07,1.07,0,0,0,241,213.2a1.07,1.07,0,1,0-1.51,1.51Z" transform="translate(88.11 166.54)"/><path class="cls-4" d="M245.92,221.18a1.07,1.07,0,1,0,1.51-1.51,1.07,1.07,0,0,0-1.51,1.51Z" transform="translate(88.11 166.54)"/><path class="cls-4" d="M252.4,227.65a1.05,1.05,0,0,0,1.5,0,1.06,1.06,0,1,0-1.5,0Z" transform="translate(88.11 166.54)"/><path class="cls-4" d="M258.87,234.12a1.06,1.06,0,1,0,0-1.5A1.05,1.05,0,0,0,258.87,234.12Z" transform="translate(88.11 166.54)"/><path class="cls-4" d="M265.34,240.59a1.06,1.06,0,1,0,0-1.5A1.05,1.05,0,0,0,265.34,240.59Z" transform="translate(88.11 166.54)"/><path class="cls-4" d="M271.81,247.06a1.06,1.06,0,1,0,0-1.5A1.05,1.05,0,0,0,271.81,247.06Z" transform="translate(88.11 166.54)"/><path class="cls-4" d="M278.28,253.54a1.07,1.07,0,0,0,1.51-1.51,1.07,1.07,0,1,0-1.51,1.51Z" transform="translate(88.11 166.54)"/><path class="cls-4" d="M284.75,260a1.07,1.07,0,0,0,1.51-1.51,1.07,1.07,0,0,0-1.51,1.51Z" transform="translate(88.11 166.54)"/><path class="cls-4" d="M291.22,266.48a1.07,1.07,0,0,0,1.51-1.51,1.07,1.07,0,0,0-1.51,1.51Z" transform="translate(88.11 166.54)"/><circle class="cls-4" cx="321.85" cy="386.96" r="1.07"/><path class="cls-4" d="M239.45,227.65a1.07,1.07,0,0,0,1.51-1.51,1.07,1.07,0,1,0-1.51,1.51Z" transform="translate(88.11 166.54)"/><path class="cls-4" d="M245.92,234.12a1.06,1.06,0,0,0,1.51,0,1.05,1.05,0,0,0,0-1.5,1.06,1.06,0,0,0-1.51,1.5Z" transform="translate(88.11 166.54)"/><path class="cls-4" d="M252.4,240.59a1.06,1.06,0,1,0,0-1.5A1.05,1.05,0,0,0,252.4,240.59Z" transform="translate(88.11 166.54)"/><path class="cls-4" d="M258.87,247.06a1.06,1.06,0,1,0,0-1.5A1.05,1.05,0,0,0,258.87,247.06Z" transform="translate(88.11 166.54)"/><path class="cls-4" d="M265.34,253.54a1.06,1.06,0,0,0,1.5-1.51,1.05,1.05,0,0,0-1.5,0A1.06,1.06,0,0,0,265.34,253.54Z" transform="translate(88.11 166.54)"/><path class="cls-4" d="M271.81,260a1.06,1.06,0,0,0,1.5-1.51,1.05,1.05,0,0,0-1.5,0A1.06,1.06,0,0,0,271.81,260Z" transform="translate(88.11 166.54)"/><path class="cls-4" d="M278.28,266.48a1.07,1.07,0,0,0,1.51-1.51,1.07,1.07,0,1,0-1.51,1.51Z" transform="translate(88.11 166.54)"/><path class="cls-4" d="M284.75,273a1.07,1.07,0,0,0,1.51-1.51,1.07,1.07,0,0,0-1.51,1.51Z" transform="translate(88.11 166.54)"/><path class="cls-4" d="M226.51,227.65a1.06,1.06,0,0,0,1.51,0,1.07,1.07,0,1,0-1.51,0Z" transform="translate(88.11 166.54)"/><path class="cls-4" d="M233,234.12a1.06,1.06,0,0,0,1.51,0,1.05,1.05,0,0,0,0-1.5,1.06,1.06,0,0,0-1.51,1.5Z" transform="translate(88.11 166.54)"/><path class="cls-4" d="M239.45,240.59a1.06,1.06,0,0,0,1.51,0,1.05,1.05,0,0,0,0-1.5,1.06,1.06,0,1,0-1.51,1.5Z" transform="translate(88.11 166.54)"/><path class="cls-4" d="M245.92,247.06a1.06,1.06,0,0,0,1.51,0,1.05,1.05,0,0,0,0-1.5,1.06,1.06,0,0,0-1.51,1.5Z" transform="translate(88.11 166.54)"/><path class="cls-4" d="M252.4,253.54a1.06,1.06,0,0,0,1.5-1.51,1.05,1.05,0,0,0-1.5,0A1.06,1.06,0,0,0,252.4,253.54Z" transform="translate(88.11 166.54)"/><path class="cls-4" d="M258.87,260a1.06,1.06,0,0,0,1.5-1.51,1.05,1.05,0,0,0-1.5,0A1.06,1.06,0,0,0,258.87,260Z" transform="translate(88.11 166.54)"/><path class="cls-4" d="M265.34,266.48a1.06,1.06,0,0,0,1.5-1.51,1.05,1.05,0,0,0-1.5,0A1.06,1.06,0,0,0,265.34,266.48Z" transform="translate(88.11 166.54)"/><path class="cls-4" d="M271.81,273a1.06,1.06,0,0,0,1.5-1.51,1.05,1.05,0,0,0-1.5,0A1.06,1.06,0,0,0,271.81,273Z" transform="translate(88.11 166.54)"/><path class="cls-4" d="M278.28,279.42a1.07,1.07,0,1,0,0-1.51A1.06,1.06,0,0,0,278.28,279.42Z" transform="translate(88.11 166.54)"/><path class="cls-4" d="M220,234.12a1.06,1.06,0,1,0,0-1.5A1.05,1.05,0,0,0,220,234.12Z" transform="translate(88.11 166.54)"/><path class="cls-4" d="M226.51,240.59a1.06,1.06,0,1,0,0-1.5A1.06,1.06,0,0,0,226.51,240.59Z" transform="translate(88.11 166.54)"/><path class="cls-4" d="M233,247.06a1.06,1.06,0,0,0,1.51,0,1.05,1.05,0,0,0,0-1.5,1.06,1.06,0,0,0-1.51,1.5Z" transform="translate(88.11 166.54)"/><path class="cls-4" d="M239.45,253.54a1.08,1.08,0,0,0,1.51,0,1.07,1.07,0,0,0-1.51-1.51A1.08,1.08,0,0,0,239.45,253.54Z" transform="translate(88.11 166.54)"/><path class="cls-4" d="M245.92,260a1.08,1.08,0,0,0,1.51,0,1.07,1.07,0,1,0-1.51-1.51A1.08,1.08,0,0,0,245.92,260Z" transform="translate(88.11 166.54)"/><path class="cls-4" d="M252.4,266.48a1.06,1.06,0,0,0,1.5-1.51,1.05,1.05,0,0,0-1.5,0A1.06,1.06,0,0,0,252.4,266.48Z" transform="translate(88.11 166.54)"/><path class="cls-4" d="M258.87,273a1.06,1.06,0,0,0,1.5-1.51,1.05,1.05,0,0,0-1.5,0A1.06,1.06,0,0,0,258.87,273Z" transform="translate(88.11 166.54)"/><path class="cls-4" d="M265.34,279.42a1.06,1.06,0,1,0,0-1.51A1.07,1.07,0,0,0,265.34,279.42Z" transform="translate(88.11 166.54)"/><path class="cls-4" d="M271.81,285.89a1.05,1.05,0,0,0,1.5,0,1.06,1.06,0,1,0-1.5,0Z" transform="translate(88.11 166.54)"/><path class="cls-4" d="M213.57,240.59a1.06,1.06,0,1,0,0-1.5A1.05,1.05,0,0,0,213.57,240.59Z" transform="translate(88.11 166.54)"/><path class="cls-4" d="M220,247.06a1.06,1.06,0,1,0,0-1.5A1.05,1.05,0,0,0,220,247.06Z" transform="translate(88.11 166.54)"/><path class="cls-4" d="M226.51,253.54A1.07,1.07,0,0,0,228,252a1.06,1.06,0,0,0-1.51,0A1.08,1.08,0,0,0,226.51,253.54Z" transform="translate(88.11 166.54)"/><path class="cls-4" d="M233,260a1.08,1.08,0,0,0,1.51,0A1.07,1.07,0,1,0,233,258.5,1.08,1.08,0,0,0,233,260Z" transform="translate(88.11 166.54)"/><path class="cls-4" d="M239.45,266.48a1.08,1.08,0,0,0,1.51,0,1.07,1.07,0,0,0-1.51-1.51A1.08,1.08,0,0,0,239.45,266.48Z" transform="translate(88.11 166.54)"/><path class="cls-4" d="M245.92,273a1.08,1.08,0,0,0,1.51,0,1.07,1.07,0,1,0-1.51-1.51A1.08,1.08,0,0,0,245.92,273Z" transform="translate(88.11 166.54)"/><path class="cls-4" d="M252.4,279.42a1.06,1.06,0,1,0,0-1.51A1.07,1.07,0,0,0,252.4,279.42Z" transform="translate(88.11 166.54)"/><path class="cls-4" d="M258.87,285.89a1.05,1.05,0,0,0,1.5,0,1.06,1.06,0,1,0-1.5,0Z" transform="translate(88.11 166.54)"/><path class="cls-4" d="M265.34,292.36a1.05,1.05,0,0,0,1.5,0,1.06,1.06,0,1,0-1.5,0Z" transform="translate(88.11 166.54)"/><path class="cls-5" d="M185.77,195.74a2.65,2.65,0,0,1-.88-.38l.44-1a3,3,0,0,0,.75.34,3,3,0,0,0,.83.13q.78,0,.78-.39a.34.34,0,0,0-.23-.31,4.18,4.18,0,0,0-.71-.2,6.92,6.92,0,0,1-.9-.25,1.48,1.48,0,0,1-.62-.43,1.17,1.17,0,0,1-.26-.79,1.36,1.36,0,0,1,.24-.79,1.69,1.69,0,0,1,.71-.56,3.11,3.11,0,0,1,1.17-.2,4.06,4.06,0,0,1,.92.11,2.68,2.68,0,0,1,.81.31l-.42,1a2.7,2.7,0,0,0-1.32-.37,1.11,1.11,0,0,0-.59.12.36.36,0,0,0-.18.31.31.31,0,0,0,.22.29,4.3,4.3,0,0,0,.7.2,7.07,7.07,0,0,1,.9.24,1.48,1.48,0,0,1,.62.43,1.09,1.09,0,0,1,.27.78,1.33,1.33,0,0,1-.24.78,1.66,1.66,0,0,1-.72.56,2.86,2.86,0,0,1-1.16.21A4.28,4.28,0,0,1,185.77,195.74Z" transform="translate(88.11 166.54)"/><path class="cls-5" d="M194.59,191v4.77h-1.35v-1.86H191.4v1.86h-1.35V191h1.35v1.79h1.84V191Z" transform="translate(88.11 166.54)"/><path class="cls-5" d="M197,195.57a2.47,2.47,0,0,1-.95-.89,2.4,2.4,0,0,1-.34-1.28,2.37,2.37,0,0,1,.34-1.27,2.4,2.4,0,0,1,.95-.89,3.07,3.07,0,0,1,2.73,0A2.43,2.43,0,0,1,201,193.4a2.41,2.41,0,0,1-.35,1.28,2.44,2.44,0,0,1-.94.89,3.07,3.07,0,0,1-2.73,0Zm2-1a1.32,1.32,0,0,0,.46-.48,1.42,1.42,0,0,0,.17-.72,1.38,1.38,0,0,0-.17-.71,1.18,1.18,0,0,0-.46-.48,1.35,1.35,0,0,0-.66-.17,1.29,1.29,0,0,0-.65.17,1.21,1.21,0,0,0-.47.48,1.49,1.49,0,0,0-.17.71,1.53,1.53,0,0,0,.17.72,1.35,1.35,0,0,0,.47.48,1.29,1.29,0,0,0,.65.17A1.35,1.35,0,0,0,199,194.6Z" transform="translate(88.11 166.54)"/><path class="cls-5" d="M205.45,191.23a1.69,1.69,0,0,1,.73.61,1.83,1.83,0,0,1,0,1.88,1.76,1.76,0,0,1-.73.61,2.81,2.81,0,0,1-1.13.21h-.83v1.25h-1.35V191h2.18A2.81,2.81,0,0,1,205.45,191.23Zm-.58,2.07a.64.64,0,0,0,.21-.52.67.67,0,0,0-.21-.52,1,1,0,0,0-.63-.18h-.75v1.4h.75A1,1,0,0,0,204.87,193.3Z" transform="translate(88.11 166.54)"/><path class="cls-5" d="M214.51,191v4.77H213.4l-2.11-2.54v2.54H210V191h1.11l2.11,2.54V191Z" transform="translate(88.11 166.54)"/><path class="cls-5" d="M216.93,195.57a2.42,2.42,0,0,1-1.3-2.17,2.38,2.38,0,0,1,.35-1.27,2.33,2.33,0,0,1,1-.89,2.87,2.87,0,0,1,1.36-.32,2.9,2.9,0,0,1,1.36.32,2.4,2.4,0,0,1,.95.89,2.37,2.37,0,0,1,.34,1.27,2.4,2.4,0,0,1-.34,1.28,2.47,2.47,0,0,1-.95.89,2.9,2.9,0,0,1-1.36.32A2.87,2.87,0,0,1,216.93,195.57Zm2-1a1.35,1.35,0,0,0,.47-.48,1.53,1.53,0,0,0,.17-.72,1.49,1.49,0,0,0-.17-.71,1.21,1.21,0,0,0-.47-.48,1.29,1.29,0,0,0-.65-.17,1.35,1.35,0,0,0-.66.17,1.18,1.18,0,0,0-.46.48,1.38,1.38,0,0,0-.17.71,1.42,1.42,0,0,0,.17.72,1.32,1.32,0,0,0,.46.48,1.35,1.35,0,0,0,.66.17A1.29,1.29,0,0,0,218.94,194.6Z" transform="translate(88.11 166.54)"/><path class="cls-5" d="M229.39,191l-1.55,4.77h-1.45l-.91-2.9-1,2.9h-1.44L221.53,191h1.39l1,3,1-3h1.24l1,3.07,1-3.07Z" transform="translate(88.11 166.54)"/><path class="cls-6" d="M152.08,177.19a4,4,0,0,1-1.14-3v-4.79h3v4.71a2.24,2.24,0,0,0,.34,1.39,1.37,1.37,0,0,0,2,0,2.23,2.23,0,0,0,.35-1.39v-4.71h2.93v4.79a4,4,0,0,1-1.14,3,5.15,5.15,0,0,1-6.34,0Z" transform="translate(88.11 166.54)"/><path class="cls-6" d="M168.71,169.75a3.2,3.2,0,0,1,1.4,1.15,3.35,3.35,0,0,1,0,3.49,3.2,3.2,0,0,1-1.4,1.15,5.41,5.41,0,0,1-2.14.4H165.3v2.14h-3v-8.72h4.26A5.41,5.41,0,0,1,168.71,169.75Zm-1.42,3.65a1.07,1.07,0,0,0,0-1.51,1.32,1.32,0,0,0-.91-.27H165.3v2h1.08A1.32,1.32,0,0,0,167.29,173.4Z" transform="translate(88.11 166.54)"/><path class="cls-6" d="M174.69,171.64h-2.58v-2.28h8.16v2.28h-2.59v6.44h-3Z" transform="translate(88.11 166.54)"/><path class="cls-6" d="M184.37,177.69a4.5,4.5,0,0,1-1.78-1.62,4.39,4.39,0,0,1-.64-2.35,4.34,4.34,0,0,1,.64-2.35,4.45,4.45,0,0,1,1.78-1.63,6,6,0,0,1,5.13,0,4.51,4.51,0,0,1,1.78,6.33,4.43,4.43,0,0,1-1.78,1.62,5.87,5.87,0,0,1-5.13,0Zm3.57-2.06a2,2,0,0,0,.72-.76,2.47,2.47,0,0,0,.26-1.15,2.51,2.51,0,0,0-.26-1.16,2,2,0,0,0-.72-.76,2,2,0,0,0-1-.26,2,2,0,0,0-1,.26,2,2,0,0,0-.71.76,2.39,2.39,0,0,0-.27,1.16,2.35,2.35,0,0,0,.27,1.15,1.89,1.89,0,0,0,1.72,1A1.9,1.9,0,0,0,187.94,175.63Z" transform="translate(88.11 166.54)"/><path class="cls-6" d="M206.7,169.36v1.8l-2.95,6.92h-3.26l2.81-6.44h-1.71v1.27h-2.46v-3.55Z" transform="translate(88.11 166.54)"/><path class="cls-6" d="M210.44,177.74a3.78,3.78,0,0,1-1.41-1.57,5.5,5.5,0,0,1-.51-2.45,5.44,5.44,0,0,1,.51-2.45,3.66,3.66,0,0,1,1.41-1.57,4.28,4.28,0,0,1,4.16,0,3.66,3.66,0,0,1,1.41,1.57,5.31,5.31,0,0,1,.52,2.45,5.36,5.36,0,0,1-.52,2.45,3.78,3.78,0,0,1-1.41,1.57,4.28,4.28,0,0,1-4.16,0Zm3.09-4c0-1.47-.34-2.21-1-2.21s-1,.74-1,2.21.34,2.2,1,2.2S213.53,175.19,213.53,173.72Z" transform="translate(88.11 166.54)"/><path class="cls-6" d="M219.14,173.44a2.37,2.37,0,0,1-.66-1.78,2.7,2.7,0,0,1,.31-1.31,2,2,0,0,1,.84-.83,2.65,2.65,0,0,1,2.41,0,2,2,0,0,1,.84.83,2.7,2.7,0,0,1,.3,1.31,2.36,2.36,0,0,1-.65,1.78,2.54,2.54,0,0,1-3.39,0Zm6.89-4.08h2.13l-6,8.72H220Zm-4.8,3.13a2.23,2.23,0,0,0,0-1.66.45.45,0,0,0-.4-.25.44.44,0,0,0-.39.25,2.23,2.23,0,0,0,0,1.66.45.45,0,0,0,.39.26A.46.46,0,0,0,221.23,172.49Zm4.39,5.07a2.4,2.4,0,0,1-.65-1.79,2.72,2.72,0,0,1,.3-1.31,2,2,0,0,1,.84-.83,2.65,2.65,0,0,1,2.41,0,2,2,0,0,1,.84.83,2.73,2.73,0,0,1,.31,1.31,2.41,2.41,0,0,1-.66,1.79,2.31,2.31,0,0,1-1.69.64A2.33,2.33,0,0,1,225.62,177.56Zm2.09-1a1.57,1.57,0,0,0,.16-.83,1.6,1.6,0,0,0-.16-.83.44.44,0,0,0-.39-.25.45.45,0,0,0-.4.25,1.6,1.6,0,0,0-.16.83,1.57,1.57,0,0,0,.16.83.46.46,0,0,0,.4.26A.45.45,0,0,0,227.71,176.6Z" transform="translate(88.11 166.54)"/><path class="cls-6" d="M239.23,177.69a4.36,4.36,0,0,1-2.43-4,4.39,4.39,0,0,1,2.43-4,6,6,0,0,1,5.13,0,4.38,4.38,0,0,1,1.78,1.63,4.34,4.34,0,0,1,.64,2.35,4.33,4.33,0,0,1-2.42,4,5.87,5.87,0,0,1-5.13,0Zm3.57-2.06a1.93,1.93,0,0,0,.71-.76,2.35,2.35,0,0,0,.27-1.15,2.39,2.39,0,0,0-.27-1.16,2,2,0,0,0-.71-.76,2,2,0,0,0-1-.26,2,2,0,0,0-1,.26,1.93,1.93,0,0,0-.71.76,2.39,2.39,0,0,0-.27,1.16,2.35,2.35,0,0,0,.27,1.15,1.86,1.86,0,0,0,.71.76,1.9,1.9,0,0,0,1,.27A1.93,1.93,0,0,0,242.8,175.63Z" transform="translate(88.11 166.54)"/><path class="cls-6" d="M252.24,171.57v1.5h3.69v2.22h-3.69v2.79h-3v-8.72h7.19v2.21Z" transform="translate(88.11 166.54)"/><path class="cls-6" d="M261.77,171.57v1.5h3.69v2.22h-3.69v2.79h-3v-8.72H266v2.21Z" transform="translate(88.11 166.54)"/><path class="cls-6" d="M147.92,36.12h2.31v5h3.1v1.77h-5.41Z" transform="translate(88.11 166.54)"/><path class="cls-6" d="M155,36.12h2.32v6.77H155Z" transform="translate(88.11 166.54)"/><path class="cls-6" d="M165.67,42.89l0-3.09-1.49,2.48h-1l-1.48-2.37v3h-2.11V36.12h1.9l2.23,3.61,2.18-3.61h1.9l0,6.77Z" transform="translate(88.11 166.54)"/><path class="cls-6" d="M170,36.12h2.31v6.77H170Z" transform="translate(88.11 166.54)"/><path class="cls-6" d="M176,37.89h-2V36.12h6.33v1.77h-2v5H176Z" transform="translate(88.11 166.54)"/><path class="cls-6" d="M187.66,41.17v1.72H182V36.12h5.58v1.72h-3.31v.8h2.9v1.64h-2.9v.89Z" transform="translate(88.11 166.54)"/><path class="cls-6" d="M189.63,36.12H193a4.73,4.73,0,0,1,2,.41,3.23,3.23,0,0,1,1.37,1.18,3.6,3.6,0,0,1,0,3.59A3.23,3.23,0,0,1,195,42.48a4.73,4.73,0,0,1-2,.41h-3.38Zm3.28,5a1.65,1.65,0,0,0,1.19-.42,1.79,1.79,0,0,0,0-2.37,1.65,1.65,0,0,0-1.19-.42h-1v3.21Z" transform="translate(88.11 166.54)"/><path class="cls-6" d="M204.31,37.89h-2V36.12h6.33v1.77h-2v5h-2.31Z" transform="translate(88.11 166.54)"/><path class="cls-6" d="M210.3,36.12h2.31v6.77H210.3Z" transform="translate(88.11 166.54)"/><path class="cls-6" d="M220.93,42.89l0-3.09-1.49,2.48h-1l-1.49-2.37v3h-2.1V36.12h1.9l2.23,3.61,2.17-3.61H223v6.77Z" transform="translate(88.11 166.54)"/><path class="cls-6" d="M230.93,41.17v1.72h-5.7V36.12h5.57v1.72h-3.3v.8h2.9v1.64h-2.9v.89Z" transform="translate(88.11 166.54)"/><path class="cls-6" d="M238.52,42.59a3.51,3.51,0,0,1-1.38-1.26,3.58,3.58,0,0,1,0-3.65,3.51,3.51,0,0,1,1.38-1.26,4.63,4.63,0,0,1,4,0,3.51,3.51,0,0,1,1.38,1.26,3.58,3.58,0,0,1,0,3.65,3.51,3.51,0,0,1-1.38,1.26,4.63,4.63,0,0,1-4,0Zm2.77-1.6a1.57,1.57,0,0,0,.55-.59,2,2,0,0,0,0-1.79,1.57,1.57,0,0,0-.55-.59,1.55,1.55,0,0,0-1.56,0,1.49,1.49,0,0,0-.55.59,2,2,0,0,0,0,1.79,1.49,1.49,0,0,0,.55.59,1.55,1.55,0,0,0,1.56,0Z" transform="translate(88.11 166.54)"/><path class="cls-6" d="M248.61,37.84V39h2.86v1.72h-2.86v2.17H246.3V36.12h5.57v1.72Z" transform="translate(88.11 166.54)"/><path class="cls-6" d="M256,37.84V39h2.86v1.72H256v2.17h-2.31V36.12h5.57v1.72Z" transform="translate(88.11 166.54)"/><path class="cls-6" d="M266.77,41.17v1.72h-5.7V36.12h5.57v1.72h-3.3v.8h2.9v1.64h-2.9v.89Z" transform="translate(88.11 166.54)"/><path class="cls-6" d="M271.68,41.19h-.63v1.7h-2.31V36.12H272a4.24,4.24,0,0,1,1.66.31,2.37,2.37,0,0,1,1.47,2.24,2.28,2.28,0,0,1-1.3,2.13l1.44,2.09h-2.47Zm.92-3.1a1,1,0,0,0-.71-.21h-.84v1.59h.84a1,1,0,0,0,.71-.21.74.74,0,0,0,.23-.59A.72.72,0,0,0,272.6,38.09Z" transform="translate(88.11 166.54)"/><path class="cls-7" d="M167.22,80.82l-.09-14-6.76,11.23h-4.62L149,67.31V80.82h-9.56V50.11h8.62l10.14,16.36,9.88-16.36h8.62l.09,30.71Z" transform="translate(88.11 166.54)"/><path class="cls-7" d="M210,73v7.81H184.08V50.11h25.3v7.81h-15v3.6h13.17V69H194.39v4Z" transform="translate(88.11 166.54)"/><path class="cls-7" d="M236.82,64.63h9.12v13a21.26,21.26,0,0,1-6.41,2.9,26.83,26.83,0,0,1-7.16,1,19.24,19.24,0,0,1-8.94-2,15.7,15.7,0,0,1,.07-28,19.84,19.84,0,0,1,9.1-2,21.1,21.1,0,0,1,8.2,1.51,15.39,15.39,0,0,1,6,4.41l-6.72,5.83a9,9,0,0,0-7-3.37,7.38,7.38,0,0,0-5.51,2.06,7.58,7.58,0,0,0-2.05,5.61,7.69,7.69,0,0,0,2,5.57A7.13,7.13,0,0,0,233,73.14a9.93,9.93,0,0,0,3.82-.75Z" transform="translate(88.11 166.54)"/><path class="cls-7" d="M273.87,75.47H262L260,80.82H249.27l13.61-30.71H273.2l13.61,30.71H276ZM271,68l-3-7.72-3,7.72Z" transform="translate(88.11 166.54)"/><path class="cls-8" d="M163,107.51V101q0-4.45-4.42-4.46H157q-4.31,0-4.31,4.46v12.33a3.63,3.63,0,0,0,.84,2.8,21.76,21.76,0,0,0,2.73,1.86l9.56,5.08a45.15,45.15,0,0,1,4.47,2.75,7,7,0,0,1,2,2.38q.73,1.4.74,5.34v15.85q0,12.54-12.19,12.54h-6.19q-12.09,0-12.08-13.68V144.5h10.08v4q0,4.35,4.52,4.35H159c2.66,0,4-1.45,4-4.35V135.9a3.68,3.68,0,0,0-.84-2.8,22.85,22.85,0,0,0-2.74-1.86L149.85,126a28.59,28.59,0,0,1-4.56-2.8,6.34,6.34,0,0,1-2-3,14.65,14.65,0,0,1-.63-4.71V100.25q0-12.73,12.08-12.74H161q12.07,0,12.08,12.74v7.26Z" transform="translate(88.11 166.54)"/><path class="cls-8" d="M190,161.91H179.9V100.25q0-12.73,12.08-12.74h7.56q12.08,0,12.08,12.74v61.66H201.54V134.66H190Zm11.56-36.27V100.88q0-4.36-4.42-4.36h-2.73q-4.41,0-4.41,4.36v24.76Z" transform="translate(88.11 166.54)"/><path class="cls-8" d="M243.45,161.91H219.5V87.51h10.08v65.38h13.87Z" transform="translate(88.11 166.54)"/><path class="cls-8" d="M248.17,161.91V87.51h25v9H258.26v22.59h13.23v9H258.26v24.76h14.92v9Z" transform="translate(88.11 166.54)"/><path class="cls-5" d="M236.76,186.88v13.74H176.82V186.88h59.94m1.44-1.45H175.38v16.63H238.2V185.43Z" transform="translate(88.11 166.54)"/><g class="cls-9"><path class="cls-7" d="M263.24-58.76a5.9,5.9,0,0,1,8.32-.22,5.92,5.92,0,0,1-.22,8.33l-7.87,7.87a6.07,6.07,0,0,0,0,8.55l.95.95a6.07,6.07,0,0,0,8.55,0l33.78-33.79a5.91,5.91,0,0,1,8.33-.21,5.9,5.9,0,0,1-.22,8.32L286.61-30.71a6.05,6.05,0,0,0,0,8.54l.95,1a6.07,6.07,0,0,0,8.55,0l44.66-44.66a5.9,5.9,0,0,1,8.32-.22,5.91,5.91,0,0,1-.21,8.33L329.14-38a6.05,6.05,0,0,0,0,8.54l.95.95a6.05,6.05,0,0,0,8.54,0l25.08-25.08a5.91,5.91,0,0,1,8.33-.21,5.9,5.9,0,0,1-.22,8.32l-36,36a6.05,6.05,0,0,0,0,8.54l.95,1a6.07,6.07,0,0,0,8.55,0l106-106a6.05,6.05,0,0,0,0-8.54l-.95-1a6.05,6.05,0,0,0-8.54,0L422.49-96.18a5.9,5.9,0,0,1-8.32.22,5.91,5.91,0,0,1,.21-8.33l5.31-5.3a6.07,6.07,0,0,0,0-8.54l-.95-1a6.07,6.07,0,0,0-8.55,0l-6.29,6.29a5.91,5.91,0,0,1-8.33.21,5.9,5.9,0,0,1,.22-8.32L413-138.07a6.07,6.07,0,0,0,0-8.55l-.95-.95a6.05,6.05,0,0,0-8.54,0l-33.79,33.79a5.9,5.9,0,0,1-8.32.21,5.9,5.9,0,0,1,.22-8.32l8.66-8.67a6.05,6.05,0,0,0,0-8.54l-.95-1a6.07,6.07,0,0,0-8.55,0L324.39-103.7a5.92,5.92,0,0,1-8.33.22,5.92,5.92,0,0,1,.22-8.33l43.48-43.47a6.05,6.05,0,0,0,0-8.54l-.95-1a6.07,6.07,0,0,0-8.55,0L230.44-44.95a6.05,6.05,0,0,0,0,8.54l.95.95a6.07,6.07,0,0,0,8.55,0Z" transform="translate(88.11 166.54)"/><path class="cls-8" d="M454.23-31.31a6.27,6.27,0,0,1-8.84.23,6.28,6.28,0,0,1,.23-8.84L454-48.28a6.42,6.42,0,0,0,0-9.07l-1-1a6.44,6.44,0,0,0-9.07,0L408-22.49a6.27,6.27,0,0,1-8.84.23,6.27,6.27,0,0,1,.23-8.84l30-30a6.44,6.44,0,0,0,0-9.07l-1-1a6.44,6.44,0,0,0-9.07,0L371.9-23.75a6.27,6.27,0,0,1-8.84.23,6.28,6.28,0,0,1,.23-8.84l21-21a6.42,6.42,0,0,0,0-9.07l-1-1a6.45,6.45,0,0,0-9.08,0L347.54-36.77a6.27,6.27,0,0,1-8.84.23,6.28,6.28,0,0,1,.23-8.84l38.18-38.18a6.42,6.42,0,0,0,0-9.07l-1-1a6.42,6.42,0,0,0-9.07,0L254.5,18.89a6.44,6.44,0,0,0,0,9.07l1,1a6.44,6.44,0,0,0,9.07,0L285.12,8.43A6.28,6.28,0,0,1,294,8.2a6.28,6.28,0,0,1-.24,8.84l-5.62,5.63a6.42,6.42,0,0,0,0,9.07l1,1a6.45,6.45,0,0,0,9.08,0l6.68-6.68a6.1,6.1,0,1,1,8.61,8.61L295.25,52.91a6.42,6.42,0,0,0,0,9.07l1,1a6.43,6.43,0,0,0,9.08,0L341.2,27.12a6.1,6.1,0,1,1,8.61,8.61l-9.2,9.2a6.44,6.44,0,0,0,0,9.07l1,1a6.42,6.42,0,0,0,9.07,0l38.6-38.6a6.28,6.28,0,0,1,8.85-.23A6.28,6.28,0,0,1,397.9,25L351.74,71.18a6.45,6.45,0,0,0,0,9.08l1,1a6.42,6.42,0,0,0,9.07,0L489.05-46a6.42,6.42,0,0,0,0-9.07l-1-1A6.45,6.45,0,0,0,479-56Z" transform="translate(88.11 166.54)"/><path class="cls-10" d="M-53.55,252.05a5.9,5.9,0,0,1,8.32-.21,5.9,5.9,0,0,1-.22,8.32L-53.32,268a6.05,6.05,0,0,0,0,8.54l1,.95a6.07,6.07,0,0,0,8.55,0L-10,243.75a5.92,5.92,0,0,1,8.33-.22,5.92,5.92,0,0,1-.22,8.33L-30.18,280.1a6.07,6.07,0,0,0,0,8.55l.95.94a6.07,6.07,0,0,0,8.55,0L24,244.93A5.74,5.74,0,1,1,32.09,253L12.35,272.78a6.07,6.07,0,0,0,0,8.55l1,.95a6.05,6.05,0,0,0,8.54,0L46.92,257.2A5.74,5.74,0,1,1,55,265.31l-36,35.95a6.07,6.07,0,0,0,0,8.55l.95.95a6.07,6.07,0,0,0,8.55,0l106-106a6.05,6.05,0,0,0,0-8.54l-.95-1a6.05,6.05,0,0,0-8.54,0L105.7,214.63a5.74,5.74,0,1,1-8.11-8.11l5.31-5.3a6.05,6.05,0,0,0,0-8.54l-1-1a6.07,6.07,0,0,0-8.55,0L87.11,198A5.74,5.74,0,1,1,79,189.91l17.17-17.17a6.05,6.05,0,0,0,0-8.54l-1-.95a6.05,6.05,0,0,0-8.54,0L52.89,197a5.74,5.74,0,1,1-8.1-8.11l8.66-8.66a6.07,6.07,0,0,0,0-8.55l-1-1a6.07,6.07,0,0,0-8.55,0L7.6,207.12a5.91,5.91,0,0,1-8.33.21A5.9,5.9,0,0,1-.51,199L43,155.53A6.05,6.05,0,0,0,43,147L42,146a6.07,6.07,0,0,0-8.55,0L-86.35,265.86a6.05,6.05,0,0,0,0,8.54l.95,1a6.07,6.07,0,0,0,8.55,0Z" transform="translate(88.11 166.54)"/><path class="cls-11" d="M150.23,252.22a6.1,6.1,0,1,1-8.61-8.61l8.35-8.36a6.42,6.42,0,0,0,0-9.07l-1-1a6.45,6.45,0,0,0-9.08,0L104,261a6.1,6.1,0,1,1-8.61-8.61l30-30a6.42,6.42,0,0,0,0-9.07l-1-1a6.44,6.44,0,0,0-9.07,0L67.9,259.78a6.1,6.1,0,1,1-8.61-8.61l21-21a6.44,6.44,0,0,0,0-9.07l-1-1a6.44,6.44,0,0,0-9.07,0L43.54,246.76a6.1,6.1,0,1,1-8.62-8.61L73.11,200a6.44,6.44,0,0,0,0-9.07l-1-1a6.42,6.42,0,0,0-9.07,0L-49.5,302.42a6.42,6.42,0,0,0,0,9.07l1,1a6.43,6.43,0,0,0,9.08,0L-18.88,292a6.28,6.28,0,0,1,8.84-.23,6.28,6.28,0,0,1-.23,8.84l-5.63,5.63a6.42,6.42,0,0,0,0,9.07l1,1a6.42,6.42,0,0,0,9.07,0L.86,309.6a6.28,6.28,0,0,1,8.84-.23,6.27,6.27,0,0,1-.23,8.84L-8.76,336.44a6.45,6.45,0,0,0,0,9.08l1,1a6.42,6.42,0,0,0,9.07,0l35.87-35.87a6.1,6.1,0,1,1,8.61,8.61l-9.19,9.2a6.42,6.42,0,0,0,0,9.07l1,1a6.43,6.43,0,0,0,9.08,0l38.6-38.6a6.1,6.1,0,1,1,8.61,8.61L47.74,354.71a6.43,6.43,0,0,0,0,9.08l1,1a6.45,6.45,0,0,0,9.08,0L185.05,237.56a6.44,6.44,0,0,0,0-9.07l-1-1a6.44,6.44,0,0,0-9.07,0Z" transform="translate(88.11 166.54)"/></g><circle class="cls-7" cx="139.38" cy="118.52" r="2.18"/><path class="cls-7" d="M355.93,168.66a5.72,5.72,0,1,1-5.72-5.72A5.72,5.72,0,0,1,355.93,168.66Z" transform="translate(88.11 166.54)"/><path class="cls-7" d="M374.05,233a3,3,0,1,1-3-3A3,3,0,0,1,374.05,233Z" transform="translate(88.11 166.54)"/><circle class="cls-7" cx="207.65" cy="344.08" r="2.73"/><path class="cls-7" d="M263.72-5.42A2.73,2.73,0,0,1,261-2.69a2.73,2.73,0,0,1-2.73-2.73A2.73,2.73,0,0,1,261-8.15,2.73,2.73,0,0,1,263.72-5.42Z" transform="translate(88.11 166.54)"/><circle class="cls-8" cx="201.64" cy="262.7" r="2.18"/><circle class="cls-8" cx="297.76" cy="148.56" r="4.37"/><path class="cls-8" d="M314,100a3.28,3.28,0,1,1-3.28-3.28A3.28,3.28,0,0,1,314,100Z" transform="translate(88.11 166.54)"/><path class="cls-8" d="M66.56,149.42a5.19,5.19,0,1,1-5.19-5.19A5.2,5.2,0,0,1,66.56,149.42Z" transform="translate(88.11 166.54)"/><path class="cls-8" d="M189.44,261.11a2.73,2.73,0,1,1-2.73-2.73A2.73,2.73,0,0,1,189.44,261.11Z" transform="translate(88.11 166.54)"/></g></g></g></svg>