<svg xmlns="http://www.w3.org/2000/svg" viewBox="0 0 500 500"><defs><style>.cls-1{fill:#fab407;}.cls-1,.cls-2,.cls-4{stroke:#000;stroke-miterlimit:10;stroke-width:7px;}.cls-3{fill:#c68902;}.cls-4{fill:#ff0;}.cls-5{fill:none;}</style></defs><g id="Layer_2" data-name="Layer 2"><g id="Layer_1-2" data-name="Layer 1"><path class="cls-1" d="M253.71,474.29l-53.65-53.65a156.81,156.81,0,0,1,0-221.75l19.55-19.54a48.22,48.22,0,0,1,68.21,0l19.54,19.54a156.79,156.79,0,0,1,0,221.75Z"/><path class="cls-2" d="M156.14,277.05a176.7,176.7,0,0,0-2.73,22.66c29,10.76,63.17,17,99.84,17,36.94,0,71.33-6.34,100.47-17.25A176.72,176.72,0,0,0,351,276.82c-28.54,10.31-61.92,16.3-97.73,16.3C217.7,293.12,184.54,287.22,156.14,277.05Z"/><path class="cls-2" d="M164.81,357.55a194.34,194.34,0,0,0,9.73,26.62,381.79,381.79,0,0,0,78.66,8.05A381.4,381.4,0,0,0,332.68,384a193.26,193.26,0,0,0,9.7-26.65,375.34,375.34,0,0,1-89.18,10.46A376.33,376.33,0,0,1,164.81,357.55Z"/><circle class="cls-1" cx="251.64" cy="118.31" r="56.22"/><line class="cls-1" x1="225.54" y1="65.06" x2="201.78" y2="25.71"/><line class="cls-1" x1="274.54" y1="65.06" x2="298.3" y2="25.71"/><path class="cls-3" d="M251.77,253.9a72.7,72.7,0,0,0,65.48-41.2,156,156,0,0,0-31.37-45.24h0a48.24,48.24,0,0,0-68.22,0h0A156.18,156.18,0,0,0,186.3,212.7,72.69,72.69,0,0,0,251.77,253.9Z"/><circle cx="252.64" cy="154.68" r="56.22"/><path class="cls-1" d="M49.91,320H93.48A141.63,141.63,0,0,0,235.11,178.41h0a43.57,43.57,0,0,0-43.57-43.57h0A141.63,141.63,0,0,0,49.91,276.47Z"/><path class="cls-1" d="M449.8,320H407.89A141.63,141.63,0,0,1,266.26,178.41h0a43.57,43.57,0,0,1,43.57-43.57h0A141.63,141.63,0,0,1,451.46,276.47v41.91A1.66,1.66,0,0,1,449.8,320Z"/><path class="cls-1" d="M432.18,333.74,440.73,379a.4.4,0,0,0,.78,0l8.56-45.21a.41.41,0,0,0-.4-.47h-17.1A.4.4,0,0,0,432.18,333.74Z"/><path class="cls-1" d="M48.55,333.74,57.1,379a.4.4,0,0,0,.78,0l8.56-45.21a.4.4,0,0,0-.39-.47H48.94A.4.4,0,0,0,48.55,333.74Z"/><path class="cls-1" d="M81.62,333.64l6.76,35.75a.32.32,0,0,0,.62,0l6.76-35.75a.31.31,0,0,0-.31-.37H81.93A.31.31,0,0,0,81.62,333.64Z"/><path class="cls-1" d="M109.36,330.3l6.15,32.5a.28.28,0,0,0,.56,0l6.15-32.5a.29.29,0,0,0-.28-.34h-12.3A.29.29,0,0,0,109.36,330.3Z"/><path class="cls-1" d="M380.55,333.61l6.14,32.5a.29.29,0,0,0,.57,0l6.15-32.5a.29.29,0,0,0-.29-.34H380.83A.28.28,0,0,0,380.55,333.61Z"/><path class="cls-1" d="M405.72,333.64l6.76,35.75a.32.32,0,0,0,.62,0l6.76-35.75a.31.31,0,0,0-.31-.37H406A.31.31,0,0,0,405.72,333.64Z"/><path class="cls-4" d="M202,154.68s-13.23-6.61-39.69,0"/><path class="cls-4" d="M147.37,159.32c-12,4.62-29.38,13.27-44.55,28.43"/><rect class="cls-5" width="500" height="500"/></g></g></svg>