<svg xmlns="http://www.w3.org/2000/svg" viewBox="0 0 500 500"><defs><style>.cls-1{fill:#fab407;}.cls-1,.cls-3{stroke:#000;stroke-miterlimit:10;stroke-width:7px;}.cls-2{fill:#c68902;}.cls-4{fill:none;}</style></defs><g id="Layer_2" data-name="Layer 2"><g id="Layer_1-2" data-name="Layer 1"><path class="cls-1" d="M200.88,109.93a57.92,57.92,0,1,0,102.19,0Z"/><path class="cls-1" d="M255.06,461.61l-35.14-35.14a161.52,161.52,0,0,1,0-228.43h0a49.68,49.68,0,0,1,70.27,0h0a161.52,161.52,0,0,1,0,228.43Z"/><path class="cls-2" d="M251.12,287.08a74.88,74.88,0,0,0,67.45-42.43A160.73,160.73,0,0,0,286.26,198h0A49.68,49.68,0,0,0,216,198h0a160.77,160.77,0,0,0-32.32,46.61A74.89,74.89,0,0,0,251.12,287.08Z"/><circle class="cls-3" cx="251.12" cy="184.88" r="57.91"/><path class="cls-3" d="M175.15,283.38A164.08,164.08,0,0,0,172.92,303c23.75,9.32,51.72,14.74,81.74,14.74,30.24,0,58.4-5.49,82.26-14.93a159.67,159.67,0,0,0-2.25-19.62c-23.36,8.93-50.69,14.11-80,14.11C225.55,297.3,198.41,292.19,175.15,283.38Z"/><path class="cls-3" d="M178.79,356.84a161.7,161.7,0,0,0,8.35,22.3A341.12,341.12,0,0,0,322.78,379a159.71,159.71,0,0,0,8.32-22.32,329.6,329.6,0,0,1-76.49,8.76A330,330,0,0,1,178.79,356.84Z"/><path class="cls-1" d="M43.18,355.22H88.06A145.9,145.9,0,0,0,234,209.32h0a44.88,44.88,0,0,0-44.89-44.88h0A145.89,145.89,0,0,0,43.18,310.33Z"/><path class="cls-1" d="M456.82,351.81H411.94A145.9,145.9,0,0,1,266,205.91h0A44.89,44.89,0,0,1,310.93,161h0a145.9,145.9,0,0,1,145.89,145.9Z"/><path class="cls-1" d="M250.59,39l-17,22.49a1.83,1.83,0,0,1-2.54.23l-25-21c-1-.87-2.81-.26-2.81,1V94.39a1.53,1.53,0,0,0,1.65,1.38H299a1.52,1.52,0,0,0,1.64-1.38V41.71c0-1.24-1.76-1.85-2.8-1l-25,21a1.83,1.83,0,0,1-2.54-.23L253.36,39A1.82,1.82,0,0,0,250.59,39Z"/><rect class="cls-4" width="500" height="500"/></g></g></svg>