<svg xmlns="http://www.w3.org/2000/svg" viewBox="0 0 500 500"><defs><style>.cls-1{fill:#fab407;}.cls-1,.cls-2{stroke:#000;stroke-miterlimit:10;stroke-width:7px;}.cls-3{fill:#c68902;}.cls-4{fill:none;}</style></defs><g id="Layer_2" data-name="Layer 2"><g id="Layer_1-2" data-name="Layer 1"><path class="cls-1" d="M253.27,483l-36.89-36.89a169.57,169.57,0,0,1,0-239.82h0a52.17,52.17,0,0,1,73.77,0h0a169.57,169.57,0,0,1,0,239.82Z"/><path class="cls-2" d="M169.27,296.48a159.11,159.11,0,0,0-2.34,19.92c25,9.46,54.36,15,85.92,15,31.79,0,61.39-5.58,86.47-15.17A159.38,159.38,0,0,0,337,296.28c-24.56,9.07-53.29,14.33-84.11,14.33C222.26,310.61,193.72,305.42,169.27,296.48Z"/><path class="cls-2" d="M175,373a171,171,0,0,0,8.57,23.44,342.25,342.25,0,0,0,139.23-.15,171.61,171.61,0,0,0,8.54-23.46A339.76,339.76,0,0,1,175,373Z"/><circle class="cls-1" cx="251.04" cy="117.37" r="60.94"/><line class="cls-1" x1="222.74" y1="59.66" x2="196.99" y2="17"/><line class="cls-1" x1="275.85" y1="59.66" x2="301.61" y2="17"/><path class="cls-3" d="M251.18,264.34a78.79,78.79,0,0,0,71-44.65,169.18,169.18,0,0,0-34-49h0a52.28,52.28,0,0,0-73.94,0h0a169.18,169.18,0,0,0-34,49A78.79,78.79,0,0,0,251.18,264.34Z"/><circle cx="252.12" cy="156.8" r="60.94"/><path class="cls-1" d="M32.38,336H79.6A153.51,153.51,0,0,0,233.12,182.52h0a47.24,47.24,0,0,0-47.23-47.23h0A153.51,153.51,0,0,0,32.38,288.81Z"/><path class="cls-1" d="M465.82,336H420.4A153.51,153.51,0,0,1,266.88,182.52h0a47.24,47.24,0,0,1,47.23-47.23h0A153.51,153.51,0,0,1,467.62,288.81v45.42A1.79,1.79,0,0,1,465.82,336Z"/><rect class="cls-4" width="500" height="500"/></g></g></svg>